<svg width="27" height="28" viewBox="0 0 27 28" fill="none" xmlns="http://www.w3.org/2000/svg">
<path d="M1.39941 20.908C2.26057 20.3463 3.08428 19.7847 3.94544 19.2605C4.24497 19.0733 4.58194 18.9236 4.9938 18.6989C6.41657 21.6568 8.55074 23.5663 12.22 23.5289C10.6475 24.6896 9.1498 24.727 7.6147 24.39C5.25589 23.8658 3.30893 22.5179 1.39941 21.1326C1.39941 21.0203 1.39941 20.9828 1.39941 20.908Z" fill="#02055A"/>
<path d="M25.3616 21.0952C23.7516 22.0686 22.1416 23.117 20.4568 23.9407C19.034 24.6521 17.4615 24.7644 15.9264 24.2777C15.5145 24.1279 15.1026 23.9033 14.541 23.6412C18.7719 22.8924 18.7719 22.8924 21.8795 18.6989C23.0402 19.4477 24.2009 20.1966 25.3616 20.908C25.3616 20.9828 25.3616 21.0203 25.3616 21.0952Z" fill="#02055A"/>
<path d="M9.82316 2C9.82316 2.4493 9.82316 2.86115 9.82316 3.38534C8.92457 3.38534 8.06341 3.38534 7.05249 3.38534C7.05249 4.65835 7.08993 5.81903 7.05249 6.97972C7.01505 8.36505 5.81692 9.30109 4.50647 9.00156C3.53299 8.73947 2.89648 7.9532 2.89648 6.97972C2.89648 5.9688 3.49555 5.18253 4.46903 4.95788C4.84344 4.883 5.21786 4.84555 5.7046 4.77067C5.7046 3.87208 5.7046 2.93604 5.7046 2C7.08993 2 8.47527 2 9.82316 2Z" fill="#02055A"/>
<path d="M13.1939 25.9626C12.8943 25.7379 12.6322 25.5133 12.2578 25.2512C12.6322 24.9891 12.9692 24.7644 13.3436 24.5023C13.718 24.727 14.055 24.9516 14.5043 25.2512C14.1673 25.5133 13.8678 25.7754 13.5683 26C13.4559 25.9626 13.3436 25.9626 13.1939 25.9626Z" fill="#02055A"/>
<path d="M13.4187 8.6646C15.0287 10.986 16.414 13.2699 16.8259 16.0406C17.1628 18.3245 16.1145 20.4212 14.0552 21.4696C13.6808 21.6568 13.0817 21.6568 12.7073 21.4696C10.3859 20.2715 9.4499 17.9501 10.0864 15.1794C10.5357 13.2325 11.9959 10.3495 13.4187 8.6646Z" fill="#02055A"/>
<path d="M4.61914 12.1841C6.22913 12.5959 7.6519 12.9704 8.88747 13.2699C8.77515 14.9548 8.51306 16.4899 8.62538 17.9875C8.73771 19.5601 9.6363 20.8331 10.9468 22.0312C9.33677 21.8065 8.25097 21.0577 7.42725 19.9719C5.92959 18.025 5.29309 15.7036 4.80635 13.3448C4.73147 13.0078 4.69402 12.7083 4.61914 12.1841Z" fill="#02055A"/>
<path d="M15.9268 21.9563C18.5851 19.5226 18.7723 16.6396 17.6116 13.3448C19.1467 12.9703 20.5695 12.5959 22.0672 12.2215C22.0672 16.9017 19.1093 21.5444 15.9268 21.9563Z" fill="#02055A"/>
<path d="M23.865 3.5351C23.865 3.94695 23.865 4.35881 23.865 4.80811C22.9664 4.80811 22.1053 4.80811 21.0943 4.80811C21.0943 6.08112 21.1318 7.31669 21.0943 8.51482C21.0569 9.52574 20.3081 10.312 19.372 10.4618C18.3986 10.6115 17.5 10.1248 17.0881 9.2262C16.5265 7.91575 17.3502 6.49297 18.773 6.30577C19.0351 6.26833 19.3346 6.26832 19.6716 6.23088C19.6716 5.33229 19.6716 4.47113 19.6716 3.5351C21.1318 3.5351 22.4797 3.5351 23.865 3.5351Z" fill="#02055A"/>
</svg>
