<svg width="35" height="35" viewBox="0 0 35 35" fill="none" xmlns="http://www.w3.org/2000/svg">
<path d="M18.3648 33.9179L18.3488 33.9208L18.2452 33.9719L18.216 33.9777L18.1956 33.9719L18.0921 33.9208C18.0765 33.916 18.0649 33.9184 18.0571 33.9281L18.0513 33.9427L18.0265 34.5669L18.0338 34.5961L18.0483 34.615L18.2 34.7229L18.2219 34.7288L18.2394 34.7229L18.391 34.615L18.4085 34.5917L18.4144 34.5669L18.3896 33.9442C18.3857 33.9286 18.3774 33.9199 18.3648 33.9179ZM18.7513 33.7531L18.7323 33.7561L18.4625 33.8917L18.4479 33.9063L18.4435 33.9223L18.4698 34.5494L18.4771 34.5669L18.4888 34.5771L18.7819 34.7127C18.8004 34.7176 18.8145 34.7137 18.8242 34.7011L18.83 34.6806L18.7804 33.7852C18.7756 33.7677 18.7658 33.757 18.7513 33.7531ZM17.7085 33.7561C17.7021 33.7522 17.6944 33.7509 17.6871 33.7525C17.6798 33.7542 17.6733 33.7586 17.6692 33.7648L17.6604 33.7852L17.6108 34.6806C17.6118 34.6981 17.6201 34.7098 17.6356 34.7156L17.6575 34.7127L17.9506 34.5771L17.9652 34.5654L17.971 34.5494L17.9958 33.9223L17.9915 33.9048L17.9769 33.8902L17.7085 33.7561Z" fill="#FBFBFF"/>
<path d="M17.4998 2.91663C25.5542 2.91663 32.0832 9.44558 32.0832 17.5C32.0832 25.5543 25.5542 32.0833 17.4998 32.0833C9.44546 32.0833 2.9165 25.5543 2.9165 17.5C2.9165 9.44558 9.44546 2.91663 17.4998 2.91663ZM14.4067 12.3433C14.1449 12.079 13.7919 11.9247 13.4201 11.9121C13.0482 11.8995 12.6856 12.0295 12.4065 12.2754C12.1273 12.5214 11.9528 12.8648 11.9185 13.2352C11.8842 13.6057 11.9928 13.9753 12.2221 14.2683L12.3446 14.4068L15.4363 17.4985L12.3446 20.5931C12.0803 20.8549 11.926 21.2079 11.9134 21.5797C11.9008 21.9516 12.0308 22.3142 12.2768 22.5933C12.5227 22.8724 12.8661 23.047 13.2366 23.0813C13.6071 23.1156 13.9766 23.007 14.2696 22.7777L14.4067 22.6566L17.4998 19.562L20.593 22.6566C20.8548 22.921 21.2078 23.0752 21.5796 23.0878C21.9514 23.1004 22.314 22.9705 22.5932 22.7245C22.8723 22.4785 23.0469 22.1351 23.0812 21.7647C23.1154 21.3942 23.0068 21.0246 22.7775 20.7316L22.6565 20.5931L19.5619 17.5L22.6565 14.4068C22.9208 14.145 23.0751 13.792 23.0877 13.4202C23.1003 13.0484 22.9703 12.6858 22.7244 12.4066C22.4784 12.1275 22.135 11.9529 21.7646 11.9186C21.3941 11.8843 21.0245 11.993 20.7315 12.2222L20.593 12.3433L17.4998 15.4379L14.4067 12.3433Z" fill="#FBFBFF"/>
</svg>
