<svg width="22" height="22" viewBox="0 0 22 22" fill="none" xmlns="http://www.w3.org/2000/svg">
<path d="M4.61485 19.2094C4.11316 19.2094 3.68384 19.031 3.32688 18.674C2.96992 18.317 2.79114 17.8874 2.79053 17.3851V4.61485C2.79053 4.11316 2.96931 3.68384 3.32688 3.32688C3.68445 2.96992 4.11377 2.79114 4.61485 2.79053H17.3851C17.8868 2.79053 18.3164 2.96931 18.674 3.32688C19.0316 3.68445 19.2101 4.11377 19.2094 4.61485V17.3851C19.2094 17.8868 19.031 18.3164 18.674 18.674C18.317 19.0316 17.8874 19.2101 17.3851 19.2094H4.61485ZM5.52701 15.5608H16.473L13.0524 11L10.3159 14.6486L8.2635 11.9121L5.52701 15.5608Z" fill="#02055A"/>
</svg>
