<svg width="22" height="22" viewBox="0 0 22 22" fill="none" xmlns="http://www.w3.org/2000/svg">
<path fill-rule="evenodd" clip-rule="evenodd" d="M10.9748 1.87835C10.7371 1.88408 10.511 1.98282 10.3452 2.15337C10.1795 2.32392 10.0872 2.55268 10.0882 2.79051V13.3123C9.39266 12.9107 8.58403 12.7499 7.78774 12.8547C6.99146 12.9595 6.252 13.3241 5.68405 13.892C5.1161 14.4599 4.75139 15.1993 4.64649 15.9956C4.54159 16.7919 4.70236 17.6005 5.10386 18.2961C5.50536 18.9917 6.12516 19.5354 6.86714 19.8428C7.60911 20.1503 8.43181 20.2044 9.20763 19.9966C9.98346 19.7889 10.6691 19.3309 11.1581 18.6939C11.6472 18.0568 11.9124 17.2761 11.9125 16.4729V7.51551L16.3238 8.25072C16.4544 8.27243 16.5881 8.26545 16.7158 8.23026C16.8434 8.19506 16.9619 8.1325 17.0629 8.04692C17.164 7.96134 17.2451 7.85478 17.3009 7.73466C17.3566 7.61454 17.3854 7.48373 17.3855 7.35133V3.70268C17.3854 3.48676 17.3087 3.27788 17.1691 3.1132C17.0295 2.94851 16.8359 2.83869 16.6229 2.80328L11.1673 1.89386C11.1039 1.88189 11.0394 1.8767 10.9748 1.87835Z" fill="#02055A"/>
</svg>
