<svg width="24" height="24" viewBox="0 0 24 24" fill="none" xmlns="http://www.w3.org/2000/svg">
<path d="M20.8027 8C21.0668 10.6601 21.0668 13.3399 20.8027 16" stroke="#747474" stroke-width="2" stroke-linecap="round"/>
<path d="M13 11.9996C13 10.1156 12.837 8.26958 12.525 6.47458C12.402 5.77058 11.588 5.45558 11.005 5.86958L8.52 7.63158C8.18178 7.87117 7.77748 7.99977 7.363 7.99958H5C4.46957 7.99958 3.96086 8.2103 3.58579 8.58537C3.21071 8.96044 3 9.46915 3 9.99958V13.9996C3 14.53 3.21071 15.0387 3.58579 15.4138C3.96086 15.7889 4.46957 15.9996 5 15.9996H7.363C7.77748 15.9994 8.18178 16.128 8.52 16.3676L11.005 18.1296C11.588 18.5436 12.402 18.2296 12.525 17.5246C12.8429 15.7001 13.0018 13.8515 13 11.9996Z" stroke="#747474" stroke-width="2" stroke-linejoin="round"/>
<path d="M16.877 9C17.0417 10.9966 17.0417 13.0034 16.877 15" stroke="#747474" stroke-width="2" stroke-linecap="round"/>
</svg>
