<svg width="22" height="22" viewBox="0 0 22 22" fill="none" xmlns="http://www.w3.org/2000/svg">
<path d="M9.62516 15.5833H3.66683V13.75H9.62516C10.2107 13.7502 10.785 13.9106 11.2858 14.2139C11.7867 14.5172 12.195 14.9518 12.4665 15.4705C12.738 15.9893 12.8624 16.5724 12.8262 17.1568C12.79 17.7412 12.5945 18.3046 12.261 18.7858C11.9275 19.2671 11.4686 19.6479 10.9342 19.887C10.3997 20.1261 9.80997 20.2144 9.2289 20.1422C8.64784 20.0701 8.09759 19.8404 7.63777 19.4779C7.17795 19.1154 6.8261 18.634 6.62033 18.0858L8.33725 17.4414C8.42541 17.6764 8.57619 17.8827 8.77324 18.0381C8.97029 18.1934 9.20611 18.2919 9.45513 18.3229C9.70416 18.3538 9.9569 18.316 10.186 18.2135C10.415 18.1111 10.6117 17.9479 10.7547 17.7416C10.8976 17.5354 10.9814 17.294 10.997 17.0435C11.0125 16.7931 10.9592 16.5431 10.8428 16.3208C10.7265 16.0985 10.5515 15.9122 10.3369 15.7822C10.1222 15.6522 9.8761 15.5834 9.62516 15.5833ZM4.5835 10.0833H16.9585C17.544 10.0835 18.1183 10.244 18.6192 10.5473C19.12 10.8505 19.5283 11.2851 19.7999 11.8039C20.0714 12.3226 20.1958 12.9058 20.1595 13.4902C20.1233 14.0746 19.9278 14.6379 19.5943 15.1192C19.2608 15.6004 18.802 15.9812 18.2675 16.2203C17.733 16.4594 17.1433 16.5477 16.5622 16.4756C15.9812 16.4035 15.4309 16.1737 14.9711 15.8112C14.5113 15.4488 14.1594 14.9673 13.9537 14.4192L15.6706 13.7748C15.7587 14.0097 15.9095 14.216 16.1066 14.3714C16.3036 14.5268 16.5394 14.6253 16.7885 14.6562C17.0375 14.6871 17.2902 14.6493 17.5193 14.5468C17.7484 14.4444 17.945 14.2812 18.088 14.075C18.2309 13.8687 18.3147 13.6273 18.3303 13.3768C18.3458 13.1264 18.2925 12.8765 18.1762 12.6541C18.0598 12.4318 17.8848 12.2455 17.6702 12.1155C17.4556 11.9855 17.2094 11.9168 16.9585 11.9167H4.5835C3.85415 11.9167 3.15468 11.6269 2.63895 11.1112C2.12323 10.5955 1.8335 9.89602 1.8335 9.16667C1.8335 8.43732 2.12323 7.73785 2.63895 7.22213C3.15468 6.7064 3.85415 6.41667 4.5835 6.41667H12.3752C12.6261 6.41657 12.8722 6.34779 13.0869 6.2178C13.3015 6.08781 13.4765 5.90155 13.5928 5.67922C13.7092 5.45689 13.7625 5.20695 13.7469 4.95649C13.7314 4.70604 13.6476 4.46461 13.5047 4.25837C13.3617 4.05213 13.165 3.88894 12.936 3.78649C12.7069 3.68404 12.4542 3.64623 12.2051 3.67715C11.9561 3.70808 11.7203 3.80656 11.5232 3.96194C11.3262 4.11731 11.1754 4.32364 11.0872 4.55859L9.37033 3.91509C9.63476 3.21182 10.1376 2.62363 10.7911 2.253C11.4447 1.88236 12.2075 1.75278 12.9468 1.88682C13.6861 2.02087 14.3549 2.41005 14.8367 2.98655C15.3185 3.56306 15.5828 4.29034 15.5835 5.04167C15.5835 5.89257 15.2455 6.70862 14.6438 7.3103C14.0421 7.91198 13.2261 8.25 12.3752 8.25H4.5835C4.34038 8.25 4.10722 8.34658 3.93531 8.51849C3.76341 8.6904 3.66683 8.92355 3.66683 9.16667C3.66683 9.40978 3.76341 9.64294 3.93531 9.81485C4.10722 9.98676 4.34038 10.0833 4.5835 10.0833Z" fill="#02055A"/>
</svg>
