<svg width="128" height="128" viewBox="0 0 128 128" fill="none" xmlns="http://www.w3.org/2000/svg">
<path d="M64.0003 85.3333C70.0448 85.3333 76.7559 84.1333 84.1337 81.7333C91.5114 79.3333 102.578 75.1111 117.334 69.0667V67.0667C117.334 62.5333 115.511 58.8889 111.867 56.1333C108.223 53.3778 104.223 52.6222 99.867 53.8667C98.3559 54.3111 96.8234 54.8444 95.2697 55.4667C93.7159 56.0889 91.6483 56.8889 89.067 57.8667C83.6448 60.1778 79.067 61.7778 75.3337 62.6667C71.6003 63.5555 67.8225 64 64.0003 64C60.0003 64 56.1337 63.5342 52.4003 62.6027C48.667 61.6711 43.9559 60.048 38.267 57.7333C36.1337 56.8444 34.2901 56.112 32.7363 55.536C31.1825 54.96 29.6928 54.448 28.267 54C23.9114 52.5778 19.8901 53.2444 16.203 56C12.5159 58.7555 10.6705 62.4444 10.667 67.0667V68.8C22.3114 74.1333 32.5337 78.2222 41.3337 81.0667C50.1337 83.9111 57.6892 85.3333 64.0003 85.3333ZM64.0003 117.333C76.267 117.333 87.0457 113.977 96.3363 107.264C105.627 100.551 111.915 91.952 115.2 81.4667C103.556 86.4444 93.7781 90.112 85.867 92.4693C77.9559 94.8266 70.667 96.0035 64.0003 96C57.2448 96 49.5345 94.7342 40.8697 92.2027C32.2048 89.6711 22.7594 86.048 12.5337 81.3333C15.5559 92.2667 21.6448 101.001 30.8003 107.536C39.9559 114.071 51.0225 117.337 64.0003 117.333ZM64.0003 53.3333C58.1337 53.3333 53.1114 51.2444 48.9337 47.0667C44.7559 42.8889 42.667 37.8667 42.667 32C42.667 26.1333 44.7559 21.1111 48.9337 16.9333C53.1114 12.7555 58.1337 10.6667 64.0003 10.6667C69.867 10.6667 74.8892 12.7555 79.067 16.9333C83.2448 21.1111 85.3337 26.1333 85.3337 32C85.3337 37.8667 83.2448 42.8889 79.067 47.0667C74.8892 51.2444 69.867 53.3333 64.0003 53.3333Z" fill="#00B4BE"/>
</svg>
