<svg width="20" height="20" viewBox="0 0 20 20" fill="none" xmlns="http://www.w3.org/2000/svg">
<path d="M3.33317 3.33332H5.83317L7.49984 1.66666H12.4998L14.1665 3.33332H16.6665C17.1085 3.33332 17.5325 3.50892 17.845 3.82148C18.1576 4.13404 18.3332 4.55796 18.3332 4.99999V15C18.3332 15.442 18.1576 15.8659 17.845 16.1785C17.5325 16.4911 17.1085 16.6667 16.6665 16.6667H3.33317C2.89114 16.6667 2.46722 16.4911 2.15466 16.1785C1.8421 15.8659 1.6665 15.442 1.6665 15V4.99999C1.6665 4.55796 1.8421 4.13404 2.15466 3.82148C2.46722 3.50892 2.89114 3.33332 3.33317 3.33332ZM9.99984 5.83332C8.89477 5.83332 7.83496 6.27231 7.05356 7.05371C6.27216 7.83511 5.83317 8.89492 5.83317 9.99999C5.83317 11.1051 6.27216 12.1649 7.05356 12.9463C7.83496 13.7277 8.89477 14.1667 9.99984 14.1667C11.1049 14.1667 12.1647 13.7277 12.9461 12.9463C13.7275 12.1649 14.1665 11.1051 14.1665 9.99999C14.1665 8.89492 13.7275 7.83511 12.9461 7.05371C12.1647 6.27231 11.1049 5.83332 9.99984 5.83332ZM9.99984 7.49999C10.6629 7.49999 11.2988 7.76338 11.7676 8.23222C12.2364 8.70106 12.4998 9.33695 12.4998 9.99999C12.4998 10.663 12.2364 11.2989 11.7676 11.7678C11.2988 12.2366 10.6629 12.5 9.99984 12.5C9.3368 12.5 8.70091 12.2366 8.23207 11.7678C7.76323 11.2989 7.49984 10.663 7.49984 9.99999C7.49984 9.33695 7.76323 8.70106 8.23207 8.23222C8.70091 7.76338 9.3368 7.49999 9.99984 7.49999Z" fill="#FBFBFF"/>
</svg>
