<svg width="36" height="36" viewBox="0 0 36 36" fill="none" xmlns="http://www.w3.org/2000/svg">
<path d="M18.8895 34.887L18.873 34.89L18.7665 34.9425L18.7365 34.9485L18.7155 34.9425L18.609 34.89C18.593 34.885 18.581 34.8875 18.573 34.8975L18.567 34.9125L18.5415 35.5545L18.549 35.5845L18.564 35.604L18.72 35.715L18.7425 35.721L18.7605 35.715L18.9165 35.604L18.9345 35.58L18.9405 35.5545L18.915 34.914C18.911 34.898 18.9025 34.889 18.8895 34.887ZM19.287 34.7175L19.2675 34.7205L18.99 34.86L18.975 34.875L18.9705 34.8915L18.9975 35.5365L19.005 35.5545L19.017 35.565L19.3185 35.7045C19.3375 35.7095 19.352 35.7055 19.362 35.6925L19.368 35.6715L19.317 34.7505C19.312 34.7325 19.302 34.7215 19.287 34.7175ZM18.2145 34.7205C18.2079 34.7165 18.2 34.7152 18.1925 34.7169C18.1849 34.7186 18.1783 34.7231 18.174 34.7295L18.165 34.7505L18.114 35.6715C18.115 35.6895 18.1235 35.7015 18.1395 35.7075L18.162 35.7045L18.4635 35.565L18.4785 35.553L18.4845 35.5365L18.51 34.8915L18.5055 34.8735L18.4905 34.8585L18.2145 34.7205Z" fill="#FF8C00"/>
<path d="M18 6.00001C19.7728 6.00001 21.5283 6.3492 23.1662 7.02764C24.8041 7.70608 26.2923 8.70048 27.5459 9.95407C28.7995 11.2077 29.7939 12.6959 30.4724 14.3338C31.1508 15.9717 31.5 17.7272 31.5 19.5C31.5 21.2729 31.1508 23.0283 30.4724 24.6662C29.7939 26.3041 28.7995 27.7924 27.5459 29.046C26.2923 30.2995 24.8041 31.2939 23.1662 31.9724C21.5283 32.6508 19.7728 33 18 33C14.4196 33 10.9858 31.5777 8.45404 29.046C5.9223 26.5142 4.49998 23.0804 4.49998 19.5C4.49998 15.9196 5.9223 12.4858 8.45404 9.95407C10.9858 7.42233 14.4196 6.00001 18 6.00001ZM18 12C17.6326 12.0001 17.278 12.1349 17.0034 12.3791C16.7289 12.6232 16.5535 12.9596 16.5105 13.3245L16.5 13.5V19.479C16.4952 19.8126 16.6019 20.1383 16.803 20.4045L16.938 20.5605L20.097 23.718C20.3663 23.9899 20.7293 24.1486 21.1118 24.1615C21.4943 24.1745 21.8672 24.0408 22.1544 23.7878C22.4415 23.5348 22.621 23.1816 22.6563 22.8006C22.6915 22.4195 22.5798 22.0394 22.344 21.738L22.218 21.597L19.5 18.879V13.5C19.5 13.1022 19.3419 12.7207 19.0606 12.4394C18.7793 12.158 18.3978 12 18 12ZM27 3.90901C28.8729 4.99086 30.5354 6.40141 31.908 8.07301C32.1475 8.38147 32.2572 8.77117 32.2139 9.15928C32.1706 9.54739 31.9777 9.90331 31.6761 10.1514C31.3745 10.3995 30.988 10.5201 30.5988 10.4878C30.2096 10.4554 29.8484 10.2725 29.592 9.97801C28.4474 8.58379 27.0607 7.40746 25.4985 6.50551C25.328 6.40682 25.1786 6.27552 25.0589 6.1191C24.9391 5.96268 24.8514 5.78421 24.8006 5.59387C24.7498 5.40354 24.737 5.20506 24.763 5.00978C24.7889 4.81451 24.853 4.62625 24.9517 4.45576C25.0504 4.28527 25.1817 4.13589 25.3381 4.01615C25.4946 3.8964 25.673 3.80864 25.8634 3.75787C26.0537 3.7071 26.2522 3.69432 26.4475 3.72025C26.6427 3.74618 26.8295 3.81032 27 3.90901ZM11.049 4.45651C11.2479 4.80103 11.3018 5.21045 11.1988 5.59471C11.0959 5.97897 10.8445 6.30659 10.5 6.50551C8.93766 7.4079 7.55095 8.58475 6.40648 9.97951C6.2835 10.1379 6.13 10.27 5.95507 10.3681C5.78014 10.4661 5.58733 10.5281 5.38803 10.5503C5.18873 10.5726 4.987 10.5546 4.79476 10.4976C4.60252 10.4405 4.42368 10.3454 4.2688 10.2181C4.11393 10.0907 3.98617 9.93351 3.89308 9.75589C3.8 9.57827 3.74347 9.38379 3.72684 9.18395C3.71022 8.98411 3.73383 8.78296 3.79629 8.5924C3.85875 8.40184 3.95878 8.22574 4.09048 8.07451C5.46244 6.40251 7.1245 4.99146 8.99698 3.90901C9.16754 3.81023 9.3559 3.74603 9.55129 3.72008C9.74668 3.69414 9.94526 3.70696 10.1357 3.7578C10.3261 3.80865 10.5047 3.89653 10.6611 4.01642C10.8176 4.13631 10.9489 4.28585 11.0475 4.45651H11.049Z" fill="#FF8C00"/>
</svg>
