<svg width="110" height="87" viewBox="0 0 110 87" fill="none" xmlns="http://www.w3.org/2000/svg">
<path d="M81.4011 46.2872C80.6461 47.0808 77.9411 48.2546 77.0869 48.1208C76.2327 47.9957 74.8049 48.043 74.628 47.9827C74.4251 47.9827 65.6159 53.3495 59.8563 55.1311C58.0876 55.6792 56.595 55.8862 55.7408 55.4934C49.7269 52.7237 43.1955 39.6563 41.7673 36.1833C39.2092 29.9711 39.9426 24.7897 40.7232 24.5437C43.467 23.6983 48.1088 29.2892 50.7748 32.9647C52.5435 35.4065 60.0199 44.8197 60.227 44.9578C60.3173 45.0226 60.6884 45.0138 61.2494 44.962C64.4333 44.6512 73.8553 42.749 74.8041 42.6193C76.3314 42.4035 78.3243 42.8092 79.8906 42.9427C81.4526 43.082 81.7977 45.8731 81.4011 46.2872Z" fill="#EBADA0"/>
<path d="M59.8563 55.1311C58.0876 55.6792 56.595 55.8862 55.7408 55.4934C49.7269 52.7237 43.1955 39.6563 41.7673 36.1833C39.2092 29.9711 39.9426 24.7897 40.7232 24.5437C43.467 23.6983 48.1088 29.2892 50.7748 32.9647C52.5435 35.4065 60.0199 44.8197 60.227 44.9578C60.3173 45.0226 60.6884 45.0138 61.2494 44.962C60.1111 48.194 59.7915 51.7059 59.8563 55.1311Z" fill="#C47C8A"/>
<path d="M60.2282 44.4624C60.2195 44.6093 60.0601 44.8896 59.784 45.3167C59.689 45.4635 59.5857 45.6275 59.4606 45.8086C59.4564 45.8174 59.4476 45.83 59.4393 45.8434C59.2924 46.0676 59.1243 46.3177 58.9431 46.5984C58.857 46.7365 58.762 46.8787 58.667 47.0256C58.6411 47.0645 58.6193 47.1034 58.5938 47.1423C58.3608 47.5091 58.1107 47.9145 57.8434 48.3588C57.8044 48.4236 57.7655 48.488 57.7271 48.5571C57.6882 48.6219 57.6492 48.6867 57.6103 48.7512C57.5932 48.7813 57.5714 48.816 57.5543 48.8503C57.3342 49.2302 57.1058 49.6355 56.8682 50.0668C56.8465 50.1057 56.8293 50.1446 56.808 50.1831C56.6741 50.4333 56.5361 50.6922 56.398 50.9595C56.3248 51.1018 56.247 51.2486 56.1738 51.3996C56.0918 51.5594 56.0098 51.723 55.9278 51.8916C55.919 51.9087 55.9107 51.9305 55.9019 51.9476C55.7207 52.3187 55.5396 52.7069 55.3539 53.1081C55.3367 53.147 55.3191 53.1859 55.302 53.2244C55.125 53.6168 54.9439 54.0225 54.7711 54.4409C54.741 54.5057 54.7109 54.5747 54.685 54.6438C54.6461 54.7345 54.6071 54.8291 54.5687 54.924C54.5687 54.924 54.5645 54.9282 54.5645 54.9328C54.4607 55.183 54.3616 55.4378 54.2583 55.6963C54.2281 55.7695 53.8742 55.6231 53.3568 55.2993C53.2016 55.2043 53.0376 55.0922 52.8606 54.9671C52.8435 54.9542 52.8305 54.9454 52.8134 54.9324C52.6105 54.7856 52.3904 54.6216 52.1704 54.4404C51.9976 54.2982 51.8211 54.1426 51.6441 53.979C51.6052 53.9489 51.5663 53.91 51.5274 53.8757C51.3115 53.6728 51.0961 53.4528 50.8844 53.2244C50.8501 53.1855 50.8154 53.1466 50.7807 53.1081C50.6213 52.9311 50.4615 52.7412 50.3147 52.5471C50.1896 52.3831 50.0687 52.2149 49.9524 52.0422C49.9181 51.9903 49.8876 51.943 49.8532 51.8911C49.8403 51.874 49.8315 51.8568 49.8185 51.8393C49.7236 51.697 49.6286 51.5502 49.5295 51.3992C49.2793 51.0152 49.0204 50.6098 48.753 50.1827C48.7271 50.1438 48.7058 50.1049 48.6798 50.0664C48.6539 50.0233 48.628 49.9844 48.602 49.9413C48.5631 49.8811 48.5242 49.8204 48.4857 49.756C48.3046 49.4627 48.1189 49.1607 47.9293 48.8499C47.8302 48.6859 47.7311 48.5219 47.6315 48.3579C47.5152 48.1596 47.3943 47.9609 47.2734 47.758C47.1525 47.5552 47.032 47.3481 46.9111 47.141C46.8894 47.1021 46.8639 47.0632 46.8421 47.0243C46.8204 46.9854 46.799 46.9511 46.7773 46.9122C46.566 46.5499 46.3543 46.183 46.1431 45.8078C46.0481 45.6438 45.9578 45.4798 45.8628 45.3158C45.7637 45.1347 45.6645 44.9536 45.5608 44.7724C45.5219 44.7034 45.483 44.6302 45.444 44.5612C45.3621 44.4102 45.2759 44.255 45.1939 44.0998C45.1721 44.0609 45.1508 44.0219 45.129 43.983C44.909 43.5819 44.689 43.1765 44.4819 42.7665C44.3957 42.6113 44.3137 42.4515 44.2317 42.2963C44.2275 42.2875 44.2229 42.2834 44.2188 42.275C44.0548 41.96 43.8954 41.645 43.7356 41.3304C43.6883 41.2401 43.6448 41.1493 43.6017 41.0585C43.5804 41.0196 43.5628 40.9807 43.5415 40.9422C43.3386 40.5368 43.1403 40.1269 42.9462 39.7257C42.8684 39.5617 42.791 39.3977 42.7174 39.2337C42.6484 39.0915 42.5835 38.9535 42.5191 38.8108C42.4802 38.7246 42.4413 38.638 42.4028 38.5565C42.3208 38.3753 42.2388 38.1942 42.161 38.0172C42.1438 37.9783 42.1267 37.9394 42.1137 37.9009C41.9326 37.491 41.7598 37.081 41.5958 36.6844C41.5268 36.5205 41.462 36.3565 41.4017 36.1925C41.3239 36.0072 41.2549 35.8214 41.1859 35.6403C41.1039 35.4161 41.0219 35.1918 40.9445 34.976C40.9315 34.9371 40.9186 34.8982 40.9056 34.8597C40.8278 34.6438 40.7588 34.4326 40.6943 34.2255C40.6684 34.1565 40.6512 34.0916 40.6295 34.0268C40.5906 33.9059 40.5517 33.7766 40.5174 33.6428C40.4701 33.4876 40.4266 33.3236 40.3835 33.1508C40.2886 32.771 40.1936 32.3614 40.1116 31.9343C40.1028 31.8954 40.0944 31.8565 40.0898 31.818C40.012 31.4252 39.9476 31.0157 39.8916 30.6015C39.8656 30.4375 39.8443 30.2693 39.8267 30.1054C39.7748 29.7 39.7359 29.2942 39.7146 28.893C39.7104 28.8541 39.7058 28.8152 39.7058 28.7768C39.6799 28.3584 39.6715 27.9526 39.6799 27.5602C39.6799 27.3921 39.6887 27.2239 39.697 27.0641C39.7184 26.6328 39.7661 26.2228 39.8439 25.8518C39.8481 25.8129 39.8568 25.774 39.8698 25.7355C39.9731 25.2523 40.1241 24.8382 40.3358 24.519C40.4178 24.3939 40.504 24.286 40.6036 24.191C40.6337 24.1651 40.6596 24.1391 40.6939 24.122C40.75 24.0789 40.819 24.0442 40.888 24.0229C40.9788 23.9927 41.0779 23.9752 41.1859 23.9752C41.311 23.9752 41.4448 23.9923 41.587 24.0229C41.833 24.0789 42.1091 24.1827 42.4024 24.3249C42.4413 24.3462 42.4802 24.3638 42.5187 24.3851C42.5965 24.424 42.6827 24.4713 42.7646 24.519C43.0709 24.6913 43.3988 24.8988 43.7352 25.136C43.8992 25.2527 44.0631 25.3732 44.2313 25.5029C44.3305 25.5761 44.4296 25.6539 44.5333 25.7359C44.5806 25.7748 44.6283 25.8137 44.6802 25.8522C44.9345 26.0551 45.1893 26.2664 45.4436 26.4906C45.4825 26.5249 45.5214 26.5554 45.5603 26.5897C45.7373 26.7449 45.9143 26.9047 46.0908 27.0641C46.2719 27.2281 46.4489 27.3921 46.6258 27.5602C46.6777 27.6075 46.725 27.6552 46.7768 27.7025C46.945 27.8665 47.109 28.0258 47.273 28.1898C47.4713 28.3839 47.6654 28.5822 47.8553 28.7768C47.8942 28.8157 47.9331 28.8546 47.9674 28.893C48.1444 29.0784 48.3167 29.2641 48.4853 29.4411C48.5242 29.4841 48.5631 29.5272 48.6016 29.5661C48.7698 29.7515 48.9296 29.933 49.0848 30.1054C49.1408 30.1702 49.1969 30.2346 49.2529 30.2995C49.3349 30.3944 49.4211 30.4936 49.5161 30.6015C49.611 30.7136 49.7102 30.8345 49.8181 30.9638C49.9733 31.1449 50.1373 31.339 50.3142 31.5461C50.3875 31.6369 50.4611 31.723 50.5385 31.818C50.5686 31.8569 50.6033 31.8958 50.6376 31.9343C50.9137 32.2665 51.2116 32.6287 51.5261 33.0086C51.5651 33.0558 51.604 33.1035 51.6429 33.1508C51.7767 33.3106 51.9102 33.4742 52.0482 33.6428C52.3114 33.962 52.5833 34.2941 52.8594 34.635C52.9196 34.7082 52.9803 34.7861 53.0405 34.8593C53.0752 34.8982 53.1053 34.9371 53.1355 34.9756C53.2087 35.0663 53.2823 35.1567 53.3555 35.2429C53.6057 35.5579 53.8646 35.8729 54.119 36.1921C54.2528 36.3561 54.3821 36.52 54.516 36.684C54.5331 36.7058 54.5507 36.7271 54.5678 36.7489C54.6067 36.7965 54.6456 36.848 54.6841 36.8957C54.9514 37.232 55.2192 37.5642 55.4823 37.9009C55.5166 37.9398 55.5471 37.9788 55.5773 38.0172C55.6852 38.1511 55.7931 38.2892 55.901 38.4226C56.065 38.6339 56.2332 38.8455 56.3972 39.0526C56.4445 39.1128 56.4921 39.1735 56.5394 39.2337C56.6645 39.4019 56.7938 39.5659 56.9188 39.7257C57.156 40.0319 57.389 40.3298 57.6091 40.6188C57.648 40.6707 57.6869 40.7222 57.7258 40.774C57.7689 40.8301 57.812 40.8861 57.8551 40.9422C57.8852 40.9811 57.9153 41.02 57.9458 41.0585C58.2738 41.4944 58.58 41.9039 58.8519 42.275C58.8821 42.3181 58.9122 42.3612 58.9423 42.4001C59.0373 42.5293 59.1234 42.6502 59.2054 42.7665C59.2874 42.8833 59.3652 42.9908 59.4384 43.0987C59.6844 43.4526 59.8827 43.7546 60.0208 43.983C60.0425 44.0261 60.0638 44.065 60.0856 44.0998C60.181 44.2771 60.2328 44.3976 60.2282 44.4624Z" fill="#588F83"/>
<g opacity="0.5">
<path d="M41.1859 23.9748V35.6399C41.1039 35.4157 41.0219 35.1915 40.9445 34.9756C40.9315 34.9367 40.9186 34.8978 40.9056 34.8593C40.8278 34.6435 40.7588 34.4322 40.6943 34.2251V24.1216C40.7504 24.0785 40.8194 24.0438 40.8884 24.0225C40.9788 23.9919 41.0779 23.9748 41.1859 23.9748Z" fill="#3A6B5F"/>
<path d="M42.5191 24.3848V38.8114C42.4802 38.7252 42.4413 38.6386 42.4028 38.557V24.325C42.4413 24.3459 42.4802 24.3631 42.5191 24.3848Z" fill="#3A6B5F"/>
<path d="M43.7356 25.1353C43.8996 25.252 44.0636 25.3725 44.2317 25.5022V42.2969C44.2276 42.2881 44.2229 42.2839 44.2188 42.2755C44.0548 41.9605 43.8954 41.6455 43.7356 41.331V25.1353Z" fill="#3A6B5F"/>
<path d="M45.4441 26.4898C45.483 26.5241 45.5219 26.5546 45.5608 26.589V44.7729C45.5219 44.7039 45.483 44.6307 45.4441 44.5617V26.4898Z" fill="#3A6B5F"/>
<path d="M47.273 28.1896V47.7582C47.1521 47.5553 47.0316 47.3482 46.9107 47.1412C46.889 47.1022 46.8635 47.0633 46.8417 47.0244C46.8199 46.9855 46.7986 46.9512 46.7769 46.9123V27.7018C46.9454 27.8662 47.109 28.026 47.273 28.1896Z" fill="#3A6B5F"/>
<path d="M48.6021 29.5658V49.9414C48.5632 49.8812 48.5243 49.8205 48.4858 49.7561V29.4412C48.5243 29.4838 48.5632 29.5269 48.6021 29.5658Z" fill="#3A6B5F"/>
<path d="M50.3147 31.5462V52.5472C50.1897 52.3832 50.0688 52.215 49.9525 52.0423C49.9182 51.9904 49.8876 51.9431 49.8533 51.8912H49.8186V30.9639C49.9738 31.145 50.1378 31.3391 50.3147 31.5462Z" fill="#3A6B5F"/>
<path d="M51.6433 33.151V53.9796C51.6044 53.9495 51.5655 53.9106 51.5266 53.8763V33.0092C51.5655 33.056 51.6044 33.1037 51.6433 33.151Z" fill="#3A6B5F"/>
<path d="M53.356 35.2434V55.2998C53.2008 55.2048 53.0368 55.0927 52.8599 54.9676V34.6351C52.9201 34.7083 52.9808 34.7861 53.041 34.8594C53.0757 34.8983 53.1058 34.9372 53.136 34.9757C53.2096 35.0664 53.2828 35.1568 53.356 35.2434Z" fill="#3A6B5F"/>
<path d="M54.6849 36.8958V54.6439C54.646 54.7346 54.6071 54.8292 54.5686 54.9241V36.749C54.6071 36.7962 54.646 36.8481 54.6849 36.8958Z" fill="#3A6B5F"/>
<path d="M56.3975 39.0527V50.9597C56.3243 51.1019 56.2465 51.2487 56.1733 51.3997C56.0913 51.5595 56.0093 51.7231 55.9273 51.8917C55.9185 51.9089 55.9102 51.9306 55.9014 51.9478V38.4227C56.0654 38.634 56.2335 38.8457 56.3975 39.0527Z" fill="#3A6B5F"/>
<path d="M57.7263 40.7742V48.5568C57.6874 48.6216 57.6485 48.6864 57.6096 48.7509V40.619C57.6485 40.6704 57.6874 40.7223 57.7263 40.7742Z" fill="#3A6B5F"/>
<path d="M59.4388 43.0992V45.8431C59.2919 46.0673 59.1238 46.3175 58.9426 46.5982V42.4006C59.0376 42.5299 59.1238 42.6508 59.2058 42.7671C59.2877 42.8834 59.3656 42.9913 59.4388 43.0992Z" fill="#3A6B5F"/>
</g>
<g opacity="0.5">
<path d="M42.765 24.5182H40.3362C40.4182 24.3932 40.5044 24.2852 40.6039 24.1903C40.634 24.1643 40.66 24.1384 40.6943 24.1212C40.7503 24.0782 40.8194 24.0434 40.8884 24.0221H41.5874C41.8334 24.0782 42.1095 24.1819 42.4027 24.3241C42.4416 24.3455 42.4805 24.363 42.519 24.3844C42.5964 24.4233 42.683 24.471 42.765 24.5182Z" fill="#3A6B5F"/>
<path d="M44.6801 25.8514H39.8438C39.8479 25.8125 39.8567 25.7736 39.8697 25.7351H44.5332C44.5809 25.7736 44.6286 25.8125 44.6801 25.8514Z" fill="#3A6B5F"/>
<path d="M46.0911 27.0637C46.2723 27.2277 46.4492 27.3917 46.6262 27.5599H39.6807C39.6807 27.3917 39.6894 27.2235 39.6978 27.0637H46.0911Z" fill="#3A6B5F"/>
<path d="M47.9676 28.8927H39.7148C39.7107 28.8538 39.7061 28.8149 39.7061 28.7764H47.8555C47.894 28.8153 47.9329 28.8542 47.9676 28.8927Z" fill="#3A6B5F"/>
<path d="M49.5164 30.6012H39.8915C39.8656 30.4372 39.8442 30.269 39.8267 30.105H49.0847C49.1408 30.1699 49.1968 30.2343 49.2529 30.2991C49.3353 30.3941 49.4215 30.4937 49.5164 30.6012Z" fill="#3A6B5F"/>
<path d="M50.638 31.9343H40.1116C40.1028 31.8954 40.0944 31.8565 40.0898 31.8181H50.5385C50.569 31.8565 50.6037 31.8954 50.638 31.9343Z" fill="#3A6B5F"/>
<path d="M52.0486 33.6428H40.5169C40.4697 33.4876 40.4261 33.3236 40.3831 33.1509H51.6428C51.7771 33.3107 51.9106 33.4747 52.0486 33.6428Z" fill="#3A6B5F"/>
<path d="M53.1357 34.9756H40.9439C40.931 34.9367 40.918 34.8978 40.905 34.8593H53.0408C53.0755 34.8982 53.1056 34.9367 53.1357 34.9756Z" fill="#3A6B5F"/>
<path d="M54.5163 36.6841H41.5957C41.5267 36.5201 41.4619 36.3561 41.4016 36.1921H54.1197C54.2531 36.3561 54.3828 36.5201 54.5163 36.6841Z" fill="#3A6B5F"/>
<path d="M55.5775 38.0173H42.1608C42.1436 37.9784 42.1265 37.9395 42.1135 37.901H55.4829C55.5172 37.9395 55.5474 37.9784 55.5775 38.0173Z" fill="#3A6B5F"/>
<path d="M56.9191 39.7258H42.9456C42.8678 39.5618 42.7904 39.3978 42.7168 39.2338H56.5393C56.6648 39.402 56.794 39.566 56.9191 39.7258Z" fill="#3A6B5F"/>
<path d="M57.9463 41.0586H43.6017C43.5804 41.0197 43.5628 40.9807 43.5415 40.9423H57.8555C57.8856 40.9812 57.9162 41.0197 57.9463 41.0586Z" fill="#3A6B5F"/>
<path d="M59.2058 42.767H44.4819C44.3957 42.6118 44.3137 42.452 44.2317 42.2968C44.2275 42.2881 44.2229 42.2839 44.2188 42.2755H58.8523C58.8825 42.3186 58.9126 42.3617 58.9427 42.4006C59.0377 42.5299 59.1238 42.6507 59.2058 42.767Z" fill="#3A6B5F"/>
<path d="M60.0859 44.1002H45.1937C45.172 44.0613 45.1507 44.0224 45.1289 43.9835H60.021C60.0428 44.0266 60.0641 44.0655 60.0859 44.1002Z" fill="#3A6B5F"/>
<path d="M59.784 45.3168C59.689 45.4636 59.5857 45.6276 59.4606 45.8087H46.1431C46.0481 45.6447 45.9578 45.4808 45.8628 45.3168H59.784Z" fill="#3A6B5F"/>
<path d="M58.6665 47.0252C58.6405 47.0641 58.6188 47.103 58.5933 47.1419H46.9106C46.8888 47.103 46.8633 47.0641 46.8416 47.0252H58.6665Z" fill="#3A6B5F"/>
<path d="M57.8425 48.358C57.8036 48.4228 57.7647 48.4872 57.7262 48.5563C57.6873 48.6211 57.6484 48.6859 57.6095 48.7504C57.5924 48.7805 57.5706 48.8152 57.5535 48.8495H47.929C47.8298 48.6855 47.7307 48.5215 47.6311 48.3575H57.8425V48.358Z" fill="#3A6B5F"/>
<path d="M56.8677 50.0665C56.8459 50.1054 56.8288 50.1443 56.8074 50.1828H48.7529C48.727 50.1439 48.7056 50.105 48.6797 50.0665H56.8677Z" fill="#3A6B5F"/>
<path d="M56.1728 51.3997C56.0908 51.5595 56.0088 51.723 55.9268 51.8916H49.8184V51.8397C49.7234 51.6975 49.6284 51.5507 49.5293 51.3997H56.1728Z" fill="#3A6B5F"/>
<path d="M55.3535 53.1082C55.3363 53.1471 55.3187 53.186 55.3016 53.2244H50.884C50.8497 53.1855 50.815 53.1466 50.7803 53.1082H55.3535Z" fill="#3A6B5F"/>
<path d="M54.7711 54.4409C54.741 54.5058 54.7109 54.5748 54.6849 54.6438C54.646 54.7346 54.6071 54.8291 54.5686 54.9241V54.9329H52.8129C52.61 54.786 52.39 54.6221 52.1699 54.4409H54.7711Z" fill="#3A6B5F"/>
</g>
<path d="M59.2916 42.262C58.8808 42.3854 54.7619 46.8996 54.1148 48.014C53.4676 49.1284 51.0886 53.7899 51.3107 54.3772C51.6161 55.1863 53.2426 55.5644 53.8542 55.8514C54.9318 56.3568 56.1571 57.0441 57.0268 56.4266C57.3054 56.2288 57.1975 53.3707 57.9613 50.3868C58.2621 49.2121 60.8374 44.923 60.9453 44.5092C61.0532 44.0955 60.0107 42.0465 59.2916 42.262Z" fill="#3A6B5F"/>
<path d="M105.68 39.5755C103.061 40.8577 99.8982 41.2626 97.059 41.8207C95.5024 42.1223 93.9412 42.4009 92.3754 42.6486C91.6647 42.7657 90.9493 42.869 90.234 42.9724C89.7977 43.0355 89.1091 43.256 88.6682 43.0937C88.569 43.0577 88.4883 42.9724 88.4883 42.8598C88.4883 42.8285 88.4883 42.8013 88.4929 42.7699C88.4975 42.5089 95.9705 40.9681 98.2918 38.464C99.4715 37.1919 100.591 35.0312 99.6958 33.3081C99.1603 32.2824 97.9283 32.0272 96.875 32.233C95.7739 32.448 94.5365 33.5867 95.5116 34.1678C95.6242 33.9967 95.9479 34.1004 95.8626 34.3163C95.612 34.8312 94.3913 35.3106 93.8471 34.5593C92.974 33.3625 93.981 31.4921 94.9301 30.8174C97.4318 29.0403 102.287 28.7646 103.772 32.1389C104.852 31.4595 106.174 31.8958 106.575 33.1061C107.605 32.3054 108.919 33.4211 109.058 34.6627C109.301 36.858 107.502 38.6891 105.68 39.5755Z" fill="#F0E4D6"/>
<path d="M83.5226 44.9243L64.8149 49.4272L64.2844 46.7533L83.1432 43.0117L83.5226 44.9243Z" fill="#CA906A"/>
<path d="M108.024 38.0754C108.024 38.0754 108.114 43.6157 106.155 44.0048C104.195 44.3938 95.6846 46.0818 95.6846 46.0818C95.6846 46.0818 87.1746 47.7702 85.2147 48.1592C83.2548 48.5478 81.2234 43.3924 81.2234 43.3924L108.024 38.0754Z" fill="#ACB9A2"/>
<path d="M72.7822 43.3287C73.2495 43.1489 75.1161 43.0798 75.6674 43.3944C76.9885 44.1495 79.6311 44.1763 80.0896 44.5268C80.5481 44.8774 77.6089 45.9291 76.3958 45.74C75.1826 45.5513 72.4187 46.2939 70.5379 45.3564C68.6567 44.4193 72.7822 43.3287 72.7822 43.3287Z" fill="#EBADA0"/>
<path d="M77.5011 48.2789C76.6875 48.2161 74.3235 48.0065 73.9737 47.8166C73.624 47.6271 73.9984 47.2502 74.3653 47.1155C74.7326 46.9808 77.1313 46.9536 77.5961 47.1155C78.0608 47.2774 78.242 48.3362 77.5011 48.2789Z" fill="#EBADA0"/>
<path d="M78.9184 47.7208C77.9571 47.5275 75.1676 46.9372 74.7773 46.6779C74.387 46.4185 74.8857 46.0688 75.3421 45.9793C75.7985 45.8897 78.6624 46.2294 79.1941 46.4762C79.7262 46.7226 79.7939 47.8965 78.9184 47.7208Z" fill="#EBADA0"/>
<path d="M53.4943 57.9782C53.4943 58.3836 53.4943 58.7894 53.4855 59.1906C53.4897 59.2295 53.4897 59.2684 53.4855 59.3073C53.4813 59.7172 53.4767 60.1226 53.4637 60.5238C53.4595 60.6919 53.4549 60.8559 53.4507 61.0199C53.4336 61.4299 53.4206 61.8352 53.3989 62.2322C53.3989 62.2711 53.3947 62.31 53.3947 62.3489C53.3817 62.5949 53.3687 62.8409 53.3558 63.0781C53.3428 63.2421 53.334 63.4061 53.3257 63.5654C53.3127 63.7294 53.2997 63.8976 53.2909 64.0616C53.2566 64.4799 53.2261 64.8857 53.1876 65.2739C53.1834 65.3128 53.1788 65.3517 53.1788 65.3906C53.1357 65.8177 53.0927 66.2231 53.045 66.6071C53.0232 66.7799 53.0019 66.9435 52.9801 67.1033C52.9412 67.3794 52.9023 67.6383 52.8592 67.8843C52.8379 68.0353 52.812 68.1775 52.786 68.3156C52.7772 68.3545 52.773 68.3934 52.7647 68.4319C52.6697 68.9238 52.5664 69.3334 52.4585 69.6484C52.3853 69.8596 52.3116 70.0236 52.2384 70.1445C52.1912 70.2135 52.1435 70.2696 52.0962 70.3043H19.3828C19.3527 70.2742 19.3309 70.2223 19.3226 70.1445C19.3096 70.0324 19.3138 69.8642 19.3397 69.6484C19.3527 69.5275 19.3744 69.3894 19.3999 69.2384C19.4388 69.0054 19.4949 68.7335 19.5639 68.4319C19.5727 68.393 19.5811 68.3541 19.5899 68.3156C19.6719 67.9533 19.771 67.5433 19.8877 67.1033C19.8877 67.0945 19.8919 67.0815 19.8965 67.0731C19.9312 66.9221 19.9743 66.7669 20.0174 66.6071C20.1165 66.2231 20.2287 65.8177 20.3454 65.3906C20.3542 65.3517 20.3671 65.3128 20.3801 65.2739C20.4838 64.8857 20.5959 64.4803 20.7164 64.0616C20.7595 63.8976 20.8072 63.7336 20.8545 63.5654C20.9407 63.2722 21.0226 62.9702 21.1134 62.6681C21.1435 62.5602 21.1737 62.4569 21.2042 62.3489C21.213 62.3188 21.2214 62.2887 21.2301 62.254C21.2301 62.2498 21.2343 62.241 21.2389 62.2322C21.351 61.8352 21.4631 61.4341 21.584 61.0199C21.6313 60.8559 21.679 60.6878 21.7221 60.5238C21.8384 60.1226 21.9551 59.7172 22.0672 59.3073C22.0802 59.2684 22.0932 59.2295 22.1015 59.1906C22.2178 58.7894 22.3303 58.384 22.4466 57.9782V57.9694C22.4939 57.8055 22.5374 57.6461 22.5847 57.4821C22.6968 57.0767 22.8089 56.6709 22.921 56.2656C22.9252 56.2438 22.9298 56.2225 22.9382 56.2007C22.9424 56.1836 22.947 56.166 22.9511 56.1489C23.0633 55.7435 23.1712 55.3335 23.2791 54.9324C23.3222 54.7684 23.3653 54.6044 23.4084 54.4404C23.5163 54.0304 23.6242 53.6251 23.7234 53.2239C23.7364 53.185 23.7451 53.1461 23.7535 53.1076C23.8572 52.6935 23.9564 52.2923 24.0514 51.8911C24.0903 51.7489 24.1204 51.6108 24.1547 51.4682C24.1589 51.4464 24.1677 51.4209 24.1718 51.3992C24.2066 51.2569 24.2367 51.1101 24.271 50.972C24.3312 50.7047 24.3919 50.4412 24.4479 50.1827C24.4567 50.1437 24.4651 50.1048 24.4739 50.0664C24.5646 49.648 24.6466 49.2422 24.7198 48.8499C24.7541 48.6859 24.7847 48.5219 24.8102 48.3579C24.888 47.9308 24.9524 47.5254 25.0043 47.1414C25.0131 47.1025 25.0173 47.0636 25.0215 47.0247C25.0516 46.7963 25.0775 46.5716 25.0993 46.3604C25.1164 46.1792 25.1336 45.9935 25.1553 45.8082C25.1725 45.6484 25.1896 45.4848 25.2072 45.3162C25.2545 44.9192 25.3022 44.5139 25.3582 44.0997C25.3624 44.0608 25.367 44.0219 25.3754 43.983C25.4101 43.7069 25.4486 43.4266 25.4875 43.1417C25.5046 43.0167 25.5222 42.8916 25.5435 42.7665C25.5649 42.6067 25.5908 42.4385 25.6167 42.2745C25.677 41.8734 25.7418 41.468 25.8108 41.058C25.8196 41.0191 25.8238 40.9802 25.8326 40.9417C25.8803 40.6656 25.9276 40.3895 25.9794 40.1093C26.0008 39.9842 26.0225 39.8545 26.0485 39.7252C26.0786 39.5613 26.1087 39.3973 26.1434 39.2333C26.2166 38.8279 26.2986 38.4221 26.3852 38.0168C26.3894 37.9779 26.3982 37.939 26.4065 37.9005C26.4927 37.4951 26.5789 37.0893 26.6697 36.684C26.7086 36.52 26.7429 36.356 26.7818 36.192C26.8768 35.7821 26.9759 35.3767 27.0796 34.9755C27.0884 34.9366 27.0968 34.8977 27.1098 34.8592C27.1357 34.7471 27.1658 34.6304 27.1959 34.5183C27.2348 34.3715 27.2737 34.2204 27.3127 34.074C27.3516 33.9318 27.3905 33.785 27.4289 33.6427C27.4762 33.4787 27.5239 33.3148 27.5712 33.1508C27.6879 32.7366 27.8084 32.3313 27.9381 31.9343C27.9468 31.8954 27.9598 31.8565 27.9724 31.818C28.1062 31.3996 28.2443 30.9939 28.3865 30.6015L28.5287 30.2133C28.5417 30.1785 28.5547 30.1442 28.5676 30.1053C28.7145 29.7171 28.8655 29.3461 29.0207 28.9922C29.0337 28.9574 29.0466 28.9231 29.0638 28.893C29.0809 28.8541 29.0985 28.8152 29.1157 28.7767C29.3098 28.3408 29.508 27.9313 29.7109 27.5602C29.8059 27.3874 29.905 27.2239 30 27.0641C30.0778 26.9348 30.1552 26.8139 30.2372 26.6972C30.2761 26.637 30.315 26.5763 30.3535 26.5202C30.5346 26.2701 30.7158 26.0459 30.9015 25.8513C30.9404 25.8082 30.9747 25.7693 31.0136 25.735L31.0525 25.6961C31.1818 25.5711 31.3587 25.4418 31.57 25.3167C31.7168 25.2217 31.885 25.131 32.062 25.0406C32.4113 24.8637 32.8083 24.6867 33.2312 24.5185C33.2483 24.5097 33.2613 24.5056 33.2785 24.4972C33.3174 24.4842 33.3563 24.4671 33.3952 24.4495C33.7876 24.2985 34.1933 24.1563 34.5987 24.0224C34.6029 24.0224 34.6075 24.0182 34.6117 24.0182C34.7757 23.9622 34.9396 23.9103 35.1036 23.8584C35.5307 23.7245 35.9449 23.6082 36.3201 23.5091C36.359 23.5003 36.3979 23.492 36.4368 23.479C36.9414 23.3539 37.3731 23.2677 37.6533 23.2418C37.7182 23.233 37.7784 23.2288 37.8257 23.2288C37.9294 23.2288 38.037 23.233 38.1449 23.2418C38.5247 23.2631 38.9343 23.3409 39.3614 23.4618C39.4003 23.4706 39.4392 23.4836 39.4777 23.4961C39.8701 23.6124 40.28 23.7634 40.6942 23.9404C40.7544 23.9705 40.8151 23.9965 40.8753 24.0224C40.9791 24.0697 41.0824 24.1174 41.1861 24.1692C41.415 24.2813 41.6434 24.3981 41.868 24.5185C42.0492 24.6177 42.2261 24.7214 42.4031 24.8248C42.442 24.8465 42.4809 24.8724 42.5194 24.8938C42.9377 25.1481 43.3435 25.4158 43.7359 25.7003C43.753 25.7091 43.766 25.7221 43.7831 25.735C43.835 25.7693 43.8911 25.8128 43.9429 25.8513C44.0421 25.9204 44.137 25.9936 44.232 26.0672C44.6549 26.3952 45.0473 26.7315 45.3966 27.0637C45.4138 27.0766 45.4309 27.0938 45.4439 27.1067C45.4828 27.1456 45.5217 27.1845 45.5606 27.2189C45.6769 27.3351 45.7894 27.4477 45.8928 27.5598C45.9359 27.6071 45.979 27.6548 46.0225 27.702C46.2295 27.9308 46.4496 28.2973 46.6868 28.7763C46.7039 28.8152 46.7257 28.8541 46.7428 28.8926C46.7558 28.9185 46.7688 28.9486 46.7771 28.9746C46.9369 29.3067 47.0963 29.6866 47.2645 30.1049C47.2645 30.1091 47.2687 30.1179 47.2733 30.1262C47.3335 30.2773 47.3942 30.4371 47.4544 30.6006C47.5966 30.9805 47.7435 31.39 47.8903 31.8171C47.9033 31.856 47.9162 31.8949 47.9292 31.9334C48.0631 32.3216 48.1965 32.7274 48.3304 33.1499C48.3823 33.3097 48.4341 33.4733 48.4856 33.6373V33.6415C48.5245 33.7624 48.5634 33.8787 48.6019 33.9996C48.6881 34.2798 48.7747 34.5689 48.8608 34.858C48.8738 34.8969 48.8868 34.9358 48.8955 34.9743C49.0164 35.3713 49.1369 35.7766 49.2578 36.1908C49.3051 36.3506 49.3528 36.5187 49.4001 36.6827C49.5164 37.0839 49.6289 37.4897 49.7452 37.8992C49.7581 37.9381 49.7669 37.977 49.7799 38.0155C49.7929 38.0628 49.8058 38.1147 49.8188 38.1624C49.9179 38.5205 50.0171 38.8744 50.1167 39.2325C50.1639 39.3964 50.207 39.5604 50.2547 39.7244C50.2719 39.8022 50.2936 39.8754 50.3149 39.9532C50.4057 40.2812 50.4961 40.6134 50.5823 40.9413C50.591 40.9802 50.604 41.0191 50.6124 41.0576C50.7245 41.463 50.8324 41.8729 50.9403 42.2741C50.9834 42.4381 51.0265 42.6021 51.0696 42.7661C51.1775 43.1802 51.2855 43.586 51.393 43.9826C51.4018 44.0215 51.4147 44.0604 51.4231 44.0993C51.4578 44.2332 51.4921 44.3666 51.5264 44.4963C51.5653 44.6431 51.6042 44.7895 51.6431 44.9322C51.6779 45.0615 51.708 45.1911 51.7423 45.3162C51.7854 45.4844 51.8285 45.6484 51.872 45.8082C51.9841 46.2311 52.092 46.6365 52.1953 47.0247C52.2041 47.0636 52.2125 47.1025 52.2255 47.1414C52.3376 47.5727 52.4455 47.9785 52.5488 48.3579C52.566 48.4227 52.5831 48.483 52.6007 48.5432C52.6266 48.6424 52.6526 48.7415 52.6785 48.8494C52.7434 49.1126 52.8036 49.3928 52.8596 49.6865C52.8856 49.8116 52.9069 49.9367 52.9328 50.0664C52.937 50.1053 52.9458 50.1442 52.95 50.1827C53.0148 50.5709 53.0751 50.9766 53.127 51.3992C53.1487 51.559 53.1659 51.7225 53.183 51.8911C53.2303 52.2835 53.2692 52.6893 53.2993 53.1076C53.3035 53.1465 53.3081 53.1854 53.3081 53.2239C53.3252 53.4398 53.3428 53.6552 53.3558 53.8799C53.3687 54.0652 53.3817 54.2509 53.3905 54.4408C53.4035 54.6048 53.4077 54.7688 53.4206 54.9328C53.4378 55.334 53.4507 55.7393 53.4595 56.1493C53.4637 56.1882 53.4637 56.2271 53.4637 56.2656C53.4767 56.6668 53.4855 57.0767 53.4896 57.4821C53.4901 57.6461 53.4943 57.8147 53.4943 57.9782Z" fill="#588F83"/>
<g opacity="0.5">
<path d="M19.896 67.0727V70.3039H19.3999V69.2384C19.4388 69.0054 19.4949 68.7335 19.5639 68.4318C19.5727 68.3929 19.581 68.354 19.5898 68.3155C19.6718 67.9533 19.771 67.5433 19.8877 67.1032C19.8877 67.094 19.8919 67.0811 19.896 67.0727Z" fill="#3A6B5F"/>
<path d="M21.2293 62.2535V70.3035H21.113V62.6673C21.1432 62.5593 21.1733 62.456 21.2038 62.3481C21.2122 62.3184 21.2205 62.2883 21.2293 62.2535Z" fill="#3A6B5F"/>
<path d="M22.9378 56.2011V70.3039H22.4458V57.9698C22.4931 57.8058 22.5366 57.6464 22.5839 57.4825C22.696 57.0771 22.8081 56.6713 22.9202 56.266C22.9248 56.2442 22.929 56.2224 22.9378 56.2011Z" fill="#3A6B5F"/>
<path d="M24.2706 50.9725V70.3039H24.1543V51.3996H24.1714C24.2058 51.2569 24.2363 51.1105 24.2706 50.9725Z" fill="#3A6B5F"/>
<path d="M25.979 40.1097V70.3039H25.4871V42.7669H25.5431C25.5645 42.6071 25.5904 42.4389 25.6163 42.275C25.6766 41.8738 25.7414 41.4684 25.8104 41.0584C25.8192 41.0195 25.8234 40.9806 25.8322 40.9422C25.8799 40.6661 25.9271 40.39 25.979 40.1097Z" fill="#3A6B5F"/>
<path d="M27.3123 34.074V70.3039H27.1956V34.5183C27.2345 34.3715 27.2734 34.2209 27.3123 34.074Z" fill="#3A6B5F"/>
<path d="M29.0203 28.9921V70.3039H28.5283V30.2128C28.5413 30.1781 28.5543 30.1438 28.5672 30.1049C28.7141 29.7167 28.8651 29.3456 29.0203 28.9921Z" fill="#3A6B5F"/>
<path d="M30.3534 26.5203V70.3039H30.2371V26.6968C30.2755 26.6366 30.3145 26.5763 30.3534 26.5203Z" fill="#3A6B5F"/>
<path d="M32.0618 25.0402V70.3039H31.5698V25.3163C31.7167 25.2214 31.8848 25.131 32.0618 25.0402Z" fill="#3A6B5F"/>
<path d="M33.395 24.449V70.3038H33.2783V24.4967C33.3172 24.4838 33.3561 24.4666 33.395 24.449Z" fill="#3A6B5F"/>
<path d="M35.103 23.8584V70.3039H34.6111V24.0178C34.7751 23.9617 34.9391 23.9099 35.103 23.8584Z" fill="#3A6B5F"/>
<path d="M36.4363 23.4786V70.3039H36.3196V23.5087C36.3585 23.5003 36.3974 23.4915 36.4363 23.4786Z" fill="#3A6B5F"/>
<path d="M38.1448 23.2414V70.3039H37.6528V23.2414C37.7177 23.2326 37.7779 23.2284 37.8252 23.2284C37.9289 23.2284 38.0369 23.2326 38.1448 23.2414Z" fill="#3A6B5F"/>
<path d="M39.4776 23.4957V70.3039H39.3613V23.4614C39.4002 23.4702 39.4391 23.4828 39.4776 23.4957Z" fill="#3A6B5F"/>
<path d="M41.186 24.1688V70.3039H40.6941V23.9404C40.7543 23.9705 40.815 23.9964 40.8752 24.0224C40.979 24.0696 41.0827 24.1169 41.186 24.1688Z" fill="#3A6B5F"/>
<path d="M42.5194 24.8938V70.3039H42.4031V24.8248C42.4416 24.8461 42.4805 24.872 42.5194 24.8938Z" fill="#3A6B5F"/>
<path d="M44.232 26.0672V70.3039H43.7358V25.7003C43.753 25.7091 43.766 25.7221 43.7831 25.735C43.835 25.7693 43.891 25.8128 43.9429 25.8513C44.0421 25.9204 44.137 25.9936 44.232 26.0672Z" fill="#3A6B5F"/>
<path d="M45.5606 27.2189V70.3039H45.4438V27.1068C45.4832 27.1457 45.5217 27.1846 45.5606 27.2189Z" fill="#3A6B5F"/>
<path d="M47.2732 30.1049V70.3039H46.7771V28.9745C46.9369 29.3067 47.0963 29.6865 47.2645 30.1049H47.2732Z" fill="#3A6B5F"/>
<path d="M48.6021 34.0008V70.3039H48.4858V33.6427C48.5243 33.7636 48.5632 33.8799 48.6021 34.0008Z" fill="#3A6B5F"/>
<path d="M50.315 39.9541V70.3039H49.8188V38.1636C49.918 38.5217 50.0171 38.8756 50.1167 39.2337C50.164 39.3977 50.2071 39.5617 50.2547 39.7257C50.2719 39.8031 50.2932 39.8763 50.315 39.9541Z" fill="#3A6B5F"/>
<path d="M51.6436 44.9326V70.3039H51.5269V44.4967C51.5658 44.6435 51.6047 44.7904 51.6436 44.9326Z" fill="#3A6B5F"/>
<path d="M53.3562 53.8802V63.0781C53.3432 63.242 53.3344 63.406 53.3261 63.5654C53.3131 63.7294 53.3001 63.8976 53.2913 64.0616C53.257 64.4799 53.2265 64.8857 53.188 65.2739C53.1838 65.3128 53.1792 65.3517 53.1792 65.3906C53.1361 65.8177 53.093 66.2231 53.0454 66.6071C53.0236 66.7799 53.0023 66.9434 52.9805 67.1032C52.9416 67.3793 52.9027 67.6383 52.8596 67.8843V49.6873C52.8856 49.8124 52.9069 49.9375 52.9328 50.0672C52.937 50.1061 52.9458 50.145 52.95 50.1835C53.0148 50.5717 53.0751 50.9775 53.1269 51.4C53.1487 51.5598 53.1658 51.7233 53.183 51.8919C53.2303 52.2843 53.2692 52.6901 53.2993 53.1084C53.3035 53.1473 53.3081 53.1862 53.3081 53.2247C53.3261 53.4402 53.3432 53.6556 53.3562 53.8802Z" fill="#3A6B5F"/>
</g>
<g opacity="0.5">
<path d="M41.1862 24.1688C41.415 24.2809 41.6434 24.3976 41.868 24.5181H33.2312C33.2484 24.5093 33.2613 24.5051 33.2785 24.4968C33.3174 24.4838 33.3563 24.4667 33.3952 24.4491C33.7876 24.2981 34.1934 24.1558 34.5987 24.022H40.8758C40.9791 24.0697 41.0828 24.1169 41.1862 24.1688Z" fill="#3A6B5F"/>
<path d="M43.9428 25.8513H30.9014C30.9403 25.8082 30.9746 25.7693 31.0135 25.735H43.7834C43.8349 25.7693 43.8909 25.8124 43.9428 25.8513Z" fill="#3A6B5F"/>
<path d="M45.5606 27.2188C45.6768 27.3351 45.7894 27.4476 45.8927 27.5597H29.7104C29.8054 27.387 29.9046 27.2234 29.9995 27.0636H45.3966C45.4137 27.0766 45.4309 27.0937 45.4438 27.1067C45.4832 27.1456 45.5216 27.1845 45.5606 27.2188Z" fill="#3A6B5F"/>
<path d="M46.6866 28.7762C46.7038 28.8151 46.7255 28.8541 46.7427 28.8925H29.0632C29.0804 28.8536 29.098 28.8147 29.1151 28.7762H46.6866Z" fill="#3A6B5F"/>
<path d="M47.4543 30.6011H28.386L28.5282 30.2128C28.5412 30.1781 28.5542 30.1438 28.5671 30.1049H47.2732V30.1263C47.3338 30.2777 47.3941 30.4371 47.4543 30.6011Z" fill="#3A6B5F"/>
<path d="M47.9291 31.9342H27.9375C27.9463 31.8953 27.9593 31.8564 27.9718 31.8179H47.8902C47.9031 31.8564 47.9161 31.8953 47.9291 31.9342Z" fill="#3A6B5F"/>
<path d="M48.4855 33.6381V33.6423H27.4285C27.4757 33.4783 27.5234 33.3143 27.5707 33.1503H48.3303C48.3822 33.3105 48.4336 33.4745 48.4855 33.6381Z" fill="#3A6B5F"/>
<path d="M48.8954 34.9755H27.0791C27.0879 34.9366 27.0963 34.8977 27.1092 34.8592H48.8607C48.8737 34.8981 48.8866 34.9366 48.8954 34.9755Z" fill="#3A6B5F"/>
<path d="M49.4 36.684H26.6692C26.7081 36.52 26.7424 36.356 26.7813 36.192H49.2577C49.3054 36.3518 49.3527 36.52 49.4 36.684Z" fill="#3A6B5F"/>
<path d="M49.7798 38.0172H26.3843C26.3885 37.9783 26.3972 37.9394 26.4056 37.9009H49.7451C49.758 37.9394 49.7668 37.9783 49.7798 38.0172Z" fill="#3A6B5F"/>
<path d="M50.2543 39.7257H26.0481C26.0782 39.5617 26.1083 39.3977 26.1431 39.2337H50.1167C50.164 39.3977 50.2071 39.5617 50.2543 39.7257Z" fill="#3A6B5F"/>
<path d="M50.6123 41.0584H25.8108C25.8196 41.0195 25.8238 40.9806 25.8325 40.9421H50.5826C50.591 40.981 50.6039 41.0195 50.6123 41.0584Z" fill="#3A6B5F"/>
<path d="M51.0699 42.7669H25.543C25.5643 42.6071 25.5902 42.4389 25.6162 42.275H50.9398C50.9833 42.4389 51.0264 42.6029 51.0699 42.7669Z" fill="#3A6B5F"/>
<path d="M51.4234 44.1001H25.3577C25.3618 44.0612 25.3665 44.0223 25.3748 43.9834H51.3933C51.4016 44.0223 51.4146 44.0612 51.4234 44.1001Z" fill="#3A6B5F"/>
<path d="M51.8723 45.8086H25.1548C25.1719 45.6488 25.1891 45.4852 25.2067 45.3167H51.7426C51.7857 45.4848 51.8292 45.6488 51.8723 45.8086Z" fill="#3A6B5F"/>
<path d="M52.2259 47.1414H25.0039C25.0127 47.1025 25.0169 47.0636 25.0211 47.0247H52.1958C52.2046 47.0636 52.2129 47.1025 52.2259 47.1414Z" fill="#3A6B5F"/>
<path d="M52.679 48.8498H24.7195C24.7538 48.6858 24.7843 48.5218 24.8098 48.3578H52.5497C52.5669 48.4227 52.584 48.4829 52.6016 48.5432C52.6271 48.6427 52.653 48.7419 52.679 48.8498Z" fill="#3A6B5F"/>
<path d="M52.9508 50.1831H24.4475C24.4563 50.1442 24.4647 50.1053 24.4734 50.0668H52.9337C52.9379 50.1053 52.9462 50.1442 52.9508 50.1831Z" fill="#3A6B5F"/>
<path d="M53.1839 51.8911H24.0505C24.0894 51.7488 24.1196 51.6108 24.1539 51.4681V51.3991H53.1274C53.1491 51.5589 53.1663 51.7229 53.1839 51.8911Z" fill="#3A6B5F"/>
<path d="M53.3088 53.2243H23.7224C23.7354 53.1854 23.7442 53.1465 23.7525 53.108H53.2996C53.3042 53.1465 53.3088 53.1854 53.3088 53.2243Z" fill="#3A6B5F"/>
<path d="M53.4211 54.9327H23.2783C23.3214 54.7688 23.3645 54.6048 23.4076 54.4408H53.3905C53.4039 54.6048 53.4081 54.7688 53.4211 54.9327Z" fill="#3A6B5F"/>
<path d="M53.4641 56.2656H22.9202C22.9243 56.2438 22.929 56.2225 22.9373 56.2007V56.1489H53.4595C53.4641 56.1882 53.4641 56.2271 53.4641 56.2656Z" fill="#3A6B5F"/>
<path d="M53.4942 57.9782H22.4458V57.9694C22.4931 57.8054 22.5366 57.646 22.5839 57.4821H53.4901C53.4901 57.646 53.4942 57.8146 53.4942 57.9782Z" fill="#3A6B5F"/>
<path d="M53.4858 59.1905C53.49 59.2294 53.49 59.2683 53.4858 59.3072H22.0659C22.0789 59.2683 22.0919 59.2294 22.1002 59.1905H53.4858Z" fill="#3A6B5F"/>
<path d="M53.4641 60.5237C53.4599 60.6919 53.4553 60.8559 53.4511 61.0199H21.5828C21.63 60.8559 21.6777 60.6877 21.7208 60.5237H53.4641Z" fill="#3A6B5F"/>
<path d="M53.3993 62.2322C53.3993 62.2711 53.3951 62.31 53.3951 62.3489H21.2034C21.2122 62.3188 21.2205 62.2887 21.2293 62.2539V62.2322H53.3993Z" fill="#3A6B5F"/>
<path d="M53.3261 63.565C53.3132 63.729 53.3002 63.8972 53.2914 64.0611H20.7161C20.7592 63.8972 20.8068 63.7332 20.8541 63.565H53.3261Z" fill="#3A6B5F"/>
<path d="M53.188 65.2734C53.1838 65.3123 53.1792 65.3512 53.1792 65.3901H20.3445C20.3533 65.3512 20.3662 65.3123 20.3792 65.2734H53.188Z" fill="#3A6B5F"/>
<path d="M53.0458 66.6067C53.024 66.7795 53.0027 66.943 52.9809 67.1028H19.8877C19.8877 67.094 19.8919 67.0811 19.8965 67.0727C19.9312 66.9217 19.9743 66.7665 20.0174 66.6067H53.0458Z" fill="#3A6B5F"/>
<path d="M52.7869 68.3151C52.7781 68.354 52.7739 68.3929 52.7656 68.4314H19.564C19.5727 68.3925 19.5811 68.3536 19.5899 68.3151H52.7869Z" fill="#3A6B5F"/>
<path d="M52.4588 69.6479C52.3856 69.8592 52.312 70.0232 52.2388 70.1441H19.3221C19.3091 70.032 19.3133 69.8638 19.3392 69.6479H52.4588Z" fill="#3A6B5F"/>
</g>
<path d="M51.6685 45.1505C51.1992 43.422 50.7218 41.6959 50.2316 39.9737C50.1684 38.8626 49.9985 37.7482 49.8505 36.6538C49.8433 36.6015 49.7605 36.5994 49.7664 36.6538C49.8484 37.4227 49.8931 38.1962 49.9425 38.9693C49.4907 37.4005 49.0289 35.8347 48.5478 34.2748C48.526 34.2041 48.4206 34.2334 48.4373 34.3053C49.2581 37.8419 50.1667 41.3563 51.1021 44.8644C52.0463 48.4059 53.0879 51.9341 53.4678 55.5924C53.4803 55.715 53.6648 55.7209 53.6631 55.592C53.6196 52.0161 52.5981 48.575 51.6685 45.1505Z" fill="#3A6B5F"/>
<path d="M35.8755 22.5231C34.7376 22.8849 32.8882 24.2487 32.7526 24.808C32.6167 25.3673 32.8614 27.9953 33.1601 28.2467C33.4588 28.4981 36.9974 32.1288 40.5365 32.125C40.872 32.1246 41.3439 28.9256 41.4836 28.6792C41.6229 28.4332 43.5548 30.8633 43.7505 30.6675C43.9459 30.4718 44.2785 27.4083 44.1099 26.6474C43.9413 25.8864 41.5066 23.6802 40.4432 22.9824C39.3794 22.2846 36.8983 22.1976 35.8755 22.5231Z" fill="#3A6B5F"/>
<path d="M41.2893 16.9468L42.0393 23.9634L42.0414 23.9747L42.1468 24.9603C42.1468 24.9603 43.1609 27.4828 41.1106 28.1869C37.6172 29.3866 34.3768 26.1471 34.043 25.6618C33.8714 25.4129 33.3669 22.9339 32.9135 20.5754C32.4809 18.3226 32.0952 16.1758 32.0952 16.1758L33.1214 16.2628L41.2893 16.9468Z" fill="#EBADA0"/>
<path d="M41.2893 16.9468L42.0394 23.9634L42.0415 23.9747C39.6779 23.999 37.3148 23.3794 35.2236 22.2152C34.3861 21.7463 33.6155 21.1957 32.914 20.5754C32.4814 18.3226 32.0957 16.1758 32.0957 16.1758L33.1219 16.2628L41.2893 16.9468Z" fill="#C47C8A"/>
<path d="M41.3374 3.43887L44.5774 9.41221C44.5774 9.41221 45.4462 2.12532 41.3374 3.43887Z" fill="#2A443E"/>
<path d="M30.3705 6.89088C29.5012 10.2555 32.03 17.8976 34.8562 20.1657C36.7918 21.719 40.4397 21.696 42.9086 20.1816C44.031 19.4935 44.9095 18.4966 45.273 17.2002C46.436 13.0508 43.2667 4.08765 41.096 2.95565C37.2624 0.956868 31.4334 2.77618 30.3705 6.89088Z" fill="#EBADA0"/>
<path d="M40.5752 16.7669C40.7224 16.8611 40.8789 16.9999 41.0672 16.9769C41.2483 16.9548 41.4395 16.8314 41.5892 16.7343C41.6039 16.7247 41.6239 16.7385 41.6168 16.7561C41.5252 16.9799 41.2717 17.1606 41.0266 17.1685C40.7869 17.1765 40.6308 17.0004 40.5309 16.8004C40.517 16.7724 40.5539 16.7531 40.5752 16.7669Z" fill="#C47C8A"/>
<path d="M40.5082 15.0822C40.8864 15.4659 41.357 15.6206 41.8302 15.6139C42.0414 15.6123 42.2565 15.575 42.4614 15.5123C42.5024 15.5027 42.5426 15.4897 42.5781 15.4738C42.6145 15.4617 42.6472 15.45 42.6865 15.4332C42.7442 15.4123 42.7668 15.3558 42.7651 15.2977L42.7643 15.2939C42.7601 15.2751 42.7568 15.2604 42.7488 15.2429C42.7488 15.2429 42.7488 15.2429 42.748 15.2391L42.7379 15.1944C42.6668 14.799 42.5037 14.2092 42.5037 14.2092C42.6622 14.251 43.4633 14.428 43.4089 14.2247C42.953 12.5455 42.446 10.6781 41.6373 9.10347C41.6135 9.05034 41.5302 9.08088 41.547 9.1361C41.9214 10.7672 42.5802 12.3217 42.9823 13.9544C42.73 13.9143 42.3146 13.8293 42.1096 13.8766C42.0573 13.9042 42.4447 15.0111 42.4623 15.1914C42.4623 15.1914 42.4639 15.199 42.4627 15.2111C41.8197 15.4332 41.2801 15.3374 40.5463 15.0274C40.502 15.0053 40.4689 15.0479 40.5082 15.0822Z" fill="#C47C8A"/>
<path d="M32.4336 14.7158C34.3282 14.5798 33.305 10.8809 33.305 10.8809C33.305 10.8809 36.2123 10.5969 35.5162 6.15758C35.5162 6.15758 39.2306 6.94739 41.5017 5.72795C43.7728 4.50894 43.2257 0.247414 42.5413 0.070042C41.8569 -0.10733 40.3643 1.35808 40.3643 1.35808C40.3643 1.35808 40.5601 -0.303526 39.6803 0.0491258C38.8001 0.401778 38.245 1.28404 38.245 1.28404C38.245 1.28404 31.0753 1.96424 29.8194 3.60535C28.8644 4.85365 29.2781 6.49224 29.2781 6.49224C29.2781 6.49224 27.5387 7.48494 27.7993 9.01268C28.0595 10.5408 30.2194 14.8747 32.4336 14.7158Z" fill="#2A443E"/>
<path d="M35.38 5.36312C35.3633 5.32882 35.3089 5.34597 35.3235 5.38362C36.2614 7.82206 35.9477 10.7989 32.8432 11.0127C32.7529 11.0189 32.7671 11.149 32.8533 11.1524C34.0309 11.2022 35.1482 10.568 35.7255 9.51505C36.4748 8.14878 36.0163 6.66705 35.38 5.36312Z" fill="#2A443E"/>
<path d="M42.5839 0.238188C42.5718 0.23275 42.5584 0.250737 42.5705 0.259522C43.331 0.816738 43.3198 2.44613 43.234 3.30329C43.1277 4.36836 42.5785 5.32592 41.6832 5.87393C40.1153 6.83358 37.9166 6.49431 36.2157 6.11656C36.1061 6.0923 36.16 6.21068 36.2671 6.24039C38.286 6.7976 41.467 7.18037 42.8182 5.13181C43.3595 4.31105 43.5264 3.24138 43.4607 2.26751C43.4156 1.59441 43.2729 0.539385 42.5839 0.238188Z" fill="#2A443E"/>
<path d="M33.0862 14.9396C33.0862 14.9396 31.0147 12.4785 29.8818 13.2403C28.749 14.0021 30.4717 17.6842 31.917 18.0791C33.3623 18.474 33.7543 17.1433 33.7543 17.1433L33.0862 14.9396Z" fill="#EBADA0"/>
<path d="M30.4017 14.2836C30.3791 14.2836 30.3774 14.3154 30.3975 14.3217C31.4141 14.6308 32.0119 15.4943 32.4582 16.4046C32.134 16.0678 31.719 15.9047 31.2639 16.2954C31.24 16.3159 31.2681 16.3539 31.2953 16.3456C31.6893 16.2234 31.9851 16.2669 32.2855 16.5644C32.498 16.7752 32.6553 17.0513 32.8167 17.3023C32.8703 17.386 33.0246 17.3245 32.9824 17.2266C32.9795 17.2195 32.9757 17.2119 32.9724 17.2048C32.8849 15.9515 31.7558 14.2887 30.4017 14.2836Z" fill="#C47C8A"/>
<path d="M57.7815 63.4746C57.3201 64.031 54.5892 63.1295 52.6047 63.3107C51.8412 63.3839 49.0844 64.4841 47.5483 63.9059C46.6811 63.5738 44.7397 62.1502 44.4723 62.215C44.205 62.2799 28.3031 60.9939 24.567 59.4194C23.8466 59.1173 23.1216 58.7463 22.41 58.3409C19.4332 56.6195 16.7714 54.1994 16.3141 52.9959C16.1978 52.6897 16.3618 51.7924 16.7153 50.5411C18.0657 45.7437 22.1423 35.6963 23.4195 33.4185C25.0288 30.5454 29.5798 26.378 30.6068 26.4985C33.4757 26.8264 32.1295 38.8154 31.9225 40.226C31.7325 41.4985 28.9975 48.0475 28.7904 49.5187C28.7691 49.6785 28.7733 49.7777 28.8164 49.8036C28.8854 49.8467 29.3213 50.0584 30.0069 50.3901C33.7041 52.1718 44.7179 57.3704 45.5809 57.7628C46.6121 58.22 49.7011 59.1131 51.6639 59.4884C53.049 59.7515 58.2471 62.9137 57.7815 63.4746Z" fill="#EBADA0"/>
<path d="M28.7908 49.5184C28.7695 49.6782 28.7737 49.7773 28.8168 49.8033C28.8858 49.8463 29.3217 50.058 30.0073 50.3898C29.8392 50.5019 29.6794 50.6186 29.5154 50.7349C28.2382 51.6581 27.0477 52.6977 25.9562 53.8322C24.6318 55.2039 23.4366 56.7224 22.41 58.3405C19.4332 56.6191 16.7714 54.1991 16.3141 52.9955C16.1978 52.6893 16.3618 51.792 16.7153 50.5408C18.0657 45.7434 22.1423 35.6959 23.4195 33.4181C25.0288 30.545 29.5798 26.3776 30.6068 26.4981C33.4757 26.8261 32.1295 38.815 31.9225 40.2256C31.7329 41.4986 28.9979 48.0475 28.7908 49.5184Z" fill="#C47C8A"/>
<path d="M32.9892 33.6428C32.9892 34.0569 32.985 34.4623 32.9721 34.8593C32.9721 34.8982 32.9721 34.9371 32.9679 34.9756C32.9591 35.3939 32.9378 35.8039 32.916 36.1921C32.9072 36.3602 32.8989 36.5242 32.8859 36.684C32.86 37.1199 32.8256 37.5295 32.7909 37.9005C32.7867 37.9394 32.7867 37.9783 32.7821 38.0168C32.7345 38.4958 32.6872 38.91 32.6441 39.2333C32.6182 39.4316 32.5922 39.5956 32.5709 39.7253C32.5667 39.76 32.5579 39.7901 32.5537 39.8203C32.506 40.0662 32.4157 40.4586 32.2864 40.9418C32.2776 40.9807 32.2693 41.0196 32.2605 41.0581C32.2002 41.2869 32.1312 41.5371 32.0622 41.8002C32.0191 41.9554 31.976 42.111 31.9329 42.2746C31.8857 42.4344 31.8426 42.598 31.7949 42.7666C31.7217 43.0213 31.648 43.2844 31.5707 43.5518C31.5318 43.694 31.4887 43.8366 31.4456 43.9831C31.4368 44.022 31.4238 44.0609 31.4109 44.0998C31.2946 44.5051 31.1737 44.9151 31.0569 45.3163C31.0051 45.4844 30.9532 45.6484 30.9059 45.8082C30.7767 46.2312 30.6516 46.6407 30.5307 47.0247C30.5177 47.0636 30.5048 47.1025 30.4918 47.1414C30.4445 47.2925 30.4014 47.4393 30.3537 47.5773C30.3148 47.7066 30.2759 47.8275 30.2374 47.9438C30.1902 48.0906 30.1425 48.2287 30.0994 48.3579C30.0392 48.5391 29.9827 48.7031 29.9266 48.8499C29.7844 49.2599 29.6723 49.5272 29.6158 49.5962C29.551 49.674 29.3397 49.7732 29.0205 49.9066C28.9084 49.9585 28.7791 50.0099 28.6407 50.0664C28.606 50.0794 28.5675 50.0965 28.5286 50.1095C28.4725 50.1354 28.4077 50.1572 28.3474 50.1827C28.0412 50.3078 27.6919 50.45 27.3121 50.6186C27.2732 50.6316 27.2342 50.6487 27.1953 50.6659C26.8113 50.834 26.4018 51.024 25.9788 51.2352C25.8755 51.2871 25.7676 51.3432 25.6597 51.3992C25.6036 51.4293 25.5434 51.4594 25.4869 51.4942C25.2539 51.6192 25.0167 51.7531 24.7749 51.8912C24.6067 51.9903 24.4385 52.094 24.27 52.202C24.2311 52.2279 24.1922 52.2539 24.1537 52.2798C23.7613 52.5341 23.3726 52.8106 23.002 53.1081C22.9803 53.1252 22.9589 53.1424 22.9372 53.16C22.9112 53.1817 22.8853 53.203 22.8552 53.2248C22.7171 53.3411 22.5791 53.462 22.4452 53.5871C22.1474 53.8502 21.8629 54.1393 21.6039 54.4413C21.4701 54.5881 21.345 54.7433 21.2287 54.8985C21.2157 54.9115 21.207 54.9203 21.2028 54.9333C21.168 54.9722 21.1379 55.0111 21.112 55.05C20.8576 55.3951 20.6288 55.7616 20.4389 56.1502C20.413 56.1891 20.3916 56.228 20.3741 56.2665C20.2101 56.5944 20.072 56.9438 19.9599 57.306C19.9557 57.319 19.934 57.3148 19.8951 57.2972C19.8089 57.2625 19.6319 57.1504 19.3989 56.9781C19.1576 56.8011 18.8467 56.5551 18.5146 56.2661C18.4757 56.2272 18.4326 56.1883 18.3853 56.1498C18.3205 56.0937 18.2561 56.033 18.187 55.9686C18.1481 55.9339 18.1092 55.8996 18.0707 55.8565C17.7687 55.5762 17.4625 55.2612 17.1734 54.9333C17.0613 54.8082 16.9534 54.6831 16.8542 54.5534C16.8241 54.5145 16.794 54.4802 16.7639 54.4413C16.617 54.256 16.4836 54.0615 16.3585 53.872C16.2205 53.6561 16.0996 53.4407 16.0004 53.2248C15.9791 53.1859 15.9615 53.147 15.9485 53.1085C15.7674 52.6902 15.6812 52.2844 15.7197 51.905V51.892C15.7369 51.7322 15.7586 51.564 15.7846 51.4C15.8364 51.0072 15.9055 50.6019 15.9916 50.1835C15.9916 50.1446 16.0004 50.1057 16.0134 50.0672C16.0912 49.6702 16.1816 49.2649 16.2895 48.8507C16.3066 48.76 16.3326 48.6696 16.3585 48.5746C16.3757 48.5014 16.3932 48.4324 16.4146 48.3588C16.5183 47.9576 16.6346 47.5518 16.7597 47.1423C16.7685 47.1034 16.781 47.0645 16.7986 47.0256C16.8116 46.9607 16.8333 46.9005 16.8546 46.8356C16.9584 46.4947 17.0705 46.1542 17.1868 45.8091L17.355 45.3171C17.4972 44.9117 17.644 44.506 17.7951 44.1006C17.808 44.0617 17.8252 44.0228 17.8381 43.9839C17.9159 43.781 17.9933 43.5785 18.0712 43.3756C18.1101 43.2807 18.149 43.1815 18.1874 43.0824C18.2305 42.9791 18.2694 42.8711 18.3125 42.7674C18.3774 42.6034 18.4464 42.4394 18.5154 42.2754C18.6794 41.8655 18.8518 41.4601 19.0245 41.0589C19.0417 41.02 19.0592 40.9811 19.0764 40.9426C19.1843 40.6967 19.2923 40.4553 19.3998 40.2135C19.4688 40.0495 19.542 39.8855 19.6198 39.7261C19.693 39.5621 19.7666 39.3982 19.844 39.2342C19.8612 39.1953 19.8783 39.1564 19.8959 39.1179C20.0729 38.7426 20.2452 38.3758 20.4222 38.0177C20.4393 37.9788 20.4569 37.9399 20.4782 37.9014C20.6811 37.483 20.8836 37.0773 21.0823 36.6849C21.0911 36.6677 21.104 36.646 21.1124 36.6288C21.1513 36.551 21.1902 36.4736 21.2287 36.4C21.2634 36.331 21.3019 36.2619 21.3366 36.1929C21.5567 35.7658 21.7725 35.3604 21.9796 34.9764C22.0055 34.9375 22.0227 34.8986 22.0444 34.8601C22.1825 34.61 22.3164 34.3728 22.4456 34.1439C22.5448 33.9712 22.6397 33.803 22.7347 33.6436C22.8037 33.5227 22.8727 33.4106 22.9376 33.2985C22.9677 33.2466 22.9978 33.1993 23.0284 33.1517C23.3346 32.6467 23.6023 32.2326 23.8219 31.9352C23.8521 31.8921 23.878 31.8532 23.9039 31.8189C23.9642 31.741 24.0202 31.672 24.0679 31.616C24.0938 31.5812 24.124 31.5511 24.1541 31.5168C24.193 31.4737 24.2319 31.426 24.2704 31.383C24.4904 31.1286 24.7322 30.8697 24.9866 30.6019C25.1418 30.4379 25.3057 30.2698 25.4697 30.1058C25.4739 30.1016 25.4827 30.0928 25.4869 30.0886C25.6467 29.9247 25.8103 29.7653 25.9788 29.6013C26.2248 29.3641 26.4792 29.1269 26.7339 28.8939C26.777 28.855 26.8201 28.8207 26.8632 28.7776C26.9711 28.6785 27.0832 28.5793 27.1953 28.4797C27.2342 28.4496 27.2732 28.4149 27.3121 28.3764C27.6442 28.0915 27.9764 27.8154 28.2956 27.5611C28.3734 27.4963 28.4508 27.436 28.5286 27.38C28.6708 27.2678 28.8088 27.1641 28.9427 27.065C28.9686 27.0478 28.9946 27.0261 29.0205 27.0089C29.469 26.6855 29.8835 26.4178 30.237 26.2367C30.2759 26.2149 30.3148 26.1936 30.3533 26.1764C30.8235 25.9522 31.1728 25.8874 31.3368 26.0513C31.4188 26.1333 31.4966 26.2195 31.5698 26.3145C31.738 26.5303 31.8848 26.7805 32.0187 27.065C32.0317 27.0951 32.0446 27.1252 32.0618 27.1557C32.1178 27.285 32.1697 27.4189 32.2216 27.5611C32.3554 27.9322 32.4717 28.3421 32.5667 28.7776C32.5755 28.8165 32.5839 28.8554 32.5885 28.8939C32.6704 29.2821 32.7353 29.6879 32.7867 30.1062C32.8127 30.2702 32.8298 30.4342 32.847 30.6024C32.8859 30.9993 32.9202 31.4089 32.9419 31.8189C32.9419 31.8578 32.9461 31.8967 32.9461 31.9352C32.9675 32.3405 32.9804 32.7463 32.985 33.1517C32.9892 33.3148 32.9892 33.4788 32.9892 33.6428Z" fill="#588F83"/>
<g opacity="0.5">
<path d="M16.8546 46.8354V54.5532C16.8245 54.5143 16.7944 54.4799 16.7642 54.441C16.6174 54.2557 16.484 54.0612 16.3589 53.8717V48.3581H16.4149C16.5187 47.9569 16.635 47.5511 16.7601 47.1416C16.7688 47.1027 16.7814 47.0638 16.799 47.0249C16.8115 46.9605 16.8329 46.9002 16.8546 46.8354Z" fill="#3A6B5F"/>
<path d="M18.1873 43.0822V55.9684C18.1484 55.9337 18.1095 55.8994 18.071 55.8563V43.3754C18.1099 43.2804 18.1484 43.1813 18.1873 43.0822Z" fill="#3A6B5F"/>
<path d="M19.8958 39.1176V57.2974C19.8096 57.2627 19.6327 57.1506 19.3997 56.9782V40.2132C19.4687 40.0492 19.5419 39.8853 19.6197 39.7259C19.6929 39.5619 19.7665 39.3979 19.8439 39.2339C19.8615 39.195 19.8786 39.1561 19.8958 39.1176Z" fill="#3A6B5F"/>
<path d="M21.229 36.3993V54.9326H21.2031C21.1684 54.9715 21.1382 55.0104 21.1123 55.0493V36.6281C21.1512 36.5507 21.1901 36.4729 21.229 36.3993Z" fill="#3A6B5F"/>
<path d="M22.9375 33.2978V53.1601C22.9116 53.1819 22.8856 53.2032 22.8555 53.2249C22.7175 53.3412 22.5794 53.4621 22.4456 53.5872V34.1432C22.5447 33.9705 22.6397 33.8023 22.7346 33.6429C22.8036 33.522 22.8727 33.4099 22.9375 33.2978Z" fill="#3A6B5F"/>
<path d="M24.2703 31.3823V52.2021C24.2314 52.2281 24.1925 52.254 24.1541 52.2799V31.5161C24.193 31.473 24.2314 31.4254 24.2703 31.3823Z" fill="#3A6B5F"/>
<path d="M25.9788 29.6006V51.2358C25.8754 51.2876 25.7675 51.3437 25.6596 51.3998C25.6035 51.4299 25.5433 51.46 25.4868 51.4947V30.0879C25.6466 29.924 25.8106 29.7646 25.9788 29.6006Z" fill="#3A6B5F"/>
<path d="M27.312 28.3754V50.6188C27.2731 50.6318 27.2342 50.6489 27.1953 50.6661V28.4787C27.2342 28.4486 27.2731 28.4143 27.312 28.3754Z" fill="#3A6B5F"/>
<path d="M29.02 27.0078V49.9072C28.9079 49.9591 28.7787 50.0105 28.6402 50.067C28.6055 50.08 28.567 50.0971 28.5281 50.1101V27.3789C28.6703 27.2668 28.8084 27.163 28.9422 27.0639C28.9686 27.0467 28.9941 27.025 29.02 27.0078Z" fill="#3A6B5F"/>
<path d="M30.3534 26.1754V47.5775C30.3145 47.7068 30.2755 47.8277 30.2371 47.944V26.2356C30.2755 26.2138 30.3145 26.1925 30.3534 26.1754Z" fill="#3A6B5F"/>
<path d="M32.0616 27.0638V41.8008C32.0185 41.956 31.9754 42.1116 31.9323 42.2751C31.8851 42.4349 31.842 42.5985 31.7943 42.7671C31.7211 43.0219 31.6475 43.285 31.5701 43.5523V26.3134C31.7382 26.5292 31.8851 26.7794 32.0189 27.0638H32.0616Z" fill="#3A6B5F"/>
</g>
<g opacity="0.5">
<path d="M32.2213 27.5599H28.2957C28.3735 27.4951 28.4509 27.4348 28.5287 27.3788C28.6709 27.2667 28.8089 27.1629 28.9428 27.0638H32.0619V27.1546C32.1179 27.2838 32.1698 27.4173 32.2213 27.5599Z" fill="#3A6B5F"/>
<path d="M32.588 28.8927H26.7339C26.777 28.8538 26.8201 28.8195 26.8631 28.7764H32.5662C32.575 28.8153 32.5838 28.8542 32.588 28.8927Z" fill="#3A6B5F"/>
<path d="M32.847 30.6012H24.9866C25.1418 30.4373 25.3058 30.2691 25.4697 30.1051H32.7863C32.8123 30.2691 32.8294 30.4331 32.847 30.6012Z" fill="#3A6B5F"/>
<path d="M32.9462 31.9344H23.822C23.8521 31.8913 23.8781 31.8524 23.904 31.8181H32.942C32.942 31.8566 32.9462 31.8955 32.9462 31.9344Z" fill="#3A6B5F"/>
<path d="M32.9891 33.6429H22.7346C22.8036 33.522 22.8727 33.4099 22.9375 33.2978C22.9676 33.2459 22.9977 33.1986 23.0283 33.1509H32.985C32.9891 33.3149 32.9891 33.4789 32.9891 33.6429Z" fill="#3A6B5F"/>
<path d="M32.9719 34.8594C32.9719 34.8983 32.9719 34.9372 32.9678 34.9757H21.9795C22.0054 34.9368 22.0226 34.8979 22.0443 34.8594H32.9719Z" fill="#3A6B5F"/>
<path d="M32.916 36.1926C32.9072 36.3608 32.8988 36.5248 32.8859 36.6846H21.0823C21.0911 36.6674 21.104 36.6457 21.1124 36.6285C21.1513 36.5507 21.1902 36.4733 21.2287 36.3997V36.1926H32.916Z" fill="#3A6B5F"/>
<path d="M32.7909 37.9006C32.7867 37.9395 32.7867 37.9784 32.7821 38.0169H20.4221C20.4393 37.978 20.4568 37.9391 20.4782 37.9006H32.7909Z" fill="#3A6B5F"/>
<path d="M32.6442 39.2339C32.6182 39.4322 32.5923 39.5962 32.5709 39.7258H19.6199C19.6931 39.5619 19.7667 39.3979 19.8441 39.2339H32.6442Z" fill="#3A6B5F"/>
<path d="M32.2859 40.9423C32.2771 40.9812 32.2687 41.0201 32.26 41.0586H19.0244C19.0416 41.0197 19.0591 40.9808 19.0763 40.9423H32.2859Z" fill="#3A6B5F"/>
<path d="M31.9321 42.2751C31.8848 42.4349 31.8417 42.5985 31.794 42.767H18.3125C18.3773 42.6031 18.4464 42.4391 18.5154 42.2751H31.9321Z" fill="#3A6B5F"/>
<path d="M31.4449 43.9836C31.4361 44.0225 31.4231 44.0614 31.4101 44.1003H17.7952C17.8081 44.0614 17.8253 44.0225 17.8383 43.9836H31.4449Z" fill="#3A6B5F"/>
<path d="M31.0565 45.3168C31.0046 45.4849 30.9528 45.6489 30.9055 45.8087H17.1868L17.3549 45.3168H31.0565Z" fill="#3A6B5F"/>
<path d="M30.5303 47.0253C30.5174 47.0642 30.5044 47.1031 30.4914 47.142H16.7598C16.7686 47.1031 16.7811 47.0642 16.7987 47.0253H30.5303Z" fill="#3A6B5F"/>
<path d="M30.099 48.358C30.0388 48.5392 29.9823 48.7032 29.9263 48.85H16.2896C16.3067 48.7592 16.3326 48.6689 16.3586 48.5739V48.358H30.099Z" fill="#3A6B5F"/>
<path d="M28.6407 50.0665C28.606 50.0794 28.5675 50.0966 28.5286 50.1096C28.4726 50.1355 28.4077 50.1572 28.3475 50.1828H15.9917C15.9917 50.1439 16.0005 50.105 16.0135 50.0665H28.6407Z" fill="#3A6B5F"/>
<path d="M25.6597 51.3997C25.6036 51.4298 25.5434 51.46 25.4869 51.4947C25.2539 51.6198 25.0167 51.7536 24.7749 51.8917H15.7197C15.7369 51.7319 15.7586 51.5637 15.7846 51.3997H25.6597Z" fill="#3A6B5F"/>
<path d="M23.0019 53.1082C22.9802 53.1253 22.9589 53.1425 22.9371 53.16C22.9112 53.1818 22.8852 53.2031 22.8551 53.2249H16.0004C15.979 53.186 15.9615 53.1471 15.9485 53.1086H23.0019V53.1082Z" fill="#3A6B5F"/>
<path d="M21.6045 54.441C21.4706 54.5878 21.3455 54.743 21.2292 54.8982V54.9329H17.1739C17.0618 54.8079 16.9539 54.6828 16.8548 54.5531C16.8246 54.5142 16.7945 54.4799 16.7644 54.441H21.6045Z" fill="#3A6B5F"/>
<path d="M20.4398 56.1494C20.4139 56.1883 20.3925 56.2272 20.375 56.2657H18.5155C18.4766 56.2268 18.4335 56.1879 18.3862 56.1494H20.4398Z" fill="#3A6B5F"/>
</g>
<path d="M32.2204 42.2361C31.915 42.6971 31.5745 43.1949 31.2654 43.7128C31.6749 42.3085 32.1137 40.9142 32.6287 39.5475C32.6588 39.468 32.5321 39.4346 32.5019 39.5128C31.2357 42.7942 29.9426 46.0534 29.2264 49.513C29.175 49.7619 29.5377 49.8665 29.61 49.6188C30.0514 48.1011 30.4588 46.5683 30.8863 45.0414C31.0512 44.685 31.1997 44.3173 31.3762 43.9718C31.6682 43.3999 31.997 42.849 32.343 42.3085C32.3919 42.2303 32.2702 42.1608 32.2204 42.2361Z" fill="#3A6B5F"/>
<path d="M30.5591 26.3291C30.5085 26.2977 30.4645 26.3693 30.5114 26.4048C32.5775 27.9731 32.8252 31.5804 32.8829 32.6551C32.9946 34.7329 32.8356 36.5129 32.5031 38.5452C32.4863 38.6481 32.647 38.6954 32.6754 38.5895C33.3953 35.8821 33.7187 28.3028 30.5591 26.3291Z" fill="#3A6B5F"/>
<path d="M15.0006 52.5441C14.9441 53.3038 18.7376 58.4769 20.2494 57.9728C20.8966 57.7569 22.6632 54.1263 24.3503 52.796C26.0374 51.4657 29.6325 49.899 29.9919 49.7597C30.3517 49.6204 31.2097 46.3278 30.9269 46.1194C30.6441 45.9111 24.5632 46.4754 22.1185 47.6045C19.6738 48.7336 15.0722 51.5736 15.0006 52.5441Z" fill="#3A6B5F"/>
<path d="M53.289 60.0791C57.7044 61.3838 57.1865 65.5232 56.8368 66.7075C56.4867 67.8918 54.6715 71.6476 50.2561 70.3428C45.8402 69.0376 46.8095 64.6025 47.0429 63.8131C47.3048 62.925 48.8731 58.7743 53.289 60.0791Z" fill="#CE4D35"/>
<path d="M47.647 64.197C47.647 64.197 49.3061 64.361 48.3464 67.2768C48.3464 67.2768 46.2334 65.3345 47.647 64.197Z" fill="#3A6B5F"/>
<path d="M48.3386 64.4694C48.3386 64.4694 48.4423 65.8344 45.9482 65.4729C45.9482 65.4729 47.2179 63.4884 48.3386 64.4694Z" fill="#3A6B5F"/>
<path d="M47.8969 64.3643C47.8969 64.3643 49.1753 63.8749 47.7827 61.774C47.7827 61.774 46.5315 63.7699 47.8969 64.3643Z" fill="#3A6B5F"/>
<path d="M47.5713 64.2774C47.5713 64.2774 48.6338 62.9927 50.5163 65.4173C50.5163 65.4173 47.7252 66.085 47.5713 64.2774Z" fill="#3A6B5F"/>
<path d="M47.8086 64.1406C47.8086 64.1406 47.2731 62.3117 50.4127 62.5192C50.4127 62.5192 49.4652 65.3374 47.8086 64.1406Z" fill="#3A6B5F"/>
<path d="M48.1967 64.4451C48.1967 64.4451 46.5494 64.6953 45.3831 63.3328C45.3831 63.3328 45.3923 62.5651 46.1988 62.3568C46.1988 62.3568 47.0907 63.9105 48.5159 64.0054L48.3001 64.3732" fill="#3A6B5F"/>
<path d="M64.2941 66.823C62.9425 71.2242 58.809 70.6624 57.6285 70.3001C56.4479 69.9374 52.7114 68.0826 54.063 63.6813C55.4151 59.2792 59.8393 60.2958 60.6266 60.5376C61.5118 60.8091 65.6458 62.4209 64.2941 66.823Z" fill="#CE4D35"/>
<path d="M60.2363 61.1375C60.2363 61.1375 60.0547 62.7949 57.1494 61.8043C57.1494 61.8043 59.1139 59.7122 60.2363 61.1375Z" fill="#3A6B5F"/>
<path d="M59.9563 61.8265C59.9563 61.8265 58.5905 61.9156 58.9783 59.4253C58.9783 59.4253 60.949 60.7163 59.9563 61.8265Z" fill="#3A6B5F"/>
<path d="M60.0664 61.386C60.0664 61.386 60.5425 62.6694 62.6575 61.2994C62.6575 61.2994 60.6751 60.0264 60.0664 61.386Z" fill="#3A6B5F"/>
<path d="M60.1569 61.0609C60.1569 61.0609 61.4303 62.1373 58.9856 63.9938C58.9856 63.9938 58.3476 61.196 60.1569 61.0609Z" fill="#3A6B5F"/>
<path d="M60.2912 61.2998C60.2912 61.2998 62.1255 60.7836 61.885 63.9206C61.885 63.9206 59.0763 62.9434 60.2912 61.2998Z" fill="#3A6B5F"/>
<path d="M59.9824 61.6847C59.9824 61.6847 59.7498 60.0348 61.1244 58.8831C61.1244 58.8831 61.8921 58.9003 62.0916 59.7089C62.0916 59.7089 60.5283 60.584 60.4187 62.0085L60.0535 61.7888" fill="#3A6B5F"/>
<path d="M70.7188 70.7352L72.1553 68.201H95.309L96.7456 70.7352" stroke="#2A443E" stroke-width="2" stroke-miterlimit="10"/>
<path d="M74.8418 70.7352L75.8232 68.201H91.6411L92.6225 70.7352" stroke="#2A443E" stroke-width="2" stroke-miterlimit="10"/>
<path fill-rule="evenodd" clip-rule="evenodd" d="M0.0328046 73C0.0110494 72.6695 0 72.336 0 72V70H110V73H0.0328046Z" fill="#CA906A"/>
<path fill-rule="evenodd" clip-rule="evenodd" d="M14.9999 87H109V73H0.0327148C0.547301 80.818 7.05167 87 14.9999 87Z" fill="#A77757"/>
<path d="M47.1438 61.7027H41.3198V70.304H47.1438V61.7027Z" fill="#ACB9A2"/>
<path d="M47.7986 60.6033H40.6648V62.3139H47.7986V60.6033Z" fill="#CE4D35"/>
<path d="M40.8115 57.9264C40.8115 57.9264 39.2523 70.3039 37.213 70.3039C35.1736 70.3039 31.8153 70.3039 31.8153 70.3039C31.8153 70.3039 28.4569 70.3039 26.4176 70.3039C24.3782 70.3039 22.8191 57.9264 22.8191 57.9264H40.8115Z" fill="#F0E4D6"/>
</svg>
