<svg width="250" height="100" viewBox="0 0 250 100" fill="none" xmlns="http://www.w3.org/2000/svg">
<path d="M22.4484 0H21.853V100H22.4484V0Z" fill="white"/>
<path d="M45.2985 0H44.7031V100H45.2985V0Z" fill="white"/>
<path d="M68.1614 0H67.5522V100H68.1614V0Z" fill="white"/>
<path d="M91.0105 0H90.4152V100H91.0105V0Z" fill="white"/>
<path d="M113.873 0H113.264V100H113.873V0Z" fill="white"/>
<path d="M136.722 0H136.127V100H136.722V0Z" fill="white"/>
<path d="M159.573 0H158.977V100H159.573V0Z" fill="white"/>
<path d="M182.435 0H181.826V100H182.435V0Z" fill="white"/>
<path d="M205.284 0H204.689V100H205.284V0Z" fill="white"/>
<path d="M228.148 0H227.539V100H228.148V0Z" fill="white"/>
<path fill-rule="evenodd" clip-rule="evenodd" d="M244.273 3.2085C244.393 3.30366 244.513 3.40064 244.631 3.4994H5.36951C5.48732 3.40064 5.60667 3.30366 5.72752 3.2085H244.273Z" fill="white"/>
<path d="M250 14.3733H0V14.6709H250V14.3733Z" fill="white"/>
<path d="M250 25.5444H0V25.8353H250V25.5444Z" fill="white"/>
<path d="M250 36.7085H0V36.9994H250V36.7085Z" fill="white"/>
<path d="M250 47.8794H0V48.1703H250V47.8794Z" fill="white"/>
<path d="M250 59.0437H0V59.3346H250V59.0437Z" fill="white"/>
<path d="M250 70.2087H0V70.5064H250V70.2087Z" fill="white"/>
<path d="M250 81.3796H0V81.6705H250V81.3796Z" fill="white"/>
<path fill-rule="evenodd" clip-rule="evenodd" d="M2.20652 92.8351C2.14744 92.7388 2.08942 92.6419 2.03247 92.5442H247.968C247.911 92.6419 247.853 92.7388 247.793 92.8351H2.20652Z" fill="white"/>
</svg>
