<svg width="80" height="80" viewBox="0 0 80 80" fill="none" xmlns="http://www.w3.org/2000/svg">
<path d="M40.0001 51.8332L43.8334 55.6665C44.1667 55.9998 44.5556 56.1665 45.0001 56.1665C45.4445 56.1665 45.8334 55.9998 46.1668 55.6665L50.0001 51.8332L51.5001 53.3332C52.0001 53.8332 52.5834 54.0832 53.2501 54.0832C53.9168 54.0832 54.5001 53.8332 55.0001 53.3332C55.5001 52.8332 55.7501 52.2498 55.7501 51.5832C55.7501 50.9165 55.5001 50.3332 55.0001 49.8332L51.1668 45.9998C50.8334 45.6665 50.4445 45.4998 50.0001 45.4998C49.5556 45.4998 49.1667 45.6665 48.8334 45.9998L45.0001 49.8332L41.1668 45.9998C40.8334 45.6665 40.4445 45.4998 40.0001 45.4998C39.5556 45.4998 39.1667 45.6665 38.8334 45.9998L35.0001 49.8332L31.1668 45.9998C30.8334 45.6665 30.4445 45.4998 30.0001 45.4998C29.5556 45.4998 29.1668 45.6665 28.8334 45.9998L25.0001 49.8332C24.5001 50.3332 24.2501 50.9165 24.2501 51.5832C24.2501 52.2498 24.5001 52.8332 25.0001 53.3332C25.5001 53.8332 26.0834 54.0832 26.7501 54.0832C27.4168 54.0832 28.0001 53.8332 28.5001 53.3332L30.0001 51.8332L33.8334 55.6665C34.1667 55.9998 34.5556 56.1665 35.0001 56.1665C35.4445 56.1665 35.8334 55.9998 36.1668 55.6665L40.0001 51.8332ZM28.2501 33.3332L23.9168 36.4998C23.3612 36.9443 23.0145 37.4998 22.8768 38.1665C22.739 38.8332 22.8912 39.4443 23.3334 39.9998C23.7756 40.5554 24.3312 40.9032 25.0001 41.0432C25.669 41.1832 26.2801 41.0298 26.8334 40.5832L34.9168 34.6665C35.3612 34.3332 35.5834 33.8887 35.5834 33.3332C35.5834 32.7776 35.3612 32.3332 34.9168 31.9998L26.8334 26.0832C26.2779 25.6387 25.6668 25.4854 25.0001 25.6232C24.3334 25.7609 23.7779 26.1087 23.3334 26.6665C22.889 27.2243 22.7223 27.8354 22.8334 28.4998C22.9445 29.1643 23.3056 29.7198 23.9168 30.1665L28.2501 33.3332ZM51.7501 33.3332L56.0834 30.1665C56.639 29.7221 56.9868 29.1665 57.1268 28.4998C57.2668 27.8332 57.1134 27.2221 56.6668 26.6665C56.2201 26.1109 55.6645 25.7643 55.0001 25.6265C54.3356 25.4887 53.7245 25.6409 53.1667 26.0832L45.0834 31.9998C44.639 32.3332 44.4167 32.7776 44.4167 33.3332C44.4167 33.8887 44.639 34.3332 45.0834 34.6665L53.1667 40.5832C53.7223 41.0276 54.3334 41.1809 55.0001 41.0432C55.6668 40.9054 56.2223 40.5576 56.6668 39.9998C57.1112 39.4421 57.2779 38.8309 57.1667 38.1665C57.0556 37.5021 56.6945 36.9465 56.0834 36.4998L51.7501 33.3332ZM40.0001 73.3332C35.389 73.3332 31.0556 72.4576 27.0001 70.7065C22.9445 68.9554 19.4168 66.5809 16.4168 63.5832C13.4168 60.5854 11.0423 57.0576 9.29342 52.9998C7.54453 48.9421 6.66897 44.6087 6.66675 39.9998C6.66453 35.3909 7.54009 31.0576 9.29342 26.9998C11.0468 22.9421 13.4212 19.4143 16.4168 16.4165C19.4123 13.4187 22.9401 11.0443 27.0001 9.29317C31.0601 7.54206 35.3934 6.6665 40.0001 6.6665C44.6068 6.6665 48.9401 7.54206 53.0001 9.29317C57.0601 11.0443 60.5879 13.4187 63.5834 16.4165C66.579 19.4143 68.9545 22.9421 70.7101 26.9998C72.4656 31.0576 73.3401 35.3909 73.3334 39.9998C73.3268 44.6087 72.4512 48.9421 70.7068 52.9998C68.9623 57.0576 66.5879 60.5854 63.5834 63.5832C60.579 66.5809 57.0512 68.9565 53.0001 70.7098C48.949 72.4632 44.6156 73.3376 40.0001 73.3332ZM40.0001 66.6665C47.4445 66.6665 53.7501 64.0832 58.9167 58.9165C64.0834 53.7498 66.6668 47.4443 66.6668 39.9998C66.6668 32.5554 64.0834 26.2498 58.9167 21.0832C53.7501 15.9165 47.4445 13.3332 40.0001 13.3332C32.5556 13.3332 26.2501 15.9165 21.0834 21.0832C15.9168 26.2498 13.3334 32.5554 13.3334 39.9998C13.3334 47.4443 15.9168 53.7498 21.0834 58.9165C26.2501 64.0832 32.5556 66.6665 40.0001 66.6665Z" fill="#C62828"/>
</svg>
