<svg width="80" height="80" viewBox="0 0 80 80" fill="none" xmlns="http://www.w3.org/2000/svg">
<path fill-rule="evenodd" clip-rule="evenodd" d="M40 67.5C47.2935 67.5 54.2882 64.6027 59.4454 59.4454C64.6027 54.2882 67.5 47.2935 67.5 40C67.5 32.7065 64.6027 25.7118 59.4454 20.5546C54.2882 15.3973 47.2935 12.5 40 12.5C32.7065 12.5 25.7118 15.3973 20.5546 20.5546C15.3973 25.7118 12.5 32.7065 12.5 40C12.5 47.2935 15.3973 54.2882 20.5546 59.4454C25.7118 64.6027 32.7065 67.5 40 67.5ZM40 75C49.2826 75 58.185 71.3125 64.7487 64.7487C71.3125 58.185 75 49.2826 75 40C75 30.7174 71.3125 21.815 64.7487 15.2513C58.185 8.68749 49.2826 5 40 5C30.7174 5 21.815 8.68749 15.2513 15.2513C8.68749 21.815 5 30.7174 5 40C5 49.2826 8.68749 58.185 15.2513 64.7487C21.815 71.3125 30.7174 75 40 75ZM23.75 46.25C23.75 45.2554 24.1451 44.3016 24.8483 43.5984C25.5516 42.8951 26.5054 42.5 27.5 42.5H52.5C53.4946 42.5 54.4484 42.8951 55.1516 43.5984C55.8549 44.3016 56.25 45.2554 56.25 46.25C56.25 49.68 54.1 52.845 51.38 54.98C48.53 57.215 44.59 58.75 40 58.75C35.41 58.75 31.47 57.215 28.62 54.98C25.905 52.845 23.75 49.68 23.75 46.25ZM50 37.5C49.0054 37.5 48.0516 37.1049 47.3484 36.4017C46.6451 35.6984 46.25 34.7446 46.25 33.75V28.75C46.25 27.7554 46.6451 26.8016 47.3484 26.0983C48.0516 25.3951 49.0054 25 50 25C50.9946 25 51.9484 25.3951 52.6516 26.0983C53.3549 26.8016 53.75 27.7554 53.75 28.75V33.75C53.75 34.7446 53.3549 35.6984 52.6516 36.4017C51.9484 37.1049 50.9946 37.5 50 37.5ZM26.25 33.75C26.25 34.7446 26.6451 35.6984 27.3483 36.4017C28.0516 37.1049 29.0054 37.5 30 37.5C30.9946 37.5 31.9484 37.1049 32.6517 36.4017C33.3549 35.6984 33.75 34.7446 33.75 33.75V28.75C33.75 27.7554 33.3549 26.8016 32.6517 26.0983C31.9484 25.3951 30.9946 25 30 25C29.0054 25 28.0516 25.3951 27.3483 26.0983C26.6451 26.8016 26.25 27.7554 26.25 28.75V33.75Z" fill="#50C878"/>
</svg>
