<svg width="67" height="67" viewBox="0 0 67 67" fill="none" xmlns="http://www.w3.org/2000/svg">
<g clip-path="url(#clip0_848_1853)">
<path d="M60.4197 33.335C60.4197 40.5183 57.5661 47.4074 52.4868 52.4868C47.4074 57.5661 40.5183 60.4197 33.335 60.4197C26.1517 60.4197 19.2626 57.5661 14.1832 52.4868C9.10387 47.4074 6.25031 40.5183 6.25031 33.335C6.25031 26.1517 9.10387 19.2626 14.1832 14.1832C19.2626 9.10387 26.1517 6.25031 33.335 6.25031C40.5183 6.25031 47.4074 9.10387 52.4868 14.1832C57.5661 19.2626 60.4197 26.1517 60.4197 33.335ZM33.335 0C24.494 0 16.0151 3.51207 9.7636 9.7636C3.51207 16.0151 0 24.494 0 33.335C0 42.176 3.51207 50.6549 9.7636 56.9064C16.0151 63.1579 24.494 66.67 33.335 66.67C42.176 66.67 50.6549 63.1579 56.9064 56.9064C63.1579 50.6549 66.67 42.176 66.67 33.335C66.67 24.494 63.1579 16.0151 56.9064 9.7636C50.6549 3.51207 42.176 0 33.335 0ZM22.9699 31.2516C24.075 31.2516 25.1349 30.8126 25.9163 30.0311C26.6978 29.2497 27.1368 28.1898 27.1368 27.0847C27.1368 25.9796 26.6978 24.9197 25.9163 24.1383C25.1349 23.3568 24.075 22.9178 22.9699 22.9178C21.8648 22.9178 20.8049 23.3568 20.0235 24.1383C19.242 24.9197 18.803 25.9796 18.803 27.0847C18.803 28.1898 19.242 29.2497 20.0235 30.0311C20.8049 30.8126 21.8648 31.2516 22.9699 31.2516ZM47.9711 27.0847C47.9711 25.9796 47.5321 24.9197 46.7507 24.1383C45.9693 23.3568 44.9094 22.9178 43.8043 22.9178C42.6991 22.9178 41.6393 23.3568 40.8578 24.1383C40.0764 24.9197 39.6374 25.9796 39.6374 27.0847C39.6374 28.1898 40.0764 29.2497 40.8578 30.0311C41.6393 30.8126 42.6991 31.2516 43.8043 31.2516C44.9094 31.2516 45.9693 30.8126 46.7507 30.0311C47.5321 29.2497 47.9711 28.1898 47.9711 27.0847ZM23.9595 42.7105C22.2277 42.7105 20.8344 44.1038 20.8344 45.8356C20.8344 47.5675 22.2277 48.9608 23.9595 48.9608H42.7105C44.4423 48.9608 45.8356 47.5675 45.8356 45.8356C45.8356 44.1038 44.4423 42.7105 42.7105 42.7105H23.9595Z" fill="#FFC107"/>
</g>
<defs>
<clipPath id="clip0_848_1853">
<rect width="66.67" height="66.67" fill="white"/>
</clipPath>
</defs>
</svg>
