<svg width="204" height="106" viewBox="0 0 204 106" fill="none" xmlns="http://www.w3.org/2000/svg">
<ellipse cx="101.561" cy="92.712" rx="101.51" ry="12.7525" fill="#E6F4FF"/>
<path d="M19.4344 90.8706L177.301 91.7378C177.301 91.7378 101.351 105.905 19.4344 90.8706Z" fill="#CCE0ED"/>
<path d="M149.882 16.8921H148.028V82.9342H149.882V16.8921Z" fill="#666666"/>
<path d="M161.096 22.8499H137.531L145.086 0.536133H153.623L161.096 22.8499Z" fill="#FCB211"/>
<path d="M146.463 3.20264L142.536 20.925C142.536 20.925 141.822 7.82202 146.463 3.20264Z" fill="#D39933"/>
<path d="M152.03 3.33301L156.985 20.7958C156.985 20.7958 156.932 7.67329 152.03 3.33301Z" fill="#D39933"/>
<path d="M148.94 1.55518L149.354 19.7026C149.354 19.7026 152.596 6.98706 148.94 1.55518Z" fill="#D39933"/>
<path d="M156.037 82.7454L154.923 92.164H152.278L151.782 82.6646L156.037 82.7454Z" fill="#7F4C28"/>
<path d="M40.9817 82.7454L42.0952 92.164H44.7405L45.236 82.6646L40.9817 82.7454Z" fill="#7F4C28"/>
<path d="M155.52 54.12L141.995 53.7451L142.527 69.7256L155.52 73.8212V54.12Z" fill="#325B6B"/>
<path d="M40.5065 53.9677L54.0319 53.5928L53.4996 69.5733L40.5065 73.6689V53.9677Z" fill="#325B6B"/>
<path d="M145.694 69.856L141.317 50.4731C139.681 43.2262 133.243 38.0796 125.813 38.0796H70.1975C62.6865 38.0796 56.2009 43.3372 54.6469 50.6855L50.5929 69.8557H145.694V69.856Z" fill="#00B4BE"/>
<path d="M144.185 69.1494H101.526H94.7288H52.0697C47.7115 69.1494 44.1784 72.3426 44.1784 76.2815V85.8144H94.7288H101.526H152.076V76.2815C152.076 72.3426 148.544 69.1494 144.185 69.1494Z" fill="#00B4BE"/>
<path d="M47.9207 85.9662V58.8274C47.9207 56.1433 45.7551 53.9673 43.0836 53.9673H41.1063C38.4348 53.9673 36.2692 56.1433 36.2692 58.8274V85.9662H47.9207Z" fill="#00B4BE"/>
<path d="M148.106 85.9665V58.9567C148.106 56.2852 150.272 54.1196 152.943 54.1196H154.92C157.592 54.1196 159.757 56.2852 159.757 58.9567V85.9665H148.106Z" fill="#00B4BE"/>
<path d="M42.095 62.8166C43.1379 62.8166 43.9834 61.9382 43.9834 60.8548C43.9834 59.7714 43.1379 58.8931 42.095 58.8931C41.0521 58.8931 40.2067 59.7714 40.2067 60.8548C40.2067 61.9382 41.0521 62.8166 42.095 62.8166Z" fill="#325B6B"/>
<path d="M42.4038 65.0493V80.819C42.4038 80.819 39.204 72.9342 42.4038 65.0493Z" fill="#325B6B"/>
<path d="M148.106 75.9287H47.921V85.9669H148.106V75.9287Z" fill="#00B4BE"/>
<path d="M78.6726 41.103V61.0505C78.6726 61.0505 74.625 51.0769 78.6726 41.103Z" fill="#325B6B"/>
<path d="M154.218 62.0753C155.261 62.0753 156.106 61.197 156.106 60.1136C156.106 59.0302 155.261 58.1519 154.218 58.1519C153.175 58.1519 152.33 59.0302 152.33 60.1136C152.33 61.197 153.175 62.0753 154.218 62.0753Z" fill="#325B6B"/>
<path d="M116.276 41.7354V61.6829C116.276 61.6829 120.323 51.7092 116.276 41.7354Z" fill="#325B6B"/>
<path d="M153.91 64.3081V80.0778C153.91 80.0778 157.109 72.193 153.91 64.3081Z" fill="#325B6B"/>
<path d="M49.614 80.0776H147.203C147.203 80.0776 113.833 84.3579 49.614 80.0776Z" fill="#325B6B"/>
<path d="M138.139 54.1164C138.139 54.1164 134.274 64.1994 134.442 65.8799C134.61 67.5604 135.786 69.606 136.57 69.6062L149.791 69.7055C149.791 69.7055 151.316 69.409 152.093 66.8883C152.871 64.3675 155.392 54.7888 155.392 54.5087C155.392 54.2285 155.728 52.6147 154.216 51.3771C152.703 50.1393 142.732 50.4459 140.828 51.0358C139.433 51.4678 138.888 52.1133 138.139 54.1164Z" fill="#DE8B2E"/>
<path d="M152.698 52.1558L147.854 68.4488C147.854 68.4488 154.691 59.4669 152.698 52.1558Z" fill="#BC7228"/>
<path d="M143.983 57.0903L149.313 52.3818C149.313 52.3818 144.479 54.2406 143.983 57.0903Z" fill="#BC7228"/>
<path d="M140.597 52.7534L141.794 56.8423C141.794 56.8423 139.647 54.8187 140.597 52.7534Z" fill="#BC7228"/>
<path d="M142.538 60.3022L144.93 66.3011C144.93 66.3011 145.264 61.6964 142.538 60.3022Z" fill="#BC7228"/>
<path d="M135.475 65.1858L140.596 60.5601C140.596 60.5601 136.095 61.9462 135.475 65.1858Z" fill="#BC7228"/>
<path d="M180.971 66.8008H169.933H169.719H158.681C157.744 66.8008 156.985 67.3016 156.985 67.9196C156.985 68.5376 157.744 69.0384 158.681 69.0384H169.17V90.3537C167.14 90.5672 164.552 90.9685 164.552 90.9685V92.2229H177.3V90.9685C177.3 90.9685 174.824 90.5762 172.856 90.3612V69.0387H180.971C181.908 69.0387 182.667 68.5379 182.667 67.9199C182.666 67.3019 181.908 66.8008 180.971 66.8008Z" fill="#A38260"/>
<path d="M169.56 69.0664H172.585C172.585 69.0664 170.958 70.4646 169.56 69.0664Z" fill="#8C6D51"/>
<path d="M163.441 60.7573V62.3266C163.441 63.3821 164.225 64.2523 165.241 64.3937V66.5625H164.466V66.8011H166.482V66.5625H165.707V64.407C166.778 64.3176 167.621 63.4211 167.621 62.3266V60.7573H163.441Z" fill="#787C91"/>
<path d="M68.7517 38.1596C68.7517 38.1596 66.1637 35.9665 67.0938 32.772C68.024 29.5775 72.3507 27.1109 77.5267 28.1217C82.7027 29.1327 86.8271 34.6105 87.2316 38.1594L68.7517 38.1596Z" fill="#E8AD3A"/>
<path d="M86.0565 30.9847C86.0565 30.9847 87.2951 29.7461 89.2961 29.7461L88.502 33.0174L86.0565 30.9847Z" fill="#9B6F17"/>
<path d="M83.1982 31.1043L81.7928 28.9844C81.7928 28.9844 79.5458 30.7946 80.3399 33.0178C81.1337 35.2408 83.1982 31.1043 83.1982 31.1043Z" fill="#9B6F17"/>
<path d="M80.8478 31.7792C80.8478 31.7792 78.053 33.8434 78.3388 36.0666C78.6246 38.2899 81.7054 38.693 86.0563 38.4756C90.4073 38.2581 89.7722 35.3363 89.6135 34.4787C89.4547 33.6211 86.3421 27.5235 80.8478 31.7792Z" fill="#E8AD3A"/>
<path d="M81.2358 33.2163C81.2358 33.2163 81.5304 34.167 82.781 34.2313C84.0314 34.2956 84.0124 33.314 84.0124 33.314C84.0124 33.314 82.7154 34.6791 81.2358 33.2163Z" fill="#9B6F17"/>
<path d="M83.0607 34.8914C83.0607 34.8914 83.7105 34.3519 84.856 34.528C86.0012 34.7041 86.3428 35.376 86.4199 35.6514C86.497 35.9267 86.0124 36.9949 84.5806 36.7747C83.1488 36.5543 82.3227 35.4862 83.0607 34.8914Z" fill="#FFD068"/>
<path d="M85.3646 33.3877C85.3646 33.3877 85.6592 34.3384 86.9098 34.4027C88.1602 34.467 88.1412 33.4854 88.1412 33.4854C88.1412 33.4854 86.8439 34.8507 85.3646 33.3877Z" fill="#9B6F17"/>
<path d="M84.3162 34.7375C84.3162 34.7375 84.944 34.6825 85.2082 34.8696C85.4723 35.0569 84.7015 35.5855 84.7015 35.5855C84.7015 35.5855 83.8425 34.9467 84.3162 34.7375Z" fill="#9B6F17"/>
<path d="M79.7987 32.7358C79.7987 32.7358 76.0841 36.1265 80.576 38.1592C80.576 38.1592 77.6027 36.4002 79.7987 32.7358Z" fill="#CC9533"/>
<path d="M73.7055 37.3814C76.6302 36.9662 77.4256 36.5324 77.8099 37.6848C78.1941 38.8373 71.1175 40.4735 68.752 38.1592C66.3866 35.845 66.9573 33.3726 66.9573 33.3726C66.9573 33.3726 68.2261 38.1592 73.7055 37.3814Z" fill="#9B6F17"/>
<path d="M100.301 58.3848C100.301 58.3848 99.5455 66.7977 101.814 69.5994L100.301 58.3848Z" fill="#47436D"/>
<path d="M65.9726 68.6419C65.9726 68.6419 64.6198 70.3416 62.6425 72.5883C62.6425 72.5883 62.6425 72.591 62.6399 72.5936C62.4718 72.7831 62.2983 72.9779 62.1222 73.1753C61.4471 73.9358 60.3958 73.9331 59.2458 73.5302C57.7809 73.0152 56.1532 71.8519 54.9338 70.7872C54.248 70.1868 53.6904 69.6185 53.3621 69.2156C53.3621 69.2129 53.3595 69.2129 53.3568 69.2102C52.7458 68.5672 52.583 67.4865 52.583 67.4865C52.2948 67.2437 52.1614 66.2858 53.2501 66.8648C53.6984 67.1049 54.8991 67.4518 56.1505 67.7773C56.1505 67.7773 56.1505 67.7773 56.1532 67.78C57.9383 68.2443 59.8328 68.6659 59.8328 68.6659C60.0409 68.7139 60.2491 68.794 60.4412 68.8847L62.1222 66.1523L65.9726 68.6419Z" fill="#C45B51"/>
<path d="M54.9337 70.7876C54.2479 70.1873 53.6902 69.6189 53.362 69.216C53.362 69.2133 53.3594 69.2133 53.3567 69.2106C52.7456 68.5676 52.5829 67.4869 52.5829 67.4869C52.2947 67.2441 52.1613 66.2862 53.25 66.8652C53.6982 67.1053 54.899 67.4522 56.1504 67.7778C56.1504 67.7778 56.1504 67.7778 56.1531 67.7804C56.1798 67.8818 56.7028 69.9284 54.9337 70.7876Z" fill="#A0433F"/>
<path d="M61.2145 67.6271C61.2145 67.6271 61.099 68.0655 61.7327 68.2766C62.3664 68.4879 62.6554 68.699 62.7667 68.9437C62.8779 69.1883 63.2891 69.5328 63.7006 69.5886C64.112 69.6441 64.6011 70.0222 64.5566 70.3613L64.8794 69.9755C64.8794 69.9755 64.8456 69.444 64.2009 69.2105C63.556 68.977 63.0557 68.7214 62.9334 68.4879C62.8112 68.2544 62.2885 67.8987 61.8995 67.8875C61.5104 67.8763 61.4258 67.2837 61.4258 67.2837L61.2145 67.6271Z" fill="#A0433F"/>
<path d="M61.3715 71.6681C61.3715 71.6681 61.8051 71.6513 62.0386 71.1678C62.272 70.6843 62.2221 70.4839 62.2221 70.4839C62.2221 70.4839 62.9557 71.8349 61.3715 71.6681Z" fill="#B25454"/>
<path d="M62.6422 72.5885C62.6422 72.5885 62.6422 72.5911 62.6395 72.5938C62.4714 72.7833 62.298 72.978 62.1219 73.1755C61.4468 73.936 60.3955 73.9333 59.2455 73.5304C59.2455 73.5304 59.9045 72.335 60.8865 72.2843C61.8711 72.2363 62.6422 72.5885 62.6422 72.5885Z" fill="#A0433F"/>
<path d="M53.3497 67.615L54.7506 67.8319C54.7506 67.8319 54.167 67.2147 53.3497 67.615Z" fill="#843131"/>
<path d="M132.582 62.5637C132.582 62.5637 126.254 73.4055 118.514 71.9804C110.775 70.5555 109.412 49.1196 109.412 49.1196H112.943C112.943 49.1196 116.164 61.5721 118.953 62.5634C121.74 63.5547 125.334 59.6571 125.334 59.6571C125.334 59.6571 130.785 57.6694 132.582 62.5637Z" fill="#E2B288"/>
<path d="M112.938 49.175C112.938 49.175 113.378 48.2608 113.666 46.7708C113.953 45.2808 112.629 43.9381 112.462 43.5574C112.296 43.1766 111.629 43.3668 112.129 45.0095C112.629 46.6518 111.415 45.5332 110.606 44.3667C109.796 43.2003 110.51 41.891 109.463 40.6294C108.416 39.3678 108.535 41.6767 108.701 42.4623C108.701 42.4623 108.13 42.7718 108.011 43.5096C107.892 44.2474 108.011 44.7173 108.011 44.7173C108.011 44.7173 107.63 45.1282 107.678 45.771C107.725 46.4135 107.892 46.5328 107.892 46.5328C107.892 46.5328 107.654 46.9136 107.821 47.7229C107.987 48.5322 109.677 50.9363 109.677 50.9363L112.938 49.175Z" fill="#E2B288"/>
<path d="M132.583 50.5264L130.097 53.358C130.097 53.358 134.546 56.0743 137.046 55.3872L141.431 50.2681C141.431 50.2681 134.415 51.9688 132.583 50.5264Z" fill="#E2B288"/>
<path d="M142.711 47.5699C142.138 46.7721 141.561 46.703 141.221 46.7542C141.969 44.0678 141.712 40.4946 136.392 38.5078C136.392 38.5078 134.488 39.2936 133.865 41.2479C133.243 43.2022 130.758 43.2526 130.758 43.2526C130.758 43.2526 129.966 46.798 128.951 48.7333C128.951 48.7333 130.638 51.1417 134.584 51.6004C138.53 52.0591 139.554 50.2585 139.554 50.2585C141.884 51.3269 143.601 48.8088 142.711 47.5699Z" fill="#F0CBA5"/>
<path d="M135.661 36.996C135.661 36.996 135.546 39.3393 138.142 41.1217C140.737 42.9041 140.766 42.7979 140.766 42.7979C140.766 42.7979 138.751 44.5761 139.217 46.2107C139.217 46.2107 138.315 47.4253 138.932 48.0052C138.932 48.0052 140.356 46.7436 141.447 46.7433C142.537 46.743 143.587 48.9196 141.431 50.2679C141.431 50.2679 140.013 50.5419 139.534 50.1932C139.534 50.1932 138.804 50.5881 138.739 51.181C138.727 51.2872 139.13 52.5568 139.47 52.5568C139.47 52.5568 142.381 51.5959 143.962 50.4066C145.542 49.2174 148.046 46.4079 146.756 44.0235C146.756 44.0235 146.501 40.0264 141.565 37.5358C136.628 35.0454 135.755 35.9028 135.661 36.996Z" fill="#3E3E44"/>
<path d="M102.736 57.026L49.3742 50.1079L47.7222 54.961C47.7222 54.961 84.2775 67.9643 94.062 68.3653C103.846 68.7661 102.736 57.026 102.736 57.026Z" fill="#063C50"/>
<path d="M130.097 53.3574C130.097 53.3574 135.313 55.3672 137.491 54.8672C137.491 54.8672 137.45 61.781 132.802 66.8063C128.153 71.8315 122.546 72.1728 113.006 72.0684C103.763 71.9676 103.345 71.4625 103.345 71.4625L102.104 57.0247L117.922 55.6823C117.922 55.6823 125.866 53.4858 130.097 53.3574Z" fill="#E76164"/>
<path d="M113.5 47.3506C113.5 47.3506 116.053 56.3866 124.386 56.5149C132.719 56.6435 139.553 50.2588 139.553 50.2588" stroke="white" stroke-width="1.0202" stroke-miterlimit="10" stroke-linecap="round"/>
<path d="M102.358 57.0037C102.358 57.0037 93.325 48.5814 84.5689 46.0593C75.8128 43.5372 61.2148 65.9465 61.2148 65.9465L66.5839 69.0351L82.8155 56.6741C82.8155 56.6741 88.2301 70.0405 103.345 71.4627L102.358 57.0037Z" fill="#063C50"/>
<path d="M133.865 61.5685C133.865 61.5685 127.537 72.4104 119.798 70.9853C112.058 69.5604 110.695 48.1245 110.695 48.1245H114.226C114.226 48.1245 117.448 60.577 120.236 61.5683C123.024 62.5595 126.617 58.6619 126.617 58.6619C126.617 58.6619 132.068 56.6743 133.865 61.5685Z" fill="#F0CBA5"/>
<path d="M122.528 59.9998L129.52 67.6408C129.52 67.6408 135.414 62.5513 134.794 60.2328C134.175 57.914 130.829 53.4739 122.528 59.9998Z" fill="#C45B51"/>
<path d="M113.16 45.862C112.885 45.9701 112.575 45.8348 112.466 45.56L108.624 35.7897C108.516 35.5146 108.651 35.204 108.926 35.0959C109.201 34.9876 109.511 35.1231 109.62 35.398L113.462 45.1683C113.571 45.4431 113.435 45.754 113.16 45.862Z" fill="#666666"/>
<path d="M114.221 48.1808C114.221 48.1808 114.661 47.2666 114.948 45.7767C115.236 44.2867 113.912 42.944 113.745 42.5632C113.578 42.1824 112.912 42.3727 113.412 44.0153C113.911 45.6577 112.698 44.5391 111.888 43.3725C111.079 42.2062 111.793 40.8969 110.746 39.6353C109.698 38.3737 109.817 40.6826 109.984 41.4681C109.984 41.4681 109.413 41.7777 109.294 42.5154C109.175 43.2535 109.294 43.7231 109.294 43.7231C109.294 43.7231 108.913 44.134 108.96 44.7768C109.008 45.4196 109.175 45.5386 109.175 45.5386C109.175 45.5386 108.937 45.9194 109.103 46.7287C109.27 47.538 110.96 49.9422 110.96 49.9422L114.221 48.1808Z" fill="#F0CBA5"/>
<path d="M140.483 48.2712C140.483 48.2712 139.946 48.7555 140.136 49.0188C140.325 49.2822 139.441 50.0085 139.441 50.0085C139.441 50.0085 139.586 50.2508 139.777 50.314C139.777 50.314 140.926 49.5138 141.052 48.8083C141.074 48.685 141.076 48.5844 141.065 48.5025C141.026 48.2309 140.702 48.1068 140.483 48.2712Z" fill="white"/>
<path d="M83.0889 52.6372V55.9278C83.0889 55.9278 84.8649 54.2481 83.0889 52.6372Z" fill="#47436D"/>
<path d="M120.498 62.0347L120.942 65.1726C120.942 65.1726 122.163 63.5951 120.498 62.0347Z" fill="#E2B288"/>
<path d="M49.2022 50.6543L48.4711 55.1825C48.4711 55.1825 46.3712 54.6275 43.5187 53.7202C43.5187 53.7202 43.5161 53.7202 43.5134 53.7202C43.2706 53.6402 43.0224 53.5601 42.7716 53.4801C41.803 53.1652 41.3841 52.202 41.2907 50.9879C41.1973 49.7418 41.4454 48.2288 41.7977 46.8787C41.883 46.5531 41.9738 46.2383 42.0672 45.9368C42.342 45.0669 42.6382 44.3278 42.8757 43.8662V43.8635C42.881 43.8128 42.8837 43.7648 42.889 43.7167C42.9771 42.5053 44.023 42.0944 44.1565 42.4706C44.2338 42.6948 44.2792 43.0897 44.3032 43.3752C44.4366 43.4419 44.5754 43.5299 44.6448 43.6393C44.7995 43.8822 45.1838 44.6613 45.2371 44.7947C45.2691 44.8748 45.2611 45.2644 45.2505 45.5579C45.2771 45.6539 45.2985 45.75 45.3145 45.8407C45.3145 45.8407 45.3145 45.8407 45.3118 45.8434C45.3679 46.1903 45.4266 46.5398 45.4853 46.8787C45.4906 46.9054 45.4959 46.9347 45.4986 46.9614C45.7441 48.3676 45.9789 49.571 45.9789 49.571C46.0189 49.7791 46.0296 50.0033 46.0243 50.2141L49.2022 50.6543Z" fill="#C45B51"/>
<path d="M47.4868 50.418C47.4868 50.418 47.039 50.4884 47.1004 51.1536C47.1618 51.8188 47.0846 52.1684 46.9053 52.3685C46.726 52.5686 46.5758 53.0839 46.6903 53.4828C46.8047 53.8817 46.6553 54.4818 46.3268 54.5773L46.8098 54.718C46.8098 54.718 47.2829 54.4733 47.2375 53.7891C47.1922 53.1047 47.225 52.5438 47.3896 52.3381C47.5543 52.1324 47.6701 51.5106 47.5236 51.1499C47.3774 50.7891 47.8859 50.4735 47.8859 50.4735L47.4868 50.418Z" fill="#A0433F"/>
<path d="M43.8503 52.186C43.8503 52.186 44.0397 52.5764 44.5766 52.5956C45.1132 52.6148 45.2765 52.4886 45.2765 52.4886C45.2765 52.4886 44.3343 53.7038 43.8503 52.186Z" fill="#B25454"/>
<path d="M43.5183 53.7193C43.5183 53.7193 43.5159 53.7204 43.5124 53.7191C43.2714 53.6414 43.0233 53.5609 42.7717 53.4789C41.8039 53.1665 41.3836 52.2029 41.2902 50.9878C41.2902 50.9878 42.6497 51.1105 43.0908 51.9895C43.5308 52.8716 43.5183 53.7193 43.5183 53.7193Z" fill="#A0433F"/>
<path d="M45.4986 46.9614C43.6481 45.8735 42.5547 46.563 41.7977 46.8787C41.8831 46.5531 41.9738 46.2383 42.0672 45.9368C42.342 45.0669 42.6382 44.3278 42.8757 43.8662V43.8635C42.881 43.8128 42.8837 43.7648 42.889 43.7167C42.9771 42.5053 44.023 42.0944 44.1565 42.4706C44.2338 42.6948 44.2792 43.0897 44.3032 43.3752C44.4366 43.4419 44.5754 43.5299 44.6448 43.6393C44.7995 43.8822 45.1838 44.6613 45.2371 44.7947C45.2691 44.8748 45.2611 45.2644 45.2505 45.5579C45.2771 45.6539 45.2985 45.75 45.3145 45.8407C45.3145 45.8407 45.3145 45.8407 45.3118 45.8434C45.3679 46.1903 45.4266 46.5398 45.4853 46.8787C45.4906 46.9054 45.4959 46.9347 45.4986 46.9614Z" fill="#A0433F"/>
<path d="M44.2777 43.6724V44.9844C44.2777 44.9844 44.7113 44.206 44.2777 43.6724Z" fill="#843131"/>
<path d="M65.3241 65.063L81.6841 53.3574C81.6841 53.3574 71.1167 62.3438 65.8079 65.1297C65.4071 65.34 65.4324 65.1297 65.3241 65.063Z" fill="#5D5984"/>
<path d="M82.2796 52.9669C82.2796 52.9669 82.6235 52.1442 83.2906 52.2331C83.9577 52.322 84.2024 52.7889 84.2024 52.7889L101.191 64.7963C101.191 64.7963 86.5817 53.552 84.4916 52.6368C84.4916 52.6368 83.0032 50.9432 82.2796 52.9669Z" fill="#5D5984"/>
<path d="M63.6563 63.396L68.8596 66.8648C68.8596 66.8648 64.657 65.7529 63.6563 63.396Z" fill="#5D5984"/>
<path d="M61.8999 65.8419L63.5454 63.8628C63.5454 63.8628 62.7892 65.9086 61.8999 65.8419Z" fill="#5D5984"/>
<path d="M64.0345 66.7757L65.0797 65.7529C65.0797 65.7529 64.9684 66.709 64.0345 66.7757Z" fill="#5D5984"/>
<path d="M65.9728 67.7543L67.4807 66.7759C67.4807 66.7759 67.3334 68.0212 65.9728 67.7543Z" fill="#5D5984"/>
<path d="M51.9604 51.0767L50.982 55.5023C50.982 55.5023 50.5889 51.5327 51.9604 51.0767Z" fill="#3A3859"/>
<path d="M49.6981 50.418L51.666 50.8382C51.666 50.8382 50.4818 51.2318 49.6981 50.418Z" fill="#3A3859"/>
<path d="M49.2022 52.5674L50.7819 52.949C50.7819 52.949 49.7906 53.413 49.2022 52.5674Z" fill="#3A3859"/>
<path d="M49.0141 54.5068L50.6818 54.9239C50.6818 54.9239 49.5478 55.1739 49.0141 54.5068Z" fill="#3A3859"/>
</svg>
