<svg width="24" height="24" viewBox="0 0 24 24" fill="none" xmlns="http://www.w3.org/2000/svg">
<path d="M10.1459 3.24799C10.2953 2.8787 10.5516 2.56244 10.8819 2.33976C11.2122 2.11707 11.6015 1.99811 11.9999 1.99811C12.3983 1.99811 12.7876 2.11707 13.1179 2.33976C13.4482 2.56244 13.7045 2.8787 13.8539 3.24799C15.3329 3.65422 16.6376 4.53497 17.5673 5.75485C18.497 6.97473 19.0003 8.4662 18.9999 9.99998V14.697L20.8319 17.445C20.9324 17.5956 20.9901 17.7706 20.9989 17.9515C21.0077 18.1323 20.9672 18.3121 20.8818 18.4718C20.7964 18.6314 20.6692 18.7648 20.5139 18.8579C20.3586 18.9509 20.181 19 19.9999 19H15.4649C15.3445 19.8331 14.928 20.5949 14.2916 21.1459C13.6552 21.6969 12.8417 22.0002 11.9999 22.0002C11.1581 22.0002 10.3446 21.6969 9.7082 21.1459C9.07184 20.5949 8.65531 19.8331 8.53491 19H3.99991C3.81886 19 3.64121 18.9509 3.4859 18.8579C3.33058 18.7648 3.20344 18.6314 3.11803 18.4718C3.03262 18.3121 2.99215 18.1323 3.00093 17.9515C3.00972 17.7706 3.06743 17.5956 3.16791 17.445L4.99991 14.697V9.99998C4.99991 6.77598 7.17991 4.05999 10.1459 3.24799ZM10.5859 19C10.6892 19.2926 10.8807 19.546 11.134 19.7253C11.3874 19.9045 11.6901 20.0008 12.0004 20.0008C12.3107 20.0008 12.6134 19.9045 12.8668 19.7253C13.1201 19.546 13.3116 19.2926 13.4149 19H10.5859ZM11.9999 4.99999C10.6738 4.99999 9.40205 5.52677 8.46437 6.46445C7.52669 7.40213 6.99991 8.6739 6.99991 9.99998V15C6.99995 15.1975 6.94149 15.3906 6.83191 15.555L5.86891 17H18.1299L17.1669 15.555C17.0577 15.3905 16.9996 15.1974 16.9999 15V9.99998C16.9999 8.6739 16.4731 7.40213 15.5354 6.46445C14.5978 5.52677 13.326 4.99999 11.9999 4.99999Z" fill="#2B3030"/>
</svg>
