<svg width="250" height="175" viewBox="0 0 250 175" fill="none" xmlns="http://www.w3.org/2000/svg">
<rect width="250" height="174.419" rx="15" fill="#00B4BE" fill-opacity="0.35"/>
<path d="M181.727 174.419H68.6269C56.2815 161.613 47.3878 144.518 43.0275 125.602C30.1083 69.5587 50.9386 53.5085 69.7294 56.2002C108.083 61.698 69.2174 36.4744 90.8283 19.2156C109.768 4.0846 146.631 10.5625 156.181 30.9068C169.654 59.5987 209.194 45.6668 212.967 90.6089C215.12 116.27 207.19 151.312 181.727 174.419Z" fill="#D4EDF4"/>
<path d="M167.785 40.6799C162.425 35.4288 158.08 27.6412 159.739 20.6595C161.74 12.2371 172.252 13.6167 177.49 16.9164C184.469 21.3129 188.986 32.5379 186.128 41.2143C184.296 46.7778 179.622 47.897 175.076 45.8773C172.736 44.8374 170.16 43.008 167.785 40.6799Z" fill="#D4EDF4"/>
<path d="M72.2819 164.559C70.4126 154.57 68.4121 144.567 65.0356 134.934C61.6591 125.302 56.8506 116 49.8586 108.274C57.9864 127.729 66.2043 147.541 67.9354 168.378" fill="#6FB4C4"/>
<path d="M70.1238 168.666C67.8408 148.797 55.7587 130.114 38.042 119.056C51.4821 133.117 61.2626 150.244 66.2999 168.541" fill="#6FB4C4"/>
<path d="M70.8113 163.879C64.2363 150.71 51.9221 140.169 37.3547 135.242C49.1645 144.409 59.0425 155.763 66.2543 168.46" fill="#6FB4C4"/>
<path d="M70.7816 164.978C63.7584 147.051 61.0597 127.643 62.9453 108.623C65.1189 128.267 68.3837 148.138 77.2786 166.033" fill="#9DD8E5"/>
<path d="M70.4817 158.44C65.2607 142.756 57.0014 127.97 46.2302 115.023C56.4028 131.406 64.1936 149.093 69.3183 167.439" fill="#9DD8E5"/>
<path d="M70.1608 161.52C66.2906 155.113 62.3915 148.688 57.5712 142.878C52.7508 137.069 46.9414 131.856 39.9775 128.472C52.2266 139.804 61.8579 153.622 68.018 168.7" fill="#9DD8E5"/>
<path d="M70.5924 165.822C63.9057 154.942 50.9832 147.693 37.6174 147.323C49.8547 151.349 60.5657 159.35 67.4992 169.644" fill="#9DD8E5"/>
<path d="M190.303 139.457C190.892 137.13 193.777 134.216 196.005 134.097C196.608 134.065 197.251 134.184 197.788 133.897C199.167 133.164 198.656 130.627 199.838 129.568C200.554 128.928 201.631 129.078 202.527 129.414C203.422 129.751 204.312 130.249 205.249 130.204C206.159 130.159 206.96 129.61 207.796 129.237C208.865 128.761 210.119 128.575 211.194 129.101C212.27 129.627 213.045 131.022 212.671 132.214C212.228 133.629 210.59 134.045 209.651 135.125C207.751 137.313 209.135 141.596 207.004 143.517C205.655 144.733 203.478 144.365 202.144 145.6C201.05 146.613 200.853 148.401 199.919 149.589C198.888 150.899 197.082 151.253 195.512 150.831C193.942 150.41 192.573 149.333 191.362 148.148C191.362 148.148 189.149 144.013 190.303 139.457Z" fill="#5BABBA"/>
<path d="M210.271 130.981C206.133 133.692 202.004 136.451 198.256 139.757C194.508 143.063 191.134 146.947 188.792 151.548" stroke="#9DD8E5" stroke-miterlimit="10" stroke-linecap="round" stroke-linejoin="round"/>
<path d="M201.75 136.907C201.709 135.062 201.381 133.217 200.783 131.474" stroke="#9DD8E5" stroke-miterlimit="10" stroke-linecap="round" stroke-linejoin="round"/>
<path d="M199.343 138.879C201.975 139.037 204.542 140.599 206.073 142.977" stroke="#9DD8E5" stroke-miterlimit="10" stroke-linecap="round" stroke-linejoin="round"/>
<path d="M206.231 133.646C207.307 133.505 208.419 133.63 209.46 134.007" stroke="#9DD8E5" stroke-miterlimit="10" stroke-linecap="round" stroke-linejoin="round"/>
<path d="M192.545 145.748C194.694 145.94 196.805 146.824 198.541 148.261" stroke="#9DD8E5" stroke-miterlimit="10" stroke-linecap="round" stroke-linejoin="round"/>
<path d="M193.762 144.325C193.684 142.01 193.252 139.699 192.489 137.515" stroke="#9DD8E5" stroke-miterlimit="10" stroke-linecap="round" stroke-linejoin="round"/>
<path d="M191.78 141.902C193.689 141.223 195.749 140.942 197.543 140.001C199.338 139.059 200.874 137.157 200.51 135.163C200.286 133.934 199.38 132.874 199.336 131.625C199.282 130.146 200.425 128.937 201.42 127.841C202.414 126.745 203.396 125.309 202.956 123.897C202.641 122.887 201.639 122.115 201.622 121.058C201.601 119.768 203.034 118.925 203.396 117.686C203.73 116.546 203.006 115.265 201.931 114.76C200.855 114.256 199.547 114.438 198.509 115.015C197.471 115.593 196.67 116.521 196.012 117.51C194.892 119.194 194.01 121.214 192.211 122.138C191.389 122.561 190.449 122.706 189.614 123.102C187.88 123.925 186.762 125.892 186.944 127.804C187.064 129.06 187.68 130.357 187.211 131.529C186.888 132.337 186.126 132.863 185.497 133.464C183.776 135.111 182.936 137.632 183.327 139.982C183.624 141.772 184.973 144.454 186.846 145.089C187.869 145.436 188.285 144.104 188.955 143.505C189.766 142.779 190.761 142.265 191.78 141.902Z" fill="#85C5D7"/>
<path d="M185.901 152.128C188.244 139.993 193.121 128.355 200.129 118.176" stroke="#9DD8E5" stroke-miterlimit="10" stroke-linecap="round"/>
<path d="M196.232 124.348C197.222 123.896 198.282 123.597 199.362 123.465" stroke="#9DD8E5" stroke-miterlimit="10" stroke-linecap="round"/>
<path d="M193.226 130.091C192.721 128.52 191.978 127.027 191.03 125.677" stroke="#9DD8E5" stroke-miterlimit="10" stroke-linecap="round"/>
<path d="M189.98 137.689C192.553 136.949 195.215 136.522 197.89 136.422" stroke="#9DD8E5" stroke-miterlimit="10" stroke-linecap="round"/>
<path d="M189.176 139.729C188.489 138.177 187.136 136.933 185.532 136.379" stroke="#9DD8E5" stroke-miterlimit="10" stroke-linecap="round"/>
<path d="M189.082 159.401C190.781 160.013 192.357 160.985 194.124 161.352C195.891 161.719 198.025 161.278 198.903 159.701C199.443 158.728 199.42 157.486 200.095 156.601C200.895 155.554 202.366 155.367 203.67 155.176C204.974 154.985 206.462 154.552 206.958 153.331C207.312 152.458 207.059 151.36 207.645 150.623C208.361 149.723 209.824 149.954 210.774 149.306C211.648 148.71 211.875 147.419 211.42 146.463C210.966 145.508 209.962 144.893 208.921 144.704C207.88 144.514 206.804 144.7 205.792 145.009C204.068 145.534 202.319 146.425 200.558 146.044C199.753 145.869 199.025 145.438 198.226 145.238C196.567 144.823 194.685 145.545 193.729 146.963C193.101 147.896 192.791 149.136 191.805 149.677C191.126 150.05 190.304 149.981 189.531 150.04C187.415 150.2 185.412 151.459 184.351 153.298C183.544 154.698 182.955 157.307 183.885 158.803C184.393 159.62 185.432 158.939 186.232 158.905C187.2 158.865 188.176 159.074 189.082 159.401Z" fill="#85C5D7"/>
<path d="M179.253 163.113C187.729 156.087 197.668 150.836 208.249 147.795" stroke="#9DD8E5" stroke-miterlimit="10" stroke-linecap="round"/>
<path d="M202.075 149.839C203.013 150.087 203.911 150.481 204.729 151.001" stroke="#9DD8E5" stroke-miterlimit="10" stroke-linecap="round"/>
<path d="M196.758 152.09C197.3 150.724 197.633 149.276 197.744 147.811" stroke="#9DD8E5" stroke-miterlimit="10" stroke-linecap="round"/>
<path d="M190.228 155.484C192.417 156.429 194.49 157.642 196.388 159.086" stroke="#9DD8E5" stroke-miterlimit="10" stroke-linecap="round"/>
<path d="M188.52 156.432C188.926 154.976 188.698 153.355 187.907 152.066" stroke="#9DD8E5" stroke-miterlimit="10" stroke-linecap="round"/>
<mask id="mask0_405_2009" style="mask-type:luminance" maskUnits="userSpaceOnUse" x="39" y="10" width="175" height="165">
<path d="M181.727 174.419H68.6269C56.2815 161.613 47.3878 144.518 43.0275 125.602C30.1083 69.5587 50.9386 53.5085 69.7294 56.2002C108.083 61.698 69.2174 36.4744 90.8283 19.2156C109.768 4.0846 146.631 10.5625 156.181 30.9068C169.654 59.5987 209.194 45.6668 212.967 90.6089C215.12 116.27 207.19 151.312 181.727 174.419Z" fill="white"/>
</mask>
<g mask="url(#mask0_405_2009)">
<path d="M141.885 155.943H110.684C108.266 155.943 106.306 153.983 106.306 151.565V135.496C106.306 133.078 108.266 131.117 110.684 131.117H141.885C144.303 131.117 146.264 133.078 146.264 135.496V151.565C146.264 153.983 144.304 155.943 141.885 155.943Z" fill="#01566D"/>
<path d="M144.067 136.994V150.069C144.067 152.56 142.049 154.578 139.558 154.578H113.014C111.917 154.578 110.912 154.189 110.129 153.54C109.133 152.707 108.5 151.463 108.5 150.069V136.994C108.5 134.503 110.522 132.48 113.014 132.48H139.558C141.605 132.48 143.334 133.85 143.883 135.717C144.004 136.123 144.067 136.55 144.067 136.994Z" fill="#F94B8A"/>
<path d="M144.067 136.994V150.069C144.067 152.56 142.049 154.578 139.558 154.578H113.014C111.917 154.578 110.912 154.189 110.129 153.54C110.007 153.134 109.94 152.703 109.94 152.255V139.179C109.94 136.688 111.962 134.67 114.454 134.67H140.998C142.095 134.67 143.1 135.064 143.883 135.717C144.004 136.123 144.067 136.55 144.067 136.994Z" fill="#F7376D"/>
<path d="M193.174 147.435H59.5935V196.051H193.174V147.435Z" fill="#01818E"/>
<path d="M193.174 149.339H59.5935V153.304H193.174V149.339Z" fill="#01566D"/>
<path d="M196.842 145.687H55.7275V149.339H196.842V145.687Z" fill="#00657C"/>
<path d="M171.802 143.952H138.914V145.692H171.802V143.952Z" fill="#75B3C8"/>
<path d="M188.247 143.952H155.358V145.692H188.247V143.952Z" fill="#448399"/>
<path d="M160.595 125.086H194.71L187.302 144.822H154.414L160.595 125.086Z" fill="#75B3C8"/>
<path d="M161.867 125.086H195.982L188.574 144.822H155.685L161.867 125.086Z" fill="#4A94A0"/>
<path d="M178.614 134.954C178.614 136.019 177.369 136.883 175.833 136.883C174.297 136.883 173.052 136.019 173.052 134.954C173.052 133.889 174.297 133.025 175.833 133.025C177.369 133.025 178.614 133.889 178.614 134.954Z" fill="#D3E8F9"/>
<path d="M73.7228 120.88H67.3091V145.687H73.7228V120.88Z" fill="#36A993"/>
<path d="M72.7622 123.896H68.2698V135.453H72.7622V123.896Z" fill="white"/>
<path d="M71.9629 125.085H69.0854V125.546H71.9629V125.085Z" fill="#063C50"/>
<path d="M71.9546 126.735H69.0771V127.196H71.9546V126.735Z" fill="#063C50"/>
<path d="M71.9546 128.385H69.0771V128.846H71.9546V128.385Z" fill="#063C50"/>
<path d="M71.9671 130.035H69.0896V130.496H71.9671V130.035Z" fill="#063C50"/>
<path d="M71.9588 131.686H69.0813V132.146H71.9588V131.686Z" fill="#063C50"/>
<path d="M71.9588 133.335H69.0813V133.796H71.9588V133.335Z" fill="#063C50"/>
<path d="M70.5163 144.25C71.6582 144.25 72.5839 143.324 72.5839 142.182C72.5839 141.04 71.6582 140.114 70.5163 140.114C69.3744 140.114 68.4487 141.04 68.4487 142.182C68.4487 143.324 69.3744 144.25 70.5163 144.25Z" fill="white"/>
<path d="M70.5164 143.649C71.3263 143.649 71.983 142.992 71.983 142.182C71.983 141.372 71.3263 140.715 70.5164 140.715C69.7064 140.715 69.0498 141.372 69.0498 142.182C69.0498 142.992 69.7064 143.649 70.5164 143.649Z" fill="#063C50"/>
<path d="M81.4227 120.88H75.009V145.687H81.4227V120.88Z" fill="#F7376D"/>
<path d="M80.4619 123.896H75.9695V135.453H80.4619V123.896Z" fill="white"/>
<path d="M79.6624 125.085H76.7849V125.546H79.6624V125.085Z" fill="#063C50"/>
<path d="M79.6543 126.735H76.7769V127.196H79.6543V126.735Z" fill="#063C50"/>
<path d="M79.6543 128.385H76.7769V128.846H79.6543V128.385Z" fill="#063C50"/>
<path d="M79.6668 130.035H76.7893V130.496H79.6668V130.035Z" fill="#063C50"/>
<path d="M79.6585 131.686H76.781V132.146H79.6585V131.686Z" fill="#063C50"/>
<path d="M79.6585 133.335H76.781V133.796H79.6585V133.335Z" fill="#063C50"/>
<path d="M78.216 144.25C79.3579 144.25 80.2836 143.324 80.2836 142.182C80.2836 141.04 79.3579 140.114 78.216 140.114C77.0741 140.114 76.1484 141.04 76.1484 142.182C76.1484 143.324 77.0741 144.25 78.216 144.25Z" fill="white"/>
<path d="M78.2161 143.649C79.0261 143.649 79.6827 142.992 79.6827 142.182C79.6827 141.372 79.0261 140.715 78.2161 140.715C77.4061 140.715 76.7495 141.372 76.7495 142.182C76.7495 142.992 77.4061 143.649 78.2161 143.649Z" fill="#063C50"/>
<path d="M89.1046 120.88H82.6909V145.687H89.1046V120.88Z" fill="#FCB211"/>
<path d="M88.1439 123.896H83.6511V135.453H88.1439V123.896Z" fill="white"/>
<path d="M87.3438 125.085H84.4663V125.546H87.3438V125.085Z" fill="#063C50"/>
<path d="M87.336 126.735H84.4585V127.196H87.336V126.735Z" fill="#063C50"/>
<path d="M87.336 128.385H84.4585V128.846H87.336V128.385Z" fill="#063C50"/>
<path d="M87.3482 130.035H84.4707V130.496H87.3482V130.035Z" fill="#063C50"/>
<path d="M87.3401 131.686H84.4626V132.146H87.3401V131.686Z" fill="#063C50"/>
<path d="M87.3401 133.335H84.4626V133.796H87.3401V133.335Z" fill="#063C50"/>
<path d="M85.8974 144.25C87.0393 144.25 87.965 143.324 87.965 142.182C87.965 141.04 87.0393 140.114 85.8974 140.114C84.7555 140.114 83.8298 141.04 83.8298 142.182C83.8298 143.324 84.7555 144.25 85.8974 144.25Z" fill="white"/>
<path d="M85.8975 143.649C86.7075 143.649 87.3641 142.992 87.3641 142.182C87.3641 141.372 86.7075 140.715 85.8975 140.715C85.0875 140.715 84.4309 141.372 84.4309 142.182C84.4309 142.992 85.0875 143.649 85.8975 143.649Z" fill="#063C50"/>
</g>
<path d="M148.951 47.2216C148.951 47.2216 151.05 53.9173 144.228 58.5186C144.228 58.5186 149.666 61.1738 152.978 60.1391C156.29 59.1045 162.427 53.7576 162.778 43.086L148.951 47.2216Z" fill="white"/>
<path d="M155.591 59.9474C157.708 59.0676 159.276 58.1707 160.618 56.4762C161.695 55.1145 162.778 52.8847 162.777 50.9228C161.427 54.6207 159.044 57.8306 155.591 59.9474Z" fill="white"/>
<path d="M150.852 61.2944C149.782 61.5651 148.701 61.8365 147.615 61.7776C146.727 61.7297 145.413 61.4708 144.797 60.4797C145.459 60.1948 146.899 61.1124 147.685 61.251C148.735 61.4367 149.8 61.4529 150.852 61.2944Z" fill="white"/>
<path d="M170.486 72.4167C170.276 72.2155 176.848 64.9274 176.848 64.9274C176.848 64.9274 183.397 70.5624 189.778 68.7232L187.474 80.1958C187.474 80.1958 178.808 80.3973 170.486 72.4167Z" fill="white"/>
<path d="M185.921 80.8537C185.921 80.8537 178.37 80.4067 171.757 74.8663C171.757 74.8663 176.136 81.4791 185.921 80.8537Z" fill="white"/>
<path d="M190.211 69.7278C190.211 69.7278 189.228 76.1175 188.513 78.7983C188.513 78.7983 190.524 76.0724 190.211 69.7278Z" fill="white"/>
<path d="M106.605 29.0042C106.605 29.0042 113.434 28.1602 115.279 24.0222C116.834 20.5331 117.427 18.3765 120.994 16.5922L132.629 20.0776C132.629 20.0776 127.368 22.7413 125.475 28.5556C123.887 33.432 117.551 34.7583 117.551 34.7583L106.605 29.0042Z" fill="white"/>
<path d="M129.91 23.491C129.91 23.491 126.763 26.5095 125.993 30.0839C125.224 33.6583 120.896 35.2643 120.896 35.2643C120.896 35.2643 125.473 34.9526 126.665 30.4708C127.858 25.9894 129.55 23.8925 129.91 23.491Z" fill="white"/>
<path d="M106.977 30.5793L115.069 34.7584C115.069 34.7584 109.829 33.4978 106.977 30.5793Z" fill="white"/>
<path d="M104.068 60.3204C104.068 60.3204 101.019 53.5268 107.634 47.8263C107.634 47.8263 101.572 45.7071 98.211 47.2107C94.8504 48.7142 89.0503 55.1149 90.0122 66.4045L104.068 60.3204Z" fill="white"/>
<path d="M96.7214 47.2497C96.7214 47.2497 89.3694 51.6051 89.2316 61.1649C89.2316 61.1649 87.2006 51.9257 96.7214 47.2497Z" fill="white"/>
<path d="M102.945 61.7712L92.8857 65.9555C92.8857 65.9555 98.6931 64.9433 102.945 61.7712Z" fill="white"/>
<path d="M57.4137 80.1356C57.1085 80.1109 57.6209 69.7835 57.6209 69.7835C57.6209 69.7835 66.7215 70.0232 70.7067 64.2723L76.4653 75.1751C76.4653 75.1751 69.5238 81.1101 57.4137 80.1356Z" fill="white"/>
<path d="M59.375 80.911C59.375 80.911 66.9517 81.8562 75.2091 77.0038C75.2091 77.0038 68.12 83.2362 59.375 80.911Z" fill="white"/>
<path d="M58.8733 68.7984C58.8733 68.7984 64.4088 69.0597 68.8475 65.2996C68.8475 65.2996 63.5209 68.3807 58.8733 68.7984Z" fill="white"/>
<path d="M158.185 109.47C158.185 109.47 155.983 114.49 147.024 116.616C138.378 118.664 126.54 116.779 125.722 116.646C124.904 116.781 113.07 118.69 104.42 116.66C95.456 114.552 93.2441 109.536 93.2441 109.536L97.5679 99.2941L112.79 100.473L114.27 98.7273L125.706 101.748L137.137 98.7041L138.621 100.447L153.934 99.2263L158.185 109.47Z" fill="#052C39"/>
<path d="M127.507 118.722C127.507 118.722 130.43 118.348 131.912 117.859" stroke="#AE3838" stroke-width="0.75" stroke-miterlimit="10" stroke-linecap="round"/>
<path d="M106.508 122.1C109.76 121.602 111.881 121.352 114.567 120.961C117.253 120.569 121.212 120.069 121.032 116.712C120.852 113.354 115.974 113.429 114.843 113.536C113.711 113.644 107.667 113.898 104.803 113.512C104.102 113.417 103.577 113.359 103.123 113.337C103.123 113.337 103.122 113.337 103.121 113.337C101.716 113.27 100.971 113.556 97.7692 114.226C93.5292 115.114 93.5661 117.164 93.5661 117.164C93.5661 117.164 93.4645 118.507 95.1363 119.581C95.1371 119.581 95.1371 119.581 95.138 119.582C95.4212 119.763 95.7552 119.937 96.1494 120.095C98.8716 121.188 103.257 122.597 106.508 122.1Z" fill="#F2F9F9"/>
<path d="M120.147 116.713C120.147 116.713 120.643 117.879 117.816 118.871C114.989 119.864 112.604 120.697 111.154 119.992C109.704 119.286 109.135 116.806 109.894 115.256C110.654 113.706 113.416 114.104 114.713 114.456C116.009 114.808 118.649 114.853 119.545 115.559C120.441 116.264 120.147 116.713 120.147 116.713Z" fill="#FFA78F"/>
<path d="M95.1356 119.58C93.5244 118.148 93.769 116.486 95.579 115.571C97.3694 114.666 102.993 113.366 103.12 113.336C101.715 113.27 100.971 113.555 97.7685 114.225C93.5284 115.113 93.5654 117.163 93.5654 117.163C93.5654 117.163 93.4634 118.507 95.1356 119.58Z" fill="#B2C9D8"/>
<path d="M108.06 118.773C107.987 118.773 107.916 118.738 107.873 118.673C107.834 118.613 106.919 117.195 107.796 115.78C107.861 115.675 107.999 115.643 108.104 115.708C108.209 115.773 108.241 115.911 108.177 116.016C107.452 117.184 108.214 118.377 108.247 118.427C108.314 118.53 108.285 118.668 108.182 118.736C108.144 118.762 108.102 118.773 108.06 118.773Z" fill="#212473"/>
<path d="M107.117 118.883C107.044 118.883 106.973 118.848 106.93 118.783C106.891 118.723 105.977 117.304 106.853 115.89C106.918 115.785 107.056 115.753 107.161 115.818C107.266 115.883 107.298 116.021 107.233 116.126C106.509 117.293 107.271 118.486 107.304 118.536C107.371 118.64 107.342 118.779 107.239 118.846C107.202 118.871 107.159 118.883 107.117 118.883Z" fill="#212473"/>
<path d="M106.174 118.884C106.101 118.884 106.03 118.849 105.987 118.783C105.948 118.724 105.034 117.305 105.91 115.891C105.975 115.786 106.113 115.754 106.218 115.819C106.323 115.884 106.356 116.022 106.291 116.127C105.567 117.294 106.328 118.487 106.361 118.537C106.429 118.64 106.4 118.779 106.297 118.847C106.259 118.872 106.216 118.884 106.174 118.884Z" fill="#212473"/>
<path d="M105.231 118.957C105.159 118.957 105.087 118.922 105.044 118.857C105.005 118.797 104.091 117.378 104.968 115.965C105.033 115.859 105.17 115.828 105.276 115.892C105.38 115.957 105.413 116.095 105.348 116.2C104.62 117.373 105.41 118.598 105.418 118.61C105.486 118.713 105.457 118.852 105.354 118.92C105.316 118.945 105.273 118.957 105.231 118.957Z" fill="#212473"/>
<path d="M118.275 119.656C116.572 119.768 115.186 119.828 114.364 119.854C113.841 119.872 113.551 119.88 113.551 119.88C113.551 119.88 111.935 118.731 111.645 114.542C111.645 114.542 112.774 114.149 114.543 113.536C114.927 113.405 115.335 113.265 115.773 113.113L117.43 113.314C117.43 113.314 118.823 116.431 119.052 117.392C119.179 117.927 118.721 118.893 118.275 119.656Z" fill="#FFA78F"/>
<path d="M118.275 119.656L114.364 119.854L114.543 113.537C114.927 113.406 115.335 113.266 115.773 113.114L117.43 113.315C117.43 113.315 118.823 116.432 119.052 117.393C119.179 117.927 118.721 118.893 118.275 119.656Z" fill="#F9867D"/>
<path d="M152.293 113.388C149.664 114.651 145.105 115.802 140.099 116.785C129.316 118.903 116.472 120.248 116.472 120.248L114.871 112.259L127.931 107.795L151.478 99.7505C151.478 99.7505 156.997 97.2835 158.861 102.891C160.725 108.499 157.356 110.96 152.293 113.388Z" fill="#043649"/>
<path d="M144.503 122.032C141.25 121.541 139.128 121.296 136.442 120.909C133.755 120.523 129.796 120.031 129.969 116.674C130.142 113.315 135.02 113.381 136.151 113.485C137.283 113.591 143.328 113.832 146.191 113.44C146.892 113.344 147.417 113.285 147.871 113.262C147.871 113.262 147.872 113.262 147.873 113.262C149.278 113.192 150.023 113.476 153.226 114.14C157.468 115.019 157.436 117.069 157.436 117.069C157.436 117.069 157.54 118.412 155.87 119.489C155.869 119.49 155.869 119.49 155.869 119.491C155.586 119.672 155.252 119.847 154.858 120.005C152.137 121.105 147.755 122.523 144.503 122.032Z" fill="#F2F9F9"/>
<path d="M130.852 116.672C130.852 116.672 130.359 117.839 133.187 118.826C136.016 119.813 138.403 120.641 139.852 119.933C141.3 119.224 141.864 116.743 141.102 115.195C140.339 113.647 137.577 114.05 136.282 114.404C134.986 114.759 132.346 114.809 131.452 115.517C130.557 116.225 130.852 116.672 130.852 116.672Z" fill="#FFA78F"/>
<path d="M155.87 119.489C157.478 118.054 157.23 116.392 155.418 115.481C153.626 114.58 148 113.292 147.872 113.262C149.278 113.193 150.022 113.477 153.226 114.14C157.468 115.02 157.435 117.07 157.435 117.07C157.435 117.07 157.54 118.413 155.87 119.489Z" fill="#B2C9D8"/>
<path d="M142.944 118.709C143.017 118.709 143.088 118.673 143.13 118.608C143.17 118.548 144.081 117.127 143.201 115.715C143.136 115.611 142.998 115.579 142.893 115.644C142.788 115.709 142.756 115.847 142.821 115.952C143.548 117.119 142.789 118.313 142.756 118.363C142.689 118.466 142.718 118.605 142.821 118.672C142.859 118.697 142.902 118.709 142.944 118.709Z" fill="#212473"/>
<path d="M143.887 118.816C143.96 118.816 144.031 118.781 144.073 118.716C144.113 118.655 145.024 117.235 144.145 115.823C144.079 115.718 143.941 115.687 143.836 115.752C143.731 115.817 143.699 115.955 143.765 116.06C144.491 117.226 143.732 118.421 143.699 118.471C143.632 118.574 143.661 118.713 143.764 118.78C143.802 118.805 143.845 118.816 143.887 118.816Z" fill="#212473"/>
<path d="M144.83 118.816C144.903 118.816 144.974 118.78 145.017 118.715C145.056 118.655 145.967 117.234 145.088 115.822C145.022 115.717 144.885 115.686 144.779 115.751C144.674 115.816 144.642 115.954 144.708 116.059C145.434 117.225 144.675 118.42 144.642 118.47C144.575 118.573 144.604 118.712 144.707 118.779C144.746 118.804 144.788 118.816 144.83 118.816Z" fill="#212473"/>
<path d="M145.772 118.887C145.845 118.887 145.917 118.851 145.959 118.786C145.998 118.726 146.91 117.305 146.03 115.893C145.965 115.789 145.827 115.757 145.722 115.822C145.617 115.887 145.585 116.025 145.65 116.13C146.38 117.302 145.593 118.528 145.585 118.54C145.518 118.644 145.546 118.783 145.649 118.85C145.688 118.875 145.731 118.887 145.772 118.887Z" fill="#212473"/>
<path d="M132.731 119.612C134.434 119.72 135.821 119.778 136.642 119.802C137.165 119.818 137.456 119.827 137.456 119.827C137.456 119.827 139.069 118.675 139.351 114.485C139.351 114.485 138.221 114.094 136.45 113.485C136.067 113.354 135.658 113.216 135.219 113.065L133.563 113.269C133.563 113.269 132.175 116.389 131.949 117.35C131.823 117.885 132.284 118.85 132.731 119.612Z" fill="#FFA78F"/>
<path d="M132.731 119.612L136.642 119.802L136.45 113.485C136.067 113.354 135.658 113.216 135.219 113.065L133.563 113.269C133.563 113.269 132.175 116.389 131.949 117.35C131.823 117.885 132.284 118.85 132.731 119.612Z" fill="#F9867D"/>
<path d="M134.537 120.202L136.12 112.207L99.4877 99.7765C99.4877 99.7765 93.9636 97.3188 92.1101 102.93C90.2567 108.541 93.6324 110.997 98.6985 113.415C107.002 117.377 134.537 120.202 134.537 120.202Z" fill="#063C50"/>
<path d="M166.912 90.0765L165.659 94.668C165.659 94.668 162.176 95.9029 155.652 97.0087C155.59 97.0172 155.524 97.0282 155.459 97.0387C151.948 97.6219 148.201 97.6723 145.45 97.5963L146.976 90.5922C148.927 90.393 151.6 90.3723 154.416 90.3906C159.058 90.4142 164.088 90.5336 166.912 90.0765Z" fill="#FFA78F"/>
<path d="M154.416 90.391L155.652 97.0091C155.59 97.0176 155.524 97.0286 155.458 97.0392C151.948 97.6223 148.201 97.6727 145.449 97.5967L146.975 90.5926C148.927 90.3934 151.599 90.3727 154.416 90.391Z" fill="#F9867D"/>
<path d="M164.659 94.996C164.659 94.996 165.839 94.757 166.606 94.8732C167.374 94.9895 170.177 94.7172 172.475 93.1185C174.773 91.5195 176.366 91.2208 177.043 90.5995C177.721 89.9781 176.292 89.6555 174.488 90.6105C173.131 91.3285 173.024 91.1769 173.024 91.1769C173.024 91.1769 175.211 89.6002 176.582 88.9334C177.953 88.2661 178.307 88.1324 178.439 87.8224C178.571 87.5123 177.584 86.8597 176.28 87.6375C174.976 88.4153 173.528 89.0732 172.976 89.4064C172.976 89.4064 174.39 88.4291 174.776 88.0853C175.163 87.7415 177.222 85.9425 177.542 85.6654C177.863 85.3878 178.008 85.1428 177.831 84.8925C177.687 84.6889 177.2 84.5629 176.109 85.4594C174.811 86.5265 172.065 88.1763 172.065 88.1763C172.065 88.1763 173.42 86.9926 173.24 85.7832C173.06 84.5739 169.973 83.5629 169.664 83.608C169.354 83.6531 169.4 84.3167 169.947 84.7433C170.494 85.17 171.542 85.6841 171.588 86.2002C171.633 86.7167 170.456 87.9293 169.954 88.078C169.453 88.2267 169.808 85.4569 169.726 84.9356C169.643 84.4142 168.94 83.6539 168.528 83.7725C168.115 83.8916 168.398 85.0567 168.37 85.7946C168.342 86.5326 167.843 87.7435 167.211 88.527C166.578 89.3105 166.166 89.9607 165.947 90.6844C165.727 91.4082 164.768 91.4841 164.768 91.4841L164.659 94.996Z" fill="#FFA78F"/>
<path d="M170.01 89.213C170.01 89.213 169.303 90.8413 168.116 91.5118" stroke="#AE3838" stroke-width="0.75" stroke-miterlimit="10" stroke-linecap="round"/>
<path d="M170.454 89.0037C170.454 89.0037 170.879 91.0574 171.561 91.8844" stroke="#AE3838" stroke-width="0.75" stroke-miterlimit="10" stroke-linecap="round"/>
<path d="M152.124 90.0916L152.385 97.8292C152.385 97.8292 145.45 98.3384 143.372 97.628C142.465 97.3184 141.272 94.6534 140.41 92.4668C139.544 90.2801 138.517 87.0991 138.517 87.0991L136.07 68.3087C136.07 68.3087 138.746 68.5867 140.97 70.8916C142.899 72.8905 146.328 88.1089 147.724 89.5352C148.557 90.3862 149.456 89.723 152.124 90.0916Z" fill="#F2F9F9"/>
<path d="M150.543 89.8563C150.543 89.8563 152.026 89.0651 153.472 89.8185L154.219 97.5703C154.219 97.5703 152.288 98.4672 151.319 98.0019L150.543 89.8563Z" fill="#C7D7E2"/>
<path d="M85.6621 90.1595L86.9247 94.7486C86.9247 94.7486 90.4101 95.9766 96.9367 97.0689C96.9989 97.0775 97.0647 97.088 97.1302 97.0986C100.642 97.6748 104.389 97.7175 107.14 97.6358L105.6 90.6349C103.649 90.4399 100.976 90.4244 98.1591 90.4488C93.5176 90.4809 88.4876 90.6106 85.6621 90.1595Z" fill="#FFA78F"/>
<path d="M98.1586 90.4484L96.9363 97.0689C96.9985 97.0774 97.0643 97.088 97.1297 97.0985C100.641 97.6748 104.388 97.7174 107.14 97.6357L105.6 90.6349C103.648 90.4394 100.976 90.4244 98.1586 90.4484Z" fill="#F9867D"/>
<path d="M87.9248 95.0741C87.9248 95.0741 86.7444 94.8376 85.9771 94.9554C85.2099 95.0732 82.4064 94.8067 80.1051 93.2125C77.8039 91.6183 76.2101 91.3229 75.5319 90.7028C74.8533 90.0827 76.2816 89.7576 78.0875 90.7085C79.4456 91.4237 79.5525 91.2717 79.5525 91.2717C79.5525 91.2717 77.3618 89.6995 75.9899 89.0355C74.618 88.3711 74.2636 88.2382 74.1312 87.9281C73.9983 87.6181 74.9837 86.9638 76.2894 87.7387C77.595 88.5137 79.0441 89.1692 79.5976 89.5012C79.5976 89.5012 78.1814 88.5267 77.7941 88.1837C77.4069 87.8403 75.3442 86.0458 75.0231 85.7695C74.7021 85.4928 74.5562 85.2481 74.7326 84.9974C74.876 84.7934 75.3633 84.6666 76.4556 85.5606C77.7555 86.6249 80.505 88.2695 80.505 88.2695C80.505 88.2695 79.1477 87.0886 79.3253 85.8788C79.5029 84.6691 82.5868 83.6519 82.8969 83.6962C83.2065 83.7405 83.1622 84.4045 82.6161 84.8324C82.0699 85.2603 81.0223 85.7764 80.9776 86.2929C80.9333 86.8094 82.1134 88.0195 82.6149 88.1675C83.1163 88.3154 82.7555 85.546 82.8371 85.0246C82.9188 84.5033 83.6194 83.7413 84.0327 83.8592C84.4459 83.9774 84.1651 85.1429 84.1944 85.8808C84.2237 86.6188 84.7251 87.8286 85.3595 88.6108C85.9938 89.3931 86.4067 90.0424 86.6277 90.7654C86.8488 91.4887 87.8078 91.5627 87.8078 91.5627L87.9248 95.0741Z" fill="#FFA78F"/>
<path d="M82.5625 89.302C82.5625 89.302 83.2736 90.9287 84.4619 91.5968" stroke="#AE3838" stroke-width="0.75" stroke-miterlimit="10" stroke-linecap="round"/>
<path d="M82.1179 89.0936C82.1179 89.0936 81.6969 91.1482 81.0171 91.9767" stroke="#AE3838" stroke-width="0.75" stroke-miterlimit="10" stroke-linecap="round"/>
<path d="M100.451 90.1444L100.205 97.8824C100.205 97.8824 107.141 98.3774 109.218 97.663C110.124 97.3513 111.311 94.6839 112.168 92.4956C113.03 90.3074 114.051 87.1243 114.051 87.1243L116.46 68.3291C116.46 68.3291 114.055 67.9877 111.835 70.2971C109.909 72.3001 106.242 88.15 104.849 89.5792C104.018 90.4313 103.117 89.7701 100.451 90.1444Z" fill="#F2F9F9"/>
<path d="M102.031 89.9054C102.031 89.9054 100.547 89.1175 99.1019 89.8737L98.3708 97.6272C98.3708 97.6272 100.304 98.5204 101.271 98.0531L102.031 89.9054Z" fill="#C7D7E2"/>
<path d="M130.973 69.5473L125.628 74.7951L120.268 69.5583C120.898 68.6427 121.311 67.6118 121.579 66.6219C122.178 64.4108 122.057 62.4095 122.057 62.4095L129.17 62.4022C129.17 62.4022 129.104 63.5371 129.333 65.0419C129.536 66.4272 129.989 68.1295 130.973 69.5473Z" fill="#FFA78F"/>
<path d="M129.333 65.0423C127.866 65.7795 125.242 66.7231 121.579 66.6223C122.178 64.4113 122.057 62.4099 122.057 62.4099L129.17 62.4026C129.17 62.4026 129.103 63.5376 129.333 65.0423Z" fill="#F9867D"/>
<path d="M136.635 55.7215C137.12 56.6879 136.419 58.0199 135.07 58.6961C133.722 59.3723 132.235 59.137 131.751 58.1707C131.266 57.204 131.967 55.8723 133.316 55.1961C134.664 54.5195 136.151 54.7552 136.635 55.7215Z" fill="#F9867D"/>
<path d="M114.552 55.891C114.082 56.8646 114.803 58.1857 116.162 58.8412C117.521 59.4967 119.004 59.2386 119.474 58.2646C119.943 57.2909 119.222 55.9698 117.863 55.3143C116.504 54.6589 115.022 54.9169 114.552 55.891Z" fill="#F9867D"/>
<path d="M134.009 55.0051C134.049 60.1977 130.324 64.9534 125.778 64.9883C121.232 65.0233 117.586 60.3241 117.546 55.1315C117.507 49.939 121.159 45.7014 125.705 45.6668C130.252 45.6319 133.969 49.813 134.009 55.0051Z" fill="#FFA78F"/>
<path d="M118.436 54.2074C118.436 54.2074 118.872 52.9615 119.213 52.343L121.141 52.0639C121.141 52.0639 121.128 52.8494 122.364 52.8904C123.6 52.9319 129.182 52.3861 131.696 51.6591C131.696 51.6591 132.903 52.8181 133.056 53.7104C133.056 53.7104 134.085 51.8948 133.053 50.683C132.02 49.4712 129.632 47.0302 128.921 47.031C128.21 47.0318 121.559 47.0383 121.559 47.0383C121.559 47.0383 119.121 50.0527 118.894 50.1096C118.667 50.1669 118.432 50.8045 118.432 50.8045L117.627 53.7259L118.436 54.2074Z" fill="#F9867D"/>
<path d="M118.189 58.6551C118.189 58.6551 117.852 54.4285 119.382 50.8781L119.057 46.217C119.057 46.217 113.805 48.9324 118.189 58.6551Z" fill="#072D38"/>
<path d="M133.401 58.6398C133.401 58.6398 133.73 54.4123 132.192 50.8652C132.192 50.8652 128.071 51.8937 124.16 52.1379C120.233 52.3821 123.017 51.0305 123.35 50.866C123.072 50.9676 120.624 51.8043 118.424 51.6633H118.42C118.395 51.6633 118.365 51.6633 118.34 51.6592C117.994 51.6344 117.661 51.584 117.341 51.5044C117.181 51.4625 117.038 51.4162 116.907 51.3573C116.903 51.3573 116.903 51.3573 116.903 51.3573C116.561 51.2061 116.266 51.0082 116.021 50.7977C115.178 50.078 114.869 49.1763 114.869 49.1763C115.648 48.3242 116.288 47.4765 116.658 46.962C116.666 46.9494 116.674 46.9368 116.683 46.9242C116.817 46.7385 116.91 46.5995 116.96 46.5235C116.99 46.4858 117.003 46.4646 117.003 46.4646C117.714 45.4946 118.884 44.2711 120.717 43.2913C124.31 41.37 130.886 42.3705 132.508 46.2041C132.508 46.2033 137.766 48.9081 133.401 58.6398Z" fill="#072D38"/>
<path d="M132.508 46.2032C132.508 46.2032 129.07 43.1173 125.412 43.1717C121.753 43.2262 118.835 45.4206 117.623 47.0444C116.411 48.6642 115.565 49.4826 115.565 49.4826C115.573 49.9166 116.021 50.7972 116.021 50.7972C115.177 50.0775 114.868 49.1758 114.868 49.1758C115.647 48.3236 116.287 47.476 116.657 46.9615C116.666 46.9489 116.674 46.9363 116.682 46.9237C116.817 46.738 116.91 46.599 116.96 46.523C116.99 46.4852 117.002 46.4641 117.002 46.4641C117.713 45.4941 118.884 44.2705 120.716 43.2908C124.31 41.3691 130.885 42.3696 132.508 46.2032Z" fill="#0F5C60"/>
<path d="M139.158 100.118C139.715 100.939 135.933 103.164 125.672 104.308H125.663C125.528 104.292 125.393 104.279 125.258 104.262C125.115 104.246 124.976 104.229 124.837 104.216C115.197 103.063 111.629 100.947 112.164 100.145C112.488 99.6607 112.635 99.0491 112.697 98.6277C112.697 98.5728 112.693 98.5225 112.693 98.4676C112.658 97.4939 112.585 96.3943 112.487 95.2098C112.035 89.5755 111.066 82.024 111.158 77.1813C111.286 70.3958 111.963 69.0337 115.157 68.3311C116.657 68.0007 119.055 67.8426 121.179 67.7601C121.179 67.7601 122.295 71.2614 125.616 71.2577C128.938 71.2545 130.047 67.7508 130.047 67.7508C130.557 67.7711 131.075 67.7918 131.598 67.8211C133.267 67.9121 134.928 68.0621 136.07 68.3095C139.265 69.0061 139.945 70.3666 140.087 77.1517C140.105 78.1294 139.372 86.8626 138.923 93.1093C138.761 95.3682 138.636 97.303 138.595 98.4282C138.647 98.8455 138.787 99.566 139.158 100.118Z" fill="#F2F9F9"/>
<path d="M112.166 92.049C111.639 86.7277 111.268 81.3909 111.054 76.0475" stroke="#C7D7E2" stroke-miterlimit="10" stroke-linecap="round" stroke-linejoin="round"/>
<path d="M109.355 81.4624C109.962 82.4348 110.653 83.3548 111.417 84.2086" stroke="#C7D7E2" stroke-miterlimit="10" stroke-linecap="round" stroke-linejoin="round"/>
<path d="M139.145 88.8582C139.145 84.3651 139.323 79.776 139.323 75.2828" stroke="#C7D7E2" stroke-miterlimit="10" stroke-linecap="round" stroke-linejoin="round"/>
<path d="M139.198 83.8494C140.013 83.1459 140.72 82.3182 141.288 81.4034" stroke="#C7D7E2" stroke-miterlimit="10" stroke-linecap="round" stroke-linejoin="round"/>
<path d="M125.671 104.308H125.663C115.399 103.185 111.612 100.968 112.164 100.145C112.488 99.6603 112.635 99.0487 112.697 98.6273C112.697 98.5724 112.693 98.522 112.693 98.4672C114.22 99.8354 117.712 101.673 125.255 101.076C136.899 100.154 138.923 93.1093 138.923 93.1093C138.761 95.3682 138.637 97.303 138.596 98.4282C138.646 98.8455 138.787 99.566 139.158 100.118C139.715 100.939 135.933 103.164 125.671 104.308Z" fill="#D3E3EA"/>
<path d="M124.544 72.8486C124.544 72.8486 123.875 79.2278 126.379 82.18C128.882 85.1323 131.04 87.7671 130.99 94.4072L134.53 96.1785C134.53 96.1785 134.162 87.2255 130.408 83.8928C126.654 80.5602 126.169 78.0607 125.926 77.2654C125.684 76.4702 125.455 73.3448 125.455 73.3448L124.544 72.8486Z" fill="#C1D7E5"/>
<path d="M125.226 72.8466L125.259 104.262C125.115 104.245 124.976 104.229 124.837 104.216L124.805 72.847L125.226 72.8466Z" fill="#AEC6D6"/>
<path d="M126.827 83.224C126.827 83.4711 126.627 83.6718 126.38 83.6718C126.133 83.6722 125.932 83.4719 125.932 83.2248C125.932 82.9777 126.132 82.777 126.379 82.777C126.626 82.7766 126.827 82.9769 126.827 83.224Z" fill="#AEC6D6"/>
<path d="M126.832 88.4718C126.833 88.7189 126.632 88.9196 126.385 88.9196C126.138 88.92 125.938 88.7197 125.938 88.4726C125.937 88.2255 126.137 88.0248 126.385 88.0248C126.632 88.0244 126.832 88.2243 126.832 88.4718Z" fill="#AEC6D6"/>
<path d="M126.837 93.5701C126.838 93.8171 126.638 94.0179 126.39 94.0179C126.143 94.0183 125.943 93.8179 125.943 93.5709C125.942 93.3238 126.143 93.123 126.39 93.123C126.637 93.123 126.837 93.323 126.837 93.5701Z" fill="#AEC6D6"/>
<path d="M126.843 98.6683C126.843 98.9154 126.643 99.1161 126.396 99.1161C126.149 99.1165 125.948 98.9162 125.948 98.6691C125.948 98.4221 126.148 98.2213 126.395 98.2213C126.642 98.2209 126.843 98.4212 126.843 98.6683Z" fill="#AEC6D6"/>
<path d="M135.697 88.9046C134.785 85.78 129.298 82.5181 127.818 80.0478C126.749 78.2639 126.376 75.3023 126.251 73.7938L127.877 72.1639L125.613 71.2662L123.351 72.1688L125.021 73.8349C124.884 81.9984 129.051 83.3552 130.694 86.5801C132.402 89.931 132.35 94.4775 132.35 94.4775L134.966 96.5207L136.555 93.9049C136.555 93.9049 136.61 92.0291 135.697 88.9046Z" fill="#0D939C"/>
<path d="M130.048 67.7516C130.048 67.7516 128.763 70.3909 125.616 71.2585C125.616 71.2585 126.947 72.8035 129.333 72.8434C131.718 72.8836 130.963 67.7504 130.963 67.7504L130.048 67.7516Z" fill="#C7D7E2"/>
<path d="M121.174 67.7606C121.174 67.7606 122.465 70.3975 125.614 71.2586C125.614 71.2586 124.285 72.806 121.9 72.8511C119.514 72.8962 120.259 67.7618 120.259 67.7618L121.174 67.7606Z" fill="#C7D7E2"/>
</svg>
