<svg width="36" height="36" viewBox="0 0 36 36" fill="none" xmlns="http://www.w3.org/2000/svg">
<path d="M18 2.25C22.1772 2.25 26.1832 3.90937 29.1369 6.86307C32.0906 9.81677 33.75 13.8228 33.75 18C33.75 22.1772 32.0906 26.1832 29.1369 29.1369C26.1832 32.0906 22.1772 33.75 18 33.75C13.8228 33.75 9.81677 32.0906 6.86307 29.1369C3.90937 26.1832 2.25 22.1772 2.25 18C2.25 13.8228 3.90937 9.81677 6.86307 6.86307C9.81677 3.90937 13.8228 2.25 18 2.25ZM18 9C17.7143 8.99974 17.4318 9.05907 17.1703 9.1742C16.9089 9.28932 16.6743 9.45771 16.4816 9.6686C16.289 9.8795 16.1424 10.1283 16.0513 10.399C15.9602 10.6698 15.9265 10.9565 15.9525 11.241L16.7738 20.2545C16.8056 20.5575 16.9485 20.8381 17.1749 21.0419C17.4014 21.2458 17.6953 21.3587 18 21.3587C18.3047 21.3587 18.5986 21.2458 18.8251 21.0419C19.0515 20.8381 19.1944 20.5575 19.2262 20.2545L20.0452 11.241C20.0712 10.9567 20.0376 10.6701 19.9467 10.3995C19.8557 10.129 19.7093 9.88029 19.5169 9.66943C19.3244 9.45857 19.0901 9.29014 18.829 9.17488C18.5678 9.05962 18.2855 9.00006 18 9ZM18 27C18.4774 27 18.9352 26.8104 19.2728 26.4728C19.6104 26.1352 19.8 25.6774 19.8 25.2C19.8 24.7226 19.6104 24.2648 19.2728 23.9272C18.9352 23.5896 18.4774 23.4 18 23.4C17.5226 23.4 17.0648 23.5896 16.7272 23.9272C16.3896 24.2648 16.2 24.7226 16.2 25.2C16.2 25.6774 16.3896 26.1352 16.7272 26.4728C17.0648 26.8104 17.5226 27 18 27Z" fill="#FFC107"/>
</svg>
