<svg width="85" height="74" viewBox="0 0 85 74" fill="none" xmlns="http://www.w3.org/2000/svg">
<path fill-rule="evenodd" clip-rule="evenodd" d="M5.15063 3.00531L81.719 5.41142L78.6564 50.6964L6.02934 49.9197L5.15063 3.00531Z" fill="#DADEE9"/>
<path fill-rule="evenodd" clip-rule="evenodd" d="M44.3683 73.3506C66.7475 73.3506 85 71.7171 85 69.7149C85 67.7128 66.7475 66.0795 44.3683 66.0795C21.9896 66.0795 3.73682 67.7126 3.73682 69.7149C3.73682 71.7173 21.9896 73.3506 44.3683 73.3506Z" fill="#D6DAE6"/>
<path fill-rule="evenodd" clip-rule="evenodd" d="M18.3948 31.5434L15.9602 53.5323C15.9602 53.5323 17.4819 54.1412 17.7102 53.3801C17.9386 52.6195 19.1179 31.7717 19.1179 31.7717L18.3948 31.5434Z" fill="#96C042"/>
<path fill-rule="evenodd" clip-rule="evenodd" d="M17.3231 28.0142C16.7244 26.7834 17.0819 24.1058 20.1901 25.1175C20.048 25.9062 19.9268 26.9898 20.1724 27.6147C20.4871 28.4162 20.7595 26.8148 21.5142 25.6937C21.5779 25.7274 21.6422 25.7622 21.7076 25.7984C24.9266 27.5807 26.5822 32.2384 27.1312 36.287C26.4473 36.609 25.7941 37.0523 26.0307 37.506C26.2166 37.8615 26.7416 37.966 27.2992 37.9643C27.362 38.9421 27.3561 39.8474 27.2889 40.6205C27.2889 40.6205 21.1088 40.4653 16.4282 38.6504C16.6818 37.8806 16.9795 36.7171 16.3866 36.8974C15.848 37.0614 15.4392 37.6721 15.2046 38.1176C13.253 37.1632 11.7424 35.8473 11.3689 34.0327C10.0877 27.8114 17.3231 28.0142 17.3231 28.0142ZM17.8706 36.4599C17.7374 37.5252 19.3352 35.9082 18.8026 35.5089C18.2701 35.1096 17.8706 36.4599 17.8706 36.4599Z" fill="#96C042"/>
<path fill-rule="evenodd" clip-rule="evenodd" d="M9.86353 27.7426C9.86353 27.7426 0.832557 22.2884 0.527919 29.0052C0.50515 29.5046 0.520751 30.0096 0.567132 30.5168C1.87064 30.0496 3.87851 29.4722 4.21435 30.2046C4.59826 31.0422 2.20416 32.4395 1.0419 33.058C1.93136 36.3081 3.76994 39.3943 5.10507 41.3516C5.39221 41.1226 5.69748 40.9362 5.8927 40.9797C6.15939 41.0389 5.88996 41.5868 5.58153 42.034C6.2296 42.9405 6.67232 43.4726 6.67232 43.4726C6.67232 43.4726 11.2891 42.0983 14.3717 38.5384C13.5204 37.8612 12.074 36.5699 12.4084 35.8512C12.7488 35.1188 14.5872 36.2467 15.5589 36.9123C16.4768 35.395 17.0808 33.5767 17.0772 31.4164C17.0766 31.0148 17.0608 30.6431 17.0325 30.2971C16.3912 30.4451 15.71 30.517 15.5907 30.1963C15.4214 29.7416 16.2906 29.3018 16.8512 29.0482C15.6306 23.5122 9.86353 27.7426 9.86353 27.7426ZM3.97064 32.7228C3.97064 32.7228 5.02433 31.8616 5.42868 32.2491C5.83283 32.6366 3.49207 33.6844 3.97064 32.7228Z" fill="white"/>
<path fill-rule="evenodd" clip-rule="evenodd" d="M11.1289 29.8696L13.7157 54.2174H12.194L10.2917 29.7935L11.1289 29.8696Z" fill="#AEC755"/>
<path fill-rule="evenodd" clip-rule="evenodd" d="M9.27827 27.9367C9.27827 27.9367 0 22.43 0 29.2118C0 29.7158 0.0383698 30.2258 0.107941 30.7377C1.38995 30.2661 3.3721 29.6832 3.74082 30.4227C4.16268 31.2685 1.83225 32.6791 0.697821 33.3036C1.73485 36.585 3.71342 39.7012 5.13689 41.677C5.41327 41.4457 5.71032 41.2577 5.90765 41.3018C6.17687 41.3616 5.93232 41.9148 5.64433 42.3662C6.33351 43.2814 6.80027 43.8185 6.80027 43.8185C6.80027 43.8185 11.3549 42.4311 14.2758 38.8366C13.3941 38.1529 11.8889 36.8492 12.1906 36.1235C12.4979 35.3844 14.3875 36.5231 15.3894 37.1952C16.2386 35.6633 16.7601 33.8271 16.6585 31.6463C16.6395 31.2409 16.6069 30.8654 16.563 30.5161C15.9282 30.6656 15.2504 30.7383 15.1163 30.4143C14.9266 29.9551 15.7758 29.5111 16.3248 29.255C14.8535 23.6657 9.27827 27.9367 9.27827 27.9367ZM3.61117 32.965C3.61117 32.965 4.62585 32.0954 5.0475 32.4867C5.46977 32.8782 3.17645 33.9358 3.61117 32.965Z" fill="#BDD95B"/>
<path fill-rule="evenodd" clip-rule="evenodd" d="M16.1706 30.2545C16.0437 30.2203 15.9509 30.1583 15.9098 30.0588C15.8192 29.8394 15.9659 29.6235 16.2035 29.4297C16.1607 27.7014 15.3155 25.862 11.3135 27.6101C11.3135 27.6101 15.5742 25.5938 15.9166 31.6427C15.9166 31.6427 16.0937 31.0347 16.1706 30.2545Z" fill="#D6EB86"/>
<path fill-rule="evenodd" clip-rule="evenodd" d="M0.247559 28.2306C0.247559 28.2306 1.20933 26.8782 4.12436 26.4275C4.12436 26.4275 0.728443 25.5859 0.247559 28.2306Z" fill="#D6EB86"/>
<path fill-rule="evenodd" clip-rule="evenodd" d="M10.4493 38.2867C10.6154 38.3069 10.8081 38.4574 10.8794 38.6229C10.9509 38.7882 10.8739 38.9059 10.708 38.8856C10.5417 38.8652 10.3492 38.7146 10.2779 38.5494C10.206 38.3839 10.283 38.2662 10.4493 38.2867Z" fill="#D6EB86"/>
<path fill-rule="evenodd" clip-rule="evenodd" d="M9.59348 34.6492C9.83065 34.5117 10.3107 34.7723 10.6657 35.2311C11.021 35.6896 11.1165 36.1726 10.8791 36.31C10.6419 36.4473 10.1619 36.1869 9.80683 35.7282C9.4518 35.2696 9.3563 34.7862 9.59348 34.6492Z" fill="#D6EB86"/>
<path fill-rule="evenodd" clip-rule="evenodd" d="M5.54648 36.2478C5.43433 36.1831 5.20748 36.3062 5.03967 36.5227C4.87227 36.7394 4.82695 36.9677 4.93889 37.0325C5.05105 37.0974 5.2779 36.9745 5.44571 36.7578C5.61352 36.541 5.65843 36.3127 5.54648 36.2478Z" fill="#D6EB86"/>
<path fill-rule="evenodd" clip-rule="evenodd" d="M22.2297 54.2695L20.3131 69.4523H6.91113L5.02701 54.0884C4.9897 53.7851 5.07614 53.5093 5.28021 53.2814C5.48408 53.0537 5.74866 52.9376 6.05435 52.9409L21.2264 53.1182C21.5285 53.122 21.7871 53.2416 21.9859 53.469C22.1843 53.6971 22.2674 53.97 22.2297 54.2695Z" fill="#D6DAE6"/>
<path fill-rule="evenodd" clip-rule="evenodd" d="M8.59123 51.8239C8.95891 51.8239 9.29664 51.9243 9.56186 52.091C10.3191 51.3597 11.75 50.8666 13.3902 50.8666C15.6938 50.8666 17.5838 51.8391 17.7763 53.0781L7.04907 52.9527C7.09862 52.3227 7.77008 51.8239 8.59123 51.8239ZM19.5432 52.3594C20.0717 52.3594 20.5001 52.69 20.5001 53.0979L20.4999 53.1101L18.5863 53.0876C18.5933 52.6845 19.0191 52.3594 19.5432 52.3594Z" fill="#96C042"/>
<path fill-rule="evenodd" clip-rule="evenodd" d="M9.7824 51.0033L9.96708 50.3573C10.0824 49.9536 9.84691 49.5294 9.44319 49.4141L8.79744 49.2292C8.72492 49.2085 8.64923 49.2507 8.62836 49.3232L8.44368 49.969C8.32815 50.3725 8.56385 50.7969 8.96715 50.9124L9.61311 51.0971C9.68606 51.1179 9.76153 51.0758 9.7824 51.0033Z" fill="#96C042"/>
<path fill-rule="evenodd" clip-rule="evenodd" d="M61.6433 37.2539H59.9645H59.4476H57.2822H56.7653H55.0863V36.4705H56.7653V33.161H52.0068V32.0672L56.7653 32.0367V30.4821H57.2822V32.0335L59.4476 32.0194V30.8649H59.9645V32.016L64.7228 31.9854V33.1612H59.9645V36.4707H61.6433V37.2539ZM57.2822 33.1608V36.4702H59.4476V33.1608H57.2822Z" fill="#3A3C6C"/>
<path fill-rule="evenodd" clip-rule="evenodd" d="M56.5963 7.78284H61.9114C62.7557 7.78284 63.4459 8.47307 63.4459 9.31741C63.4459 10.1618 62.7557 10.852 61.9114 10.852H56.5963C55.752 10.852 55.0618 10.1618 55.0618 9.31741C55.0618 8.47307 55.752 7.78284 56.5963 7.78284Z" fill="#232446"/>
<path fill-rule="evenodd" clip-rule="evenodd" d="M40.1374 9.18787H76.5925C77.1486 9.18787 77.6034 9.64261 77.6034 10.1988V31.6823C77.6034 32.2385 77.1486 32.6932 76.5925 32.6932H40.1374C39.5812 32.6932 39.1265 32.2385 39.1265 31.6823V10.1988C39.1263 9.64261 39.5812 9.18787 40.1374 9.18787Z" fill="white"/>
<path fill-rule="evenodd" clip-rule="evenodd" d="M54.4082 9.18787H62.792L62.7932 9.1944C62.9231 10.106 62.2832 10.8521 61.3717 10.8521H56.3027C55.3911 10.8521 54.5389 10.1062 54.4088 9.1944L54.4082 9.18787Z" fill="#E4E4E4"/>
<path fill-rule="evenodd" clip-rule="evenodd" d="M55.7074 7.53687H61.0225C61.8666 7.53687 62.557 8.2271 62.557 9.07144C62.557 9.91578 61.8668 10.606 61.0225 10.606H55.7074C54.8633 10.606 54.1729 9.91578 54.1729 9.07144C54.1729 8.2271 54.8633 7.53687 55.7074 7.53687Z" fill="#3A3C6C"/>
<path fill-rule="evenodd" clip-rule="evenodd" d="M55.7999 9.96026C56.2897 9.96026 56.6892 9.56097 56.6892 9.07123C56.6892 8.58149 56.2897 8.18219 55.7999 8.18219C55.3102 8.18219 54.9109 8.58149 54.9109 9.07123C54.9109 9.56097 55.3102 9.96026 55.7999 9.96026Z" fill="#232446"/>
<path fill-rule="evenodd" clip-rule="evenodd" d="M57.5972 9.57609C57.8751 9.57609 58.1019 9.34925 58.1019 9.07139C58.1019 8.79352 57.8751 8.56647 57.5972 8.56647C57.3194 8.56647 57.0925 8.79331 57.0925 9.07139C57.0925 9.34925 57.3194 9.57609 57.5972 9.57609Z" fill="#232446"/>
<path fill-rule="evenodd" clip-rule="evenodd" d="M61.192 8.56487C61.3364 8.56487 61.4542 8.44724 61.4542 8.30303C61.4542 8.15862 61.3364 8.04077 61.192 8.04077C61.0478 8.04077 60.9299 8.15862 60.9299 8.30303C60.9299 8.44724 61.0478 8.56487 61.192 8.56487Z" fill="white"/>
<path fill-rule="evenodd" clip-rule="evenodd" d="M55.8002 9.34208C55.9495 9.34208 56.0709 9.22064 56.0709 9.07138C56.0709 8.92212 55.9495 8.80048 55.8002 8.80048C55.651 8.80048 55.5295 8.92191 55.5295 9.07138C55.5293 9.22043 55.651 9.34208 55.8002 9.34208Z" fill="#CF4970"/>
<path fill-rule="evenodd" clip-rule="evenodd" d="M52.5203 12.2212H59.54C59.6871 12.2212 59.8073 12.3414 59.8073 12.4885V16.9474C59.8073 17.0948 59.6871 17.2147 59.54 17.2147H52.5203C52.3729 17.2147 52.2529 17.0948 52.2529 16.9474V12.4885C52.2529 12.3414 52.3731 12.2212 52.5203 12.2212Z" fill="#CF4970"/>
<path fill-rule="evenodd" clip-rule="evenodd" d="M57.24 15.0579C57.24 15.0579 57.1776 16.0092 57.1854 16.711H55.7898V15.8219L57.24 15.0579Z" fill="#DC8C8C"/>
<path fill-rule="evenodd" clip-rule="evenodd" d="M57.2554 14.5054L57.4259 13.5613C57.4259 13.5613 57.434 13.2894 57.1302 13.3918C57.1302 13.3918 57.6646 12.8547 56.6973 12.7471C56.1815 12.5757 55.393 12.5258 55.0184 13.014C55.0696 12.558 54.4373 12.6989 54.1641 13.1473C54.1926 12.975 54.2687 12.7977 54.4219 12.6333C54.4219 12.6333 53.7353 12.9725 54.0205 13.6098C54.0014 14.1596 54.3035 14.6114 55.4626 14.6654C55.8551 14.6838 57.1538 15.0696 57.2554 14.5054ZM57.1302 13.3918C57.2394 13.1456 57.1158 12.9506 56.8791 12.8241C57.1369 12.9118 57.3484 13.0781 57.1302 13.3918Z" fill="#3A3C6C"/>
<path fill-rule="evenodd" clip-rule="evenodd" d="M54.6877 12.758C54.7587 12.7435 54.8167 12.7589 54.8167 12.7926C54.8167 12.8264 54.7587 12.8656 54.6877 12.8801C54.6166 12.8947 54.5588 12.8791 54.5588 12.8455C54.5588 12.8118 54.6164 12.7726 54.6877 12.758Z" fill="#60629A"/>
<path fill-rule="evenodd" clip-rule="evenodd" d="M55.7772 12.6704C55.9715 12.6512 56.129 12.6715 56.129 12.7151C56.129 12.7589 55.9715 12.81 55.7772 12.8289C55.583 12.8479 55.4253 12.8279 55.4253 12.7842C55.4253 12.7406 55.583 12.6896 55.7772 12.6704Z" fill="#60629A"/>
<path fill-rule="evenodd" clip-rule="evenodd" d="M54.6637 14.1015C54.6637 14.1015 54.5219 16.0415 55.5157 16.515C55.5157 16.515 57.0456 16.5622 57.1403 15.1428C57.7807 15.0759 57.552 14.0838 57.0928 14.5552L56.9332 14.1232C56.9332 14.1232 55.6417 14.3302 54.6637 14.1015Z" fill="#DC8C8C"/>
<path fill-rule="evenodd" clip-rule="evenodd" d="M55.5761 16.5142C55.8605 16.5053 57.0567 16.3927 57.1402 15.1428C57.7806 15.0759 57.5519 14.0838 57.0927 14.5552L56.9331 14.1232C56.9331 14.1232 56.2596 14.2312 55.5172 14.205C55.5019 14.4658 55.4867 14.8253 55.4945 15.128C55.0237 14.9992 55.1466 15.6239 55.4704 15.5231L55.5761 16.5142Z" fill="#EBB39D"/>
<path fill-rule="evenodd" clip-rule="evenodd" d="M57.1401 15.1427C57.5177 15.1033 57.5932 14.7426 57.4975 14.5492C57.3455 14.5212 57.1777 14.7131 57.1777 14.7131C57.3716 14.688 57.337 14.9682 57.1401 14.9968V15.1427Z" fill="#DC8C8C"/>
<path fill-rule="evenodd" clip-rule="evenodd" d="M57.0927 14.5552L56.9331 14.1232C56.9331 14.1232 55.6418 14.3302 54.6638 14.1015C54.6638 14.1015 55.7188 14.5354 56.8543 14.2358L57.0927 14.5552Z" fill="#DC8C8C"/>
<path fill-rule="evenodd" clip-rule="evenodd" d="M55.4612 15.4523C55.4812 15.3275 55.6438 15.3131 55.6206 15.4261C55.6206 15.4261 55.5613 15.3846 55.4612 15.4523Z" fill="#DC8C8C"/>
<path fill-rule="evenodd" clip-rule="evenodd" d="M54.5525 14.5287H55.2159C55.2159 14.5287 55.3302 14.4597 55.2705 14.3431C55.2705 14.3431 55.248 14.4051 55.2193 14.4231C55.2193 14.4231 55.2062 14.3313 55.0587 14.2993C55.0587 14.2993 54.7224 14.2658 54.5525 14.5287Z" fill="#3A3C6C"/>
<path fill-rule="evenodd" clip-rule="evenodd" d="M56.3752 14.5287H55.7115C55.7115 14.5287 55.5972 14.4598 55.6569 14.3432C55.6569 14.3432 55.6792 14.4052 55.7079 14.4231C55.7079 14.4231 55.6862 14.3506 55.7581 14.3194C55.7602 14.3721 55.7682 14.3809 55.7682 14.3809C55.7632 14.3472 55.7743 14.3173 55.7748 14.3164C55.9485 14.2332 56.2727 14.3706 56.3752 14.5287ZM56.4017 14.4889C56.4272 14.311 56.2105 14.3679 56.2105 14.3679C56.344 14.3932 56.4017 14.4889 56.4017 14.4889Z" fill="#3A3C6C"/>
<path fill-rule="evenodd" clip-rule="evenodd" d="M54.8996 14.4404C55.0149 14.4404 55.1193 14.4872 55.195 14.5627C55.2704 14.6384 55.3172 14.743 55.3172 14.8581C55.3172 14.9734 55.2704 15.078 55.195 15.1536C55.1193 15.2289 55.0151 15.2759 54.8996 15.2759C54.7843 15.2759 54.6797 15.2289 54.6045 15.1536C54.5288 15.078 54.4822 14.9734 54.4822 14.8581C54.4822 14.743 54.5288 14.6384 54.6045 14.5627C54.6797 14.4872 54.7843 14.4404 54.8996 14.4404ZM55.1796 14.5781C55.1079 14.5064 55.0088 14.4619 54.8996 14.4619C54.7902 14.4619 54.6911 14.5064 54.6194 14.5781C54.5477 14.6498 54.5035 14.7489 54.5035 14.8581C54.5035 14.9675 54.5477 15.0666 54.6194 15.1382C54.6911 15.2099 54.79 15.2542 54.8996 15.2542C55.0088 15.2542 55.1079 15.2099 55.1796 15.1382C55.2513 15.0666 55.2957 14.9675 55.2957 14.8581C55.2957 14.7489 55.2513 14.6498 55.1796 14.5781Z" fill="#232446"/>
<path fill-rule="evenodd" clip-rule="evenodd" d="M56.4162 14.8406L57.3216 14.3854C57.3216 14.3854 57.4646 14.3238 57.5211 14.4575L57.5013 14.4659C57.4542 14.355 57.3362 14.4025 57.3301 14.4052L56.4164 14.8644C56.4147 14.9772 56.3681 15.079 56.2941 15.1532C56.2184 15.2285 56.1143 15.2755 55.9987 15.2755C55.8834 15.2755 55.7791 15.2285 55.7036 15.1532C55.6281 15.0775 55.5813 14.9729 55.5813 14.8576C55.5813 14.7425 55.6281 14.638 55.7036 14.5623C55.7793 14.4868 55.8834 14.44 55.9987 14.44C56.0989 14.44 56.1906 14.4752 56.2625 14.5338C56.3358 14.5933 56.3885 14.6776 56.4079 14.7735C56.4107 14.7874 56.4128 14.8011 56.4143 14.8153C56.4153 14.8241 56.4157 14.8325 56.4162 14.8406ZM56.249 14.5509C56.1809 14.4952 56.0938 14.4619 55.9989 14.4619C55.8895 14.4619 55.7906 14.5064 55.7192 14.5781C55.6475 14.6498 55.603 14.7488 55.603 14.8581C55.603 14.9675 55.6475 15.0666 55.7192 15.1382C55.7909 15.2099 55.8897 15.2542 55.9989 15.2542C56.1084 15.2542 56.2074 15.2099 56.2791 15.1382C56.3508 15.0666 56.3949 14.9675 56.3949 14.8581C56.3949 14.8446 56.3942 14.8309 56.393 14.818C56.3917 14.8047 56.3896 14.7914 56.3871 14.7786C56.3683 14.6873 56.3185 14.6074 56.249 14.5509Z" fill="#232446"/>
<path fill-rule="evenodd" clip-rule="evenodd" d="M55.3916 15.7445L56.0641 15.6424C56.0856 15.6393 56.1054 15.6469 56.1191 15.6637C56.1326 15.6802 56.1366 15.7015 56.1292 15.7219C56.0034 16.074 55.5771 16.137 55.3528 15.8398C55.3399 15.8225 55.337 15.8012 55.3452 15.7811C55.3534 15.7611 55.3703 15.748 55.3916 15.7445Z" fill="white"/>
<path fill-rule="evenodd" clip-rule="evenodd" d="M57.1856 16.711C57.1856 16.711 58.4853 16.6541 58.6255 17.215H54.4653C54.4653 17.215 54.9658 16.5271 55.7899 16.711H57.1856Z" fill="#3A3C6C"/>
<path fill-rule="evenodd" clip-rule="evenodd" d="M61.0542 12.2211H68.0739C68.2213 12.2211 68.3412 12.3413 68.3412 12.4885V16.9473C68.3412 17.0947 68.2213 17.2147 68.0739 17.2147H61.0542C60.907 17.2147 60.7869 17.0947 60.7869 16.9473V12.4885C60.7869 12.3413 60.907 12.2211 61.0542 12.2211Z" fill="#6F89DB"/>
<path fill-rule="evenodd" clip-rule="evenodd" d="M65.7885 13.115C66.5086 13.6218 66.5767 16.2507 65.5334 16.7396C65.5334 16.7396 64.0521 16.2159 63.0577 16.8096C62.0858 15.7538 62.7632 13.7341 63.1342 13.2499C64.1516 12.726 64.728 12.6899 65.5024 13.107C65.6367 13.1791 65.6685 13.038 65.7885 13.115Z" fill="#3A3C6C"/>
<path fill-rule="evenodd" clip-rule="evenodd" d="M64.5879 16.3208L65.0559 16.1108L66.6316 16.9516L66.5979 17.2151H62.3867L62.3542 16.9782L63.8854 16.1108L64.5879 16.3208Z" fill="#F1F2FF"/>
<path fill-rule="evenodd" clip-rule="evenodd" d="M64.5879 16.3208L65.0559 16.111L65.3614 16.274C65.2794 16.6588 64.9117 16.9491 64.4706 16.9491C64.0332 16.9491 63.6683 16.6634 63.582 16.2829L63.8854 16.1108L64.5879 16.3208Z" fill="#EEC16E"/>
<path fill-rule="evenodd" clip-rule="evenodd" d="M63.8855 15.5451H65.056V16.1109C65.056 16.4223 64.8015 16.677 64.4901 16.677H64.4513C64.1404 16.677 63.8855 16.4223 63.8855 16.1109V15.5451Z" fill="#D77F7F"/>
<path fill-rule="evenodd" clip-rule="evenodd" d="M65.6656 14.4864C65.8634 14.1099 66.1859 12.9613 65.4995 13.0263C65.474 12.9462 65.3629 12.6327 65.1582 12.5308L65.151 12.545C65.3252 12.6316 65.4304 12.8781 65.471 12.9911C64.6488 11.9346 62.103 12.632 63.4366 14.801L65.6656 14.4864ZM66.1292 13.7679C66.1307 13.7713 66.6894 14.9937 66.203 16.1985L66.1883 16.1926C66.6719 14.9941 66.1164 13.7779 66.1149 13.7743L66.1292 13.7679Z" fill="#3A3C6C"/>
<path fill-rule="evenodd" clip-rule="evenodd" d="M63.416 13.6901H65.5259V14.2102C65.7401 14.1693 65.9136 14.3099 65.9136 14.5239C65.9136 14.7381 65.7401 14.9447 65.5259 14.9856C65.4454 15.5792 65.0859 16.0287 64.4707 16.0374C63.8549 16.0462 63.4611 15.5976 63.416 14.9856C63.2018 14.9447 63.0281 14.7381 63.0281 14.5239C63.0281 14.3097 63.2018 14.169 63.416 14.2102V13.6901Z" fill="#EAAB9F"/>
<path fill-rule="evenodd" clip-rule="evenodd" d="M63.416 13.6901H64.9864C64.9864 13.6901 64.4961 14.901 63.3928 14.2066C63.4004 14.2076 63.4082 14.2087 63.416 14.2102V13.6901ZM64.9864 13.6901C65.0311 14.0508 65.4104 14.1212 65.5259 14.1343V13.6901H64.9864Z" fill="#D77F7F"/>
<path fill-rule="evenodd" clip-rule="evenodd" d="M65.8822 14.377C65.9024 14.42 65.9136 14.4694 65.9136 14.524C65.9136 14.7382 65.7401 14.9448 65.5259 14.9857V14.8202C65.6654 14.8044 65.8193 14.4919 65.5472 14.5031C65.5472 14.5031 65.677 14.287 65.8822 14.377Z" fill="#D77F7F"/>
<path fill-rule="evenodd" clip-rule="evenodd" d="M64.609 13.2936L64.9953 13.651L65.0085 13.6546L65.009 13.6584C65.009 13.6584 65.0096 13.6685 65.0119 13.6851L65.594 13.5698V13.9716C65.2809 14.0319 65.0998 13.8521 65.026 13.7522C65.0663 13.9023 65.1996 14.1696 65.6309 14.0655L65.6334 14.0756C65.1662 14.1884 65.0419 13.8738 65.0094 13.7286C64.9938 13.7056 64.9864 13.6904 64.9864 13.6904L65.0016 13.6875C65.0003 13.679 64.9997 13.6723 64.9991 13.6676C64.9491 13.761 64.4739 14.5826 63.3924 14.2067L63.3757 13.5312L64.609 13.2936Z" fill="#3A3C6C"/>
<path fill-rule="evenodd" clip-rule="evenodd" d="M63.0592 14.377C63.039 14.42 63.0278 14.4694 63.0278 14.524C63.0278 14.7382 63.2015 14.9448 63.4157 14.9857V14.8202C63.2758 14.8044 63.1219 14.4919 63.3942 14.5031C63.3942 14.5031 63.2644 14.287 63.0592 14.377Z" fill="#D77F7F"/>
<path fill-rule="evenodd" clip-rule="evenodd" d="M62.7685 17.2151C62.6882 17.0768 62.5588 16.9796 62.3543 16.9785C62.2187 16.9775 62.111 17.0679 62.0254 17.2151H62.7685Z" fill="#F1F2FF"/>
<path fill-rule="evenodd" clip-rule="evenodd" d="M66.2029 17.2151C66.2821 17.0627 66.4148 16.9533 66.6317 16.9518C66.7755 16.9512 66.8881 17.0523 66.9753 17.2151H66.2029Z" fill="#F1F2FF"/>
<path fill-rule="evenodd" clip-rule="evenodd" d="M64.762 14.3261H65.2669C65.1828 14.2378 64.6878 14.1014 64.762 14.3261ZM64.7369 14.245C64.7369 14.245 64.7336 14.2907 64.7557 14.323C64.7557 14.323 64.6933 14.2918 64.7369 14.245Z" fill="#3A3C6C"/>
<path fill-rule="evenodd" clip-rule="evenodd" d="M64.7878 14.6977C64.7887 14.7032 64.9662 14.578 65.2059 14.6931C65.1899 14.645 64.9563 14.446 64.7878 14.6977Z" fill="#3A3C6C"/>
<path fill-rule="evenodd" clip-rule="evenodd" d="M64.1937 14.6977C64.1926 14.7032 64.0151 14.578 63.7756 14.6931C63.7917 14.645 64.0255 14.446 64.1937 14.6977Z" fill="#3A3C6C"/>
<path fill-rule="evenodd" clip-rule="evenodd" d="M64.248 15.0822C64.248 15.0822 64.3872 15.1905 64.6937 15.1032C64.6937 15.1032 64.435 15.414 64.248 15.0822Z" fill="#D77F7F"/>
<path fill-rule="evenodd" clip-rule="evenodd" d="M64.1545 15.5055C64.1545 15.5055 64.5163 15.5772 64.7868 15.5055C64.7655 15.5451 64.436 15.6881 64.1545 15.5055Z" fill="#3A3C6C"/>
<path fill-rule="evenodd" clip-rule="evenodd" d="M64.199 14.3261H63.6941C63.778 14.2378 64.2728 14.1014 64.199 14.3261ZM64.2237 14.245C64.2237 14.245 64.2273 14.2907 64.2049 14.323C64.2049 14.323 64.2675 14.2918 64.2237 14.245Z" fill="#3A3C6C"/>
<path fill-rule="evenodd" clip-rule="evenodd" d="M64.0756 12.6097C64.3634 12.5718 64.597 12.608 64.597 12.6911C64.597 12.7739 64.3634 12.8718 64.0756 12.9097C63.7879 12.9477 63.5547 12.9114 63.5547 12.8283C63.5545 12.7455 63.7879 12.6479 64.0756 12.6097Z" fill="#60629A"/>
<path fill-rule="evenodd" clip-rule="evenodd" d="M52.6736 17.9948H63.7134C63.9449 17.9948 64.1338 18.1839 64.1338 18.4154V25.4278C64.1338 25.6592 63.9449 25.8481 63.7134 25.8481H52.6736C52.4421 25.8481 52.2532 25.6592 52.2532 25.4278V18.4154C52.253 18.1839 52.4421 17.9948 52.6736 17.9948Z" fill="#E7EAF3"/>
<path fill-rule="evenodd" clip-rule="evenodd" d="M58.1933 24.2841C59.4947 24.2841 60.556 23.2228 60.556 21.9216C60.556 20.6202 59.4945 19.5591 58.1933 19.5591C56.8921 19.5591 55.8308 20.6204 55.8308 21.9216C55.8308 23.2228 56.8921 24.2841 58.1933 24.2841Z" fill="white"/>
<path fill-rule="evenodd" clip-rule="evenodd" d="M58.1935 20.311C58.7766 20.311 59.2495 20.7836 59.2495 21.367C59.2495 21.9499 58.7766 22.4226 58.1935 22.4226C57.6101 22.4226 57.1375 21.9499 57.1375 21.367C57.1377 20.7836 57.6101 20.311 58.1935 20.311ZM59.7639 23.6864C59.3462 24.0583 58.7962 24.2841 58.1935 24.2841C57.5903 24.2841 57.0405 24.0583 56.623 23.6864C56.9011 23.0985 57.4996 22.6912 58.1935 22.6912C58.8873 22.6914 59.486 23.0985 59.7639 23.6864Z" fill="#E7EAF3"/>
<path fill-rule="evenodd" clip-rule="evenodd" d="M69.5881 12.2211H76.6079C76.755 12.2211 76.8752 12.3413 76.8752 12.4885V16.9473C76.8752 17.0947 76.755 17.2147 76.6079 17.2147H69.5881C69.4408 17.2147 69.3208 17.0947 69.3208 16.9473V12.4885C69.3208 12.3413 69.4408 12.2211 69.5881 12.2211Z" fill="#BDD95B"/>
<path fill-rule="evenodd" clip-rule="evenodd" d="M74.2282 14.0723C74.2282 14.0723 74.4679 15.1764 74.0398 16.0085C74.0398 16.0085 72.5126 16.2461 72.2733 15.0404C72.2733 15.0404 71.8424 14.9896 71.8025 14.6413C71.7625 14.2931 72.1417 14.2549 72.2613 14.4417L72.3131 14.7006L72.4845 14.6793L72.6043 14.1615C72.6068 14.1514 73.3556 14.3784 74.2282 14.0723Z" fill="#EBB39D"/>
<path fill-rule="evenodd" clip-rule="evenodd" d="M72.2365 15.0339C71.9765 14.9987 71.7393 14.7725 71.8089 14.4969C72.0138 14.3414 72.1264 14.5553 72.1264 14.5553C71.931 14.6295 72.0518 14.8477 72.2284 14.8355L72.2365 15.0339Z" fill="#D77F7F"/>
<path fill-rule="evenodd" clip-rule="evenodd" d="M74.2281 14.0584C73.692 14.4233 72.8742 14.295 72.6912 14.241L72.4846 14.6654L72.6044 14.1476C72.6044 14.1476 73.3623 14.3727 74.2281 14.0584Z" fill="#D77F7F"/>
<path fill-rule="evenodd" clip-rule="evenodd" d="M74.7306 13.9802C75.0236 13.5021 74.7595 12.7802 74.3043 13.15C73.6988 12.3137 72.5037 12.6518 72.4107 13.2092C72.4006 13.2075 72.3909 13.2061 72.3812 13.2046C72.3738 13.0811 72.3923 12.7785 72.7189 12.6337L72.7139 12.6219C72.3822 12.7695 72.3616 13.0752 72.3685 13.2029H72.3677C72.3167 13.1639 72.1994 13.099 72.0207 13.146L72.0238 13.1582C72.1788 13.1175 72.2857 13.1629 72.3413 13.1997C71.7072 13.1327 71.8204 13.8059 71.988 14.3369C72.0892 14.3154 72.2041 14.3532 72.261 14.4419L72.3129 14.7008L72.4843 14.6795L72.604 14.1478C72.604 14.1478 73.3621 14.3728 74.2278 14.0586C74.2278 14.0586 74.2493 14.1581 74.268 14.3201C74.268 14.3201 74.903 14.3603 75.0386 13.6553C75.0386 13.6553 74.9287 13.8769 74.7306 13.9802Z" fill="#3A3C6C"/>
<path fill-rule="evenodd" clip-rule="evenodd" d="M72.2224 15.0171C72.3042 15.2496 72.4332 15.7459 72.4448 16.5827C72.4448 16.5827 72.8696 16.7353 73.5573 16.5827C73.5573 16.5827 73.6046 16.3311 73.6062 16.0101C73.1355 15.9858 72.4294 15.8144 72.273 15.0264C72.273 15.0264 72.2536 15.0243 72.2224 15.0171Z" fill="#EBB39D"/>
<path fill-rule="evenodd" clip-rule="evenodd" d="M72.2667 15.1564C72.3029 15.2822 72.3421 15.4498 72.3746 15.664C72.5184 15.9836 72.8475 16.3146 73.5862 16.3701C73.5963 16.2725 73.6054 16.1477 73.6062 16.01C73.1355 15.9858 72.4294 15.8144 72.273 15.0263C72.273 15.0263 72.2658 15.0763 72.2667 15.1564Z" fill="#D77F7F"/>
<path fill-rule="evenodd" clip-rule="evenodd" d="M72.7695 15.0852C72.7695 15.0852 73.8997 14.766 74.3245 15.1227C74.3245 15.1227 74.2545 15.6778 74.089 15.9921C74.089 15.9921 73.4222 16.3528 72.64 15.6171L72.2332 15.0295L72.262 15.0154L72.6582 15.5804C72.7056 15.4393 72.7385 15.254 72.74 15.1052L72.2671 14.529L72.2913 14.5084L72.7695 15.0852Z" fill="white"/>
<path fill-rule="evenodd" clip-rule="evenodd" d="M73.1795 14.5395C73.2227 14.53 73.2659 14.5579 73.2754 14.6013L73.2891 14.6633C73.2986 14.7067 73.2706 14.7499 73.2274 14.7594H73.2271C73.1839 14.7687 73.1409 14.7411 73.1316 14.6976L73.1182 14.6354C73.1085 14.5922 73.1361 14.5488 73.1795 14.5395Z" fill="#3A3C6C"/>
<path fill-rule="evenodd" clip-rule="evenodd" d="M73.3312 14.5767C73.3312 14.5767 73.2252 14.541 73.0142 14.6009C73.0142 14.6009 73.1936 14.4552 73.3312 14.5767Z" fill="#3A3C6C"/>
<path fill-rule="evenodd" clip-rule="evenodd" d="M74.0474 14.5174H74.0476C74.0919 14.518 74.1275 14.5549 74.1269 14.5994L74.1256 14.6629C74.1248 14.7074 74.0881 14.743 74.0436 14.7421C73.9994 14.7415 73.9635 14.7046 73.9644 14.6603L73.9656 14.5967C73.9663 14.5522 74.0032 14.5166 74.0474 14.5174Z" fill="#3A3C6C"/>
<path fill-rule="evenodd" clip-rule="evenodd" d="M74.1826 14.5566C74.1826 14.5566 74.0763 14.5209 73.8655 14.581C73.8655 14.581 74.0447 14.4353 74.1826 14.5566Z" fill="#3A3C6C"/>
<path fill-rule="evenodd" clip-rule="evenodd" d="M73.875 15.0148C73.875 15.0148 73.8198 15.1596 73.5569 15.1596C73.5569 15.1596 73.8619 15.3489 73.875 15.0148Z" fill="#CFE5FD"/>
<path fill-rule="evenodd" clip-rule="evenodd" d="M72.4447 16.5827L71.0537 17.215H75.0254C75.0165 17.1819 75.0077 17.149 74.9984 17.1163L73.5572 16.5825C72.8693 16.7354 72.4447 16.5827 72.4447 16.5827Z" fill="white"/>
<path fill-rule="evenodd" clip-rule="evenodd" d="M72.1458 16.7185L72.1201 16.7301C72.1484 16.7467 72.1787 16.7628 72.2112 16.7777C72.4157 16.8724 72.6982 16.9308 73.0098 16.9308C73.3216 16.9308 73.6037 16.8722 73.8086 16.7777C73.8491 16.759 73.8868 16.7387 73.9208 16.7172L73.8936 16.7071C73.8643 16.7246 73.8328 16.7412 73.7991 16.7568C73.5976 16.8502 73.3182 16.9078 73.01 16.9078C72.7016 16.9078 72.4226 16.8502 72.2211 16.7568C72.1945 16.7448 72.1692 16.732 72.1458 16.7185Z" fill="#3A3C6C"/>
<path fill-rule="evenodd" clip-rule="evenodd" d="M71.1064 17.2151C71.0868 17.2138 71.0678 17.2138 71.0491 17.2151H71.1064Z" fill="white"/>
<path fill-rule="evenodd" clip-rule="evenodd" d="M65.415 17.9948H76.4549C76.6864 17.9948 76.8755 18.1839 76.8755 18.4154V25.4278C76.8755 25.6592 76.6864 25.8481 76.4549 25.8481H65.415C65.1835 25.8481 64.9944 25.6592 64.9944 25.4278V18.4154C64.9944 18.1839 65.1835 17.9948 65.415 17.9948Z" fill="#E7EAF3"/>
<path fill-rule="evenodd" clip-rule="evenodd" d="M70.935 24.2841C72.2364 24.2841 73.2975 23.2228 73.2975 21.9216C73.2975 20.6202 72.2364 19.5591 70.935 19.5591C69.6336 19.5591 68.5725 20.6204 68.5725 21.9216C68.5725 23.2228 69.6336 24.2841 70.935 24.2841Z" fill="white"/>
<path fill-rule="evenodd" clip-rule="evenodd" d="M70.9349 20.372C71.518 20.372 71.9909 20.8449 71.9909 21.428C71.9909 22.0109 71.518 22.484 70.9349 22.484C70.352 22.484 69.8789 22.0111 69.8789 21.428C69.8789 20.8449 70.3518 20.372 70.9349 20.372ZM72.5053 23.7477C72.0879 24.1192 71.5379 24.3454 70.9349 24.3454C70.3322 24.3454 69.7819 24.1194 69.3645 23.7477C69.6424 23.1595 70.2411 22.7524 70.9349 22.7524C71.6287 22.7524 72.2275 23.1595 72.5053 23.7477Z" fill="#E7EAF3"/>
<path fill-rule="evenodd" clip-rule="evenodd" d="M40.977 12.2217H50.6909C51.0113 12.2217 51.2734 12.4839 51.2734 12.8042V30.4158C51.2734 30.7363 51.0111 30.9985 50.6909 30.9985H40.977C40.6566 30.9985 40.3945 30.7363 40.3945 30.4158V12.8042C40.3945 12.4837 40.6566 12.2217 40.977 12.2217Z" fill="#E7EAF3"/>
<path fill-rule="evenodd" clip-rule="evenodd" d="M43.128 16.6705C44.07 16.6705 44.838 15.9027 44.838 14.9607C44.838 14.0188 44.0698 13.2507 43.128 13.2507C42.1865 13.2507 41.4185 14.0188 41.4185 14.9607C41.4185 15.9027 42.1865 16.6705 43.128 16.6705Z" fill="#3A3C6C"/>
<path fill-rule="evenodd" clip-rule="evenodd" d="M43.1282 13.795C43.5503 13.795 43.8924 14.1372 43.8924 14.5593C43.8924 14.9811 43.5503 15.3235 43.1282 15.3235C42.7059 15.3235 42.3638 14.9813 42.3638 14.5593C42.3638 14.1372 42.7061 13.795 43.1282 13.795ZM44.2647 16.2383C43.9626 16.5071 43.5644 16.6707 43.1282 16.6707C42.6916 16.6707 42.2936 16.5071 41.9915 16.2383C42.1926 15.8124 42.6258 15.5179 43.1282 15.5179C43.6304 15.5179 44.0636 15.8124 44.2647 16.2383Z" fill="#E7EAF3"/>
<path d="M48.3091 13.8766H45.3865V14.3383H48.3091V13.8766Z" fill="#3A3C6C"/>
<path d="M49.5148 14.7511H45.3865V15.2128H49.5148V14.7511Z" fill="#3A3C6C"/>
<path d="M41.8259 20.9727C42.2415 20.9727 42.5785 20.6357 42.5785 20.22C42.5785 19.8044 42.2415 19.4674 41.8259 19.4674C41.4102 19.4674 41.0732 19.8044 41.0732 20.22C41.0732 20.6357 41.4102 20.9727 41.8259 20.9727Z" fill="#6F89DB"/>
<path fill-rule="evenodd" clip-rule="evenodd" d="M41.8259 21.3571C42.2414 21.3571 42.5785 21.6942 42.5785 22.1097C42.5785 22.5253 42.2416 22.8624 41.8259 22.8624C41.4103 22.8624 41.0732 22.5253 41.0732 22.1097C41.0732 21.6942 41.4103 21.3571 41.8259 21.3571Z" fill="#EEC16E"/>
<path fill-rule="evenodd" clip-rule="evenodd" d="M41.8259 23.2469C42.2414 23.2469 42.5785 23.5836 42.5785 23.9995C42.5785 24.4151 42.2416 24.7517 41.8259 24.7517C41.4103 24.7517 41.0732 24.4151 41.0732 23.9995C41.0732 23.5838 41.4103 23.2469 41.8259 23.2469Z" fill="#BDD95B"/>
<path d="M44.8447 19.931H43.1531V20.1307H44.8447V19.931Z" fill="#3A3C6C"/>
<path d="M43.9607 20.3096H43.1531V20.5092H43.9607V20.3096Z" fill="#3A3C6C"/>
<path d="M44.8447 21.7216H43.1531V21.9214H44.8447V21.7216Z" fill="#3A3C6C"/>
<path d="M44.2867 22.1H43.1531V22.2998H44.2867V22.1Z" fill="#3A3C6C"/>
<path fill-rule="evenodd" clip-rule="evenodd" d="M41.8259 25.3628C42.2414 25.3628 42.5785 25.6999 42.5785 26.1154C42.5785 26.531 42.2416 26.8681 41.8259 26.8681C41.4103 26.8681 41.0732 26.5312 41.0732 26.1154C41.0732 25.6997 41.4103 25.3628 41.8259 25.3628Z" fill="#3A3C6C"/>
<path fill-rule="evenodd" clip-rule="evenodd" d="M41.8259 27.2526C42.2414 27.2526 42.5785 27.5892 42.5785 28.0048C42.5785 28.4203 42.2416 28.7574 41.8259 28.7574C41.4103 28.7574 41.0732 28.4205 41.0732 28.0048C41.0732 27.5892 41.4103 27.2526 41.8259 27.2526Z" fill="white"/>
<path d="M44.8447 23.5836H43.1531V23.7835H44.8447V23.5836Z" fill="#3A3C6C"/>
<path d="M43.6736 23.9622H43.1531V24.1621H43.6736V23.9622Z" fill="#3A3C6C"/>
<path d="M43.9987 25.3744H43.1531V25.574H43.9987V25.3744Z" fill="#3A3C6C"/>
<path d="M44.2867 25.7527H43.1531V25.9524H44.2867V25.7527Z" fill="#3A3C6C"/>
<path d="M50.1541 17.7354H41.1711V17.806H50.1541V17.7354Z" fill="white"/>
<path fill-rule="evenodd" clip-rule="evenodd" d="M49.8695 19.6585H49.87C49.9977 19.6585 50.1023 19.7631 50.1023 19.8908V20.8347C50.1023 20.9624 49.9977 21.0668 49.87 21.0668H49.8695C49.7418 21.0668 49.6372 20.9622 49.6372 20.8347V19.8908C49.6372 19.7631 49.7416 19.6585 49.8695 19.6585Z" fill="white"/>
<path d="M55.9315 35.86H41.1548V37.2541H55.9315V35.86Z" fill="white"/>
<path fill-rule="evenodd" clip-rule="evenodd" d="M25.0151 37.2539H81.9648C82.3483 37.2539 82.6618 37.5674 82.6618 37.9509C82.6618 38.3344 82.3483 38.6481 81.9648 38.6481H25.0151C24.6316 38.6481 24.3181 38.3346 24.3181 37.9511C24.3181 37.5676 24.6316 37.2539 25.0151 37.2539Z" fill="#6F89DB"/>
<path d="M81.965 38.6481H58.2798V69.453H81.965V38.6481Z" fill="#D6DAE6"/>
<path fill-rule="evenodd" clip-rule="evenodd" d="M81.965 38.6481H58.2798V39.4109L81.965 40.415V38.6481Z" fill="#B3BCD3"/>
<path fill-rule="evenodd" clip-rule="evenodd" d="M58.2798 54.1993H67.6749H72.5697H81.9648V54.4574H72.5697V55.0158C72.5697 55.4649 72.2023 55.8323 71.7532 55.8323H68.4914C68.0421 55.8323 67.6749 55.4649 67.6749 55.0158V54.4574H58.2798V54.1993ZM72.5699 63.5912V64.1495C72.5699 64.5985 72.2025 64.966 71.7534 64.966H68.4916C68.0423 64.966 67.6751 64.5985 67.6751 64.1495V63.5912H58.28V63.3328H67.6751H72.5699H81.965V63.5912H72.5699ZM72.5699 45.3241V45.8824C72.5699 46.3314 72.2025 46.6987 71.7534 46.6987H68.4916C68.0423 46.6987 67.6751 46.3312 67.6751 45.8824V45.3241H58.28V45.0657H67.6751H72.5699H81.965V45.3241H72.5699Z" fill="#B3BCD3"/>
<path fill-rule="evenodd" clip-rule="evenodd" d="M68.1691 37.2539H80.0456V36.9323H70.8147C70.5299 36.9323 70.2967 36.6994 70.2967 36.4146C70.2967 36.1295 70.5297 35.8966 70.8147 35.8966H80.0456V35.5751H68.1691C67.7076 35.5751 67.3298 35.9529 67.3298 36.4144C67.3298 36.8761 67.7076 37.2539 68.1691 37.2539Z" fill="#3A3C6C"/>
<path fill-rule="evenodd" clip-rule="evenodd" d="M70.8149 36.9325H79.6285V35.8965H70.8149C70.53 35.8965 70.2969 36.1294 70.2969 36.4143V36.4145C70.2969 36.6995 70.5298 36.9325 70.8149 36.9325Z" fill="white"/>
<path fill-rule="evenodd" clip-rule="evenodd" d="M68.894 35.5753H80.7706V35.2542H71.5396C71.2548 35.2542 71.0216 35.0211 71.0216 34.7363C71.0216 34.4514 71.2545 34.2185 71.5396 34.2185H80.7706V33.897H68.894C68.4325 33.897 68.0547 34.2748 68.0547 34.7363C68.0547 35.1977 68.4323 35.5753 68.894 35.5753Z" fill="#6F89DB"/>
<path fill-rule="evenodd" clip-rule="evenodd" d="M71.5395 35.2541H80.3531V34.2181H71.5395C71.2547 34.2181 71.0215 34.451 71.0215 34.7359V34.7361C71.0215 35.0211 71.2547 35.2541 71.5395 35.2541Z" fill="white"/>
<path fill-rule="evenodd" clip-rule="evenodd" d="M71.9233 34.6526H73.0793V36.5132L72.4881 36.1607L71.9233 36.5132V34.6526Z" fill="#CF4970"/>
<path fill-rule="evenodd" clip-rule="evenodd" d="M36.6371 9.44831C36.6675 10.0745 36.6898 10.9964 36.6396 12.0117C36.6396 12.0117 37.2755 11.6586 37.3604 12.2503C37.4456 12.8417 36.9304 13.2684 36.5256 13.386C36.3529 14.9683 35.9825 16.4046 35.1563 17.3721C35.1563 17.3721 33.6713 17.6432 32.5704 17.5171L32.5592 20.4931L27.1385 20.3645C27.1385 20.3645 27.2351 18.9256 27.273 17.3006C27.027 17.1431 26.89 16.8374 26.9853 16.2897C26.9853 16.2897 26.9724 16.6082 27.2815 16.8676C27.2848 16.6586 27.2872 16.4482 27.2878 16.2393C26.0893 10.626 21.3418 5.92232 26.9697 5.66912C26.1405 3.09098 32.0182 -0.146399 35.3237 4.52035C34.7517 2.32865 40.0147 4.78093 36.6371 9.44831Z" fill="white"/>
<path fill-rule="evenodd" clip-rule="evenodd" d="M36.3584 8.84961C36.3584 8.84961 36.5263 10.3922 36.4561 12.2438C36.4561 12.2438 37.0881 11.8909 37.18 12.4825C37.2719 13.0743 36.7617 13.501 36.3582 13.6186C36.2041 15.2006 35.8506 16.6372 35.0357 17.6046C35.0357 17.6046 33.5539 17.8753 32.4517 17.7495L32.4751 20.7256L27.053 20.5966C27.053 20.5966 27.1708 18.473 27.154 16.4717C28.2857 16.4715 29.4169 16.4715 30.5484 16.471L30.8159 13.3846C30.8159 13.3846 29.2411 13.9199 28.9578 12.2824C28.6744 10.6448 30.186 9.44813 30.627 10.3928L31.0362 11.2433L31.4381 11.2041L31.9656 9.51117C31.9656 9.51117 34.7052 9.54258 36.3584 8.84961Z" fill="#EBB39D"/>
<path fill-rule="evenodd" clip-rule="evenodd" d="M36.3585 8.84961C36.3585 8.84961 36.3731 8.98369 36.3918 9.2196C35.5167 9.65073 34.1266 10.0618 32.288 9.74012L31.4377 11.2036L31.9652 9.51075C31.9652 9.51075 34.7053 9.54258 36.3585 8.84961Z" fill="#DC8C8C"/>
<path fill-rule="evenodd" clip-rule="evenodd" d="M30.8159 13.3846L30.8096 13.3867C30.7025 13.4209 29.2307 13.86 28.9577 12.2822C28.8382 11.5912 29.0382 10.9789 29.3424 10.5729C30.0917 10.3574 30.6698 11.9399 30.6698 11.9399C30.6698 11.9399 29.989 11.9981 30.1136 12.4878C30.238 12.9775 30.7942 12.9193 30.7942 12.9193L30.8159 13.3846Z" fill="#DC8C8C"/>
<path fill-rule="evenodd" clip-rule="evenodd" d="M32.4517 17.7495L32.461 18.9018C31.9443 18.9227 31.2361 19.0545 30.5318 19.2179L27.1135 19.1753C27.1395 18.4089 27.1622 17.4263 27.154 16.4717V16.4719L30.5484 16.4711C31.2043 17.3386 32.4517 17.7495 32.4517 17.7495Z" fill="#DC8C8C"/>
<path fill-rule="evenodd" clip-rule="evenodd" d="M36.4236 9.68099C39.7463 5.01319 34.4549 2.56112 35.0526 4.75282C31.6925 0.0858591 25.8528 3.32324 26.7123 5.90117C21.0871 6.15437 25.8897 10.858 27.1537 16.4716C27.1525 17.4342 30.4445 17.2866 30.5482 16.4709L30.8157 13.3845C30.8157 13.3845 29.2409 13.9198 28.9575 12.2823C28.6742 10.6447 30.1858 9.44803 30.6268 10.3927L31.036 11.2432L31.4378 11.204L31.9653 9.51107C31.9653 9.51107 34.7052 9.5427 36.3584 8.84972C36.3584 8.84972 36.3926 9.16469 36.4236 9.68099ZM26.8518 16.522C26.8518 16.522 26.8173 17.7021 29.1095 17.3686C29.1095 17.3686 26.5365 18.4645 26.8518 16.522Z" fill="#3A3C6C"/>
<path fill-rule="evenodd" clip-rule="evenodd" d="M31.0146 2.7428C31.8111 2.7428 32.4571 2.93254 32.4571 3.16655C32.4571 3.40077 31.8111 3.59051 31.0146 3.59051C30.218 3.59051 29.572 3.40077 29.572 3.16655C29.572 2.93275 30.218 2.7428 31.0146 2.7428ZM25.4477 6.24244C25.9587 6.21356 26.3677 6.35776 26.3618 6.56437C26.3559 6.77097 25.9368 6.96155 25.4262 6.99065C24.9154 7.01953 24.5064 6.87533 24.5123 6.66872C24.5182 6.46212 24.9373 6.27111 25.4477 6.24244Z" fill="#60629A"/>
<path fill-rule="evenodd" clip-rule="evenodd" d="M22.903 40.9053L22.1156 41.5032C22.1156 41.5032 19.6273 50.5679 28.2524 51.0115L31.0753 65.7248C30.8082 65.7539 30.5984 65.982 30.5984 66.2567C30.5984 66.5512 30.8394 66.7917 31.1339 66.7917H31.2802H35.5584H35.8148L35.8139 66.7262C35.9803 66.6351 36.0933 66.4584 36.0933 66.2565C36.0933 66.0496 35.9748 65.8696 35.8019 65.7802L35.5629 46.7626L32.986 47.2283L29.5793 41.3462L22.903 40.9053Z" fill="#232446"/>
<path fill-rule="evenodd" clip-rule="evenodd" d="M35.2576 66.7916C35.5893 67.2284 36.2158 68.199 36.3417 69.4367H31.177C31.177 69.4367 30.9613 68.0474 31.4911 66.7916H35.2576Z" fill="#DC8C8C"/>
<path fill-rule="evenodd" clip-rule="evenodd" d="M38.1139 41.5031L50.0592 44.2446C50.2947 44.2988 50.643 45.1305 51.0592 46.4619C52.7162 51.7647 53.8123 57.4575 55.3675 65.5549C56.3704 65.8758 55.6682 66.919 55.6682 66.919L55.6283 66.9131L55.6296 66.919H50.8353H50.7552L50.7512 66.9099C49.0469 66.705 50.2131 65.6656 50.2131 65.6656L43.5086 50.1652C38.0772 50.5575 26.4257 51.6793 26.5515 42.6639C32.8161 43.5673 38.1139 41.5031 38.1139 41.5031Z" fill="#3A3C6C"/>
<path fill-rule="evenodd" clip-rule="evenodd" d="M38.1137 41.5031L41.5471 42.2914C40.29 42.9755 38.0275 44.0623 34.8044 45.0637C35.8811 45.6869 38.9336 46.8413 46.5674 46.5968L46.606 46.5955L52.0954 65.1265L51.9993 65.1548L46.5318 46.698C38.7521 46.9432 35.7116 45.725 34.679 45.1025C32.6793 45.7174 30.3162 46.2978 27.5992 46.729C26.9165 45.6808 26.5282 44.3496 26.5518 42.6639C32.8159 43.5673 38.1137 41.5031 38.1137 41.5031Z" fill="#232446"/>
<path fill-rule="evenodd" clip-rule="evenodd" d="M57.5075 69.4524L57.5077 69.4528H50.6107C50.6107 69.4528 50.301 68.5733 50.7551 66.9189H55.6679C55.6679 66.9189 59.0528 68.0352 59.0842 69.4524H57.5075Z" fill="#EBB39D"/>
<path fill-rule="evenodd" clip-rule="evenodd" d="M23.5841 33.0605C23.5841 33.0605 25.9715 21.9257 21.8678 21.6942C17.8612 21.4684 18.2659 33.9877 20.0476 36.7585C21.8295 39.5291 31.3919 35.1841 31.3919 35.1841C31.3919 35.1841 31.9148 33.6293 30.237 32.6819L23.5841 33.0605Z" fill="#DADEE9"/>
<path fill-rule="evenodd" clip-rule="evenodd" d="M33.2092 19.4654C34.6333 19.8074 37.0928 20.5558 38.3029 21.8524C40.0664 23.7419 37.4841 35.583 38.1138 41.5033C37.421 43.0151 28.3896 46.0151 22.1158 41.5033C22.1158 41.5033 20.3208 30.8591 21.2027 22.0412C21.2027 22.0412 22.8781 21.0017 24.5906 20.1573C25.0974 18.5806 27.0532 19.1745 27.0532 19.1745C28.4052 19.3931 33.3176 18.433 33.2478 19.1774C33.2499 19.2489 33.2368 19.3465 33.2092 19.4654Z" fill="white"/>
<path fill-rule="evenodd" clip-rule="evenodd" d="M37.0981 21.6381C37.5606 21.8985 37.977 22.1943 38.3027 22.5282C39.714 23.9747 38.3421 31.5166 38.0605 37.3741C38.0143 37.3387 37.9686 37.3011 37.9235 37.2592C35.432 34.9393 33.7144 21.5745 37.0574 21.636C37.0713 21.6362 37.0844 21.6375 37.0981 21.6381Z" fill="#E7EAF3"/>
<path fill-rule="evenodd" clip-rule="evenodd" d="M26.8244 19.1212C26.966 19.1482 27.0529 19.1744 27.0529 19.1744L27.1134 19.175C28.9379 19.1978 31.2634 18.8375 32.7084 18.9007C33.7596 19.8005 26.3846 22.6858 26.1093 19.6251C26.0641 19.125 26.5121 19.0879 26.8244 19.1212ZM32.9658 19.8781C32.9658 19.8781 32.6918 21.2706 31.0282 21.9401C31.0282 21.9401 33.5121 21.9064 32.9658 19.8781ZM24.8724 20.7874C24.0211 24.1268 27.0139 23.095 27.0139 23.095C24.9055 23.1779 24.8724 20.7874 24.8724 20.7874Z" fill="#DADEE9"/>
<path fill-rule="evenodd" clip-rule="evenodd" d="M37.0574 20.9196C33.7081 20.8551 36.1144 36.6579 39.7115 37.2539C43.9279 37.9526 45.6881 32.841 46.3686 27.9193L43.7843 26.9291C43.7843 26.9291 41.4088 29.783 40.9772 30.9984C40.2307 28.0309 40.4063 20.9837 37.0574 20.9196Z" fill="white"/>
<path fill-rule="evenodd" clip-rule="evenodd" d="M41.6967 29.6987C41.4519 30.0805 41.2139 30.4886 41.0149 30.8896C41.4003 32.0097 41.4131 33.8384 41.4131 33.8384C42.2765 31.8817 41.9762 30.3925 41.6967 29.6987Z" fill="#E7EAF3"/>
<path fill-rule="evenodd" clip-rule="evenodd" d="M41.3279 34.5003C41.3286 34.4954 41.5345 32.7755 40.9533 31.0061C40.8 30.54 40.6744 29.6754 40.5247 28.6445C40.1035 25.7459 39.4904 21.5288 37.5544 21.2415L37.5618 21.1917C39.5343 21.4845 40.1509 25.7235 40.5743 28.6375C40.7237 29.6655 40.849 30.5284 41.001 30.9905C41.5854 32.77 41.3779 34.5005 41.3775 34.5053L41.3279 34.5003Z" fill="#3A3C6C"/>
<path fill-rule="evenodd" clip-rule="evenodd" d="M46.3686 27.9194L47.9182 25.2189L47.844 24.3428C47.4668 23.961 46.0587 23.0534 46.0587 23.0534C46.0587 23.0534 46.0783 22.6798 46.1932 21.9744C46.3081 21.2688 45.3792 21.1442 45.2736 21.5374L43.8228 26.9291L46.3686 27.9194Z" fill="white"/>
<path fill-rule="evenodd" clip-rule="evenodd" d="M46.3687 27.9193L47.8139 25.2189L47.7057 24.3427C47.3138 23.9609 45.8705 23.0533 45.8705 23.0533C45.8705 23.0533 45.8758 22.6797 45.9635 21.9743C46.051 21.2687 45.1172 21.1441 45.0268 21.5373L43.7844 26.9291L46.3687 27.9193Z" fill="#EBB39D"/>
<path fill-rule="evenodd" clip-rule="evenodd" d="M46.3687 27.9194L46.8574 27.0065C45.2657 27.238 44.3433 26.8277 43.884 26.4993L43.7847 26.9291L46.3687 27.9194Z" fill="#DC8C8C"/>
<path fill-rule="evenodd" clip-rule="evenodd" d="M19.2739 50.5521H36.6825V51.9469C36.6825 52.7141 36.0553 53.3413 35.2882 53.3413H20.6685C19.9013 53.3413 19.2739 52.7141 19.2739 51.9469V50.5521Z" fill="#3A3C6C"/>
<path fill-rule="evenodd" clip-rule="evenodd" d="M14.4817 30.0804H15.3029H27.481H28.3021C29.2053 30.0804 29.9444 30.8193 29.9444 31.7227V32.0157L31.5815 46.9881C31.5815 46.9881 31.1887 49.8818 33.1527 49.8818C34.8652 49.8818 40.0365 49.769 42.3317 49.7172C42.6372 49.7104 42.9024 49.815 43.1208 50.0288C43.3394 50.2425 43.4499 50.5054 43.4499 50.8107V51.6186L16.4246 51.8085C16.4246 51.8085 14.5262 51.5794 14.4606 48.7643L12.8381 32.0155H12.8394V31.7225C12.8394 30.8193 13.5783 30.0804 14.4817 30.0804Z" fill="#9AB4FB"/>
<path fill-rule="evenodd" clip-rule="evenodd" d="M27.5872 30.0803L29.2244 48.484C29.2244 48.484 29.2113 48.5945 29.2016 48.7756C29.1515 49.7359 29.2301 51.8087 30.8178 51.8087C35.59 51.8087 38.6779 51.6187 43.4498 51.6187V50.7904C43.4498 50.4875 43.341 50.2269 43.1262 50.0135C42.911 49.8002 42.6493 49.6937 42.3464 49.6965C38.9985 49.7262 36.764 49.8816 33.1526 49.8816C32.1394 49.8816 31.6634 49.0471 31.5814 48.1258C31.5095 47.5191 31.5814 46.988 31.5814 46.988L31.2683 44.0677H41.5811C41.8942 44.0677 42.0183 43.8293 42.0183 43.5341C42.0183 42.3291 41.0357 41.3462 39.8308 41.3462H30.9763L29.9444 31.7226C29.848 30.8245 29.2052 30.0803 28.3021 30.0803H27.5872Z" fill="#6F89DB"/>
<path fill-rule="evenodd" clip-rule="evenodd" d="M27.2123 52.5209H28.7437V68.1352H32.2117C32.7158 68.1352 33.1282 68.5473 33.1282 69.0514V69.9676H28.7437H27.2123H22.8276V69.0514C22.8276 68.5473 23.24 68.1352 23.7439 68.1352H27.2123V52.5209Z" fill="#3A3C6C"/>
<path fill-rule="evenodd" clip-rule="evenodd" d="M13.6594 16.4883C14.0446 16.5016 14.3677 16.2001 14.381 15.815C14.3943 15.4298 14.093 15.1066 13.7077 15.0933C13.3225 15.08 12.9993 15.3813 12.986 15.7667C12.9727 16.1519 13.2742 16.475 13.6594 16.4883Z" fill="#3A3C6C"/>
<path fill-rule="evenodd" clip-rule="evenodd" d="M16.2204 16.5889C16.6056 16.6022 16.9288 16.3009 16.9421 15.9157C16.9553 15.5306 16.6541 15.2076 16.2687 15.1941C15.8835 15.1808 15.5603 15.4821 15.5471 15.8672C15.5338 16.2526 15.8352 16.5756 16.2204 16.5889Z" fill="#3A3C6C"/>
<path fill-rule="evenodd" clip-rule="evenodd" d="M18.7815 16.5388C19.1666 16.5521 19.4898 16.2508 19.5031 15.8654C19.5164 15.4801 19.2149 15.1571 18.8297 15.1438C18.4446 15.1305 18.1214 15.432 18.1081 15.8172C18.0948 16.2023 18.3963 16.5253 18.7815 16.5388Z" fill="#3A3C6C"/>
<path fill-rule="evenodd" clip-rule="evenodd" d="M37.4504 0.276598L36.82 1.27104L36.384 0.994656L37.0144 0L37.4504 0.276598ZM37.818 2.0475L38.9257 1.48693L39.158 1.94715L38.0504 2.50773L37.818 2.0475Z" fill="white"/>
<path fill-rule="evenodd" clip-rule="evenodd" d="M61.2271 5.99668L60.8169 6.43435L60.6295 6.25768L61.0395 5.82023L61.2271 5.99668ZM51.9733 8.51263L52.5183 8.63027L52.4639 8.88262L51.9189 8.76499L51.9733 8.51263ZM54.7948 4.49774L55.4799 5.68446L55.2569 5.81243L54.5717 4.62592L54.7948 4.49774Z" fill="white"/>
<path fill-rule="evenodd" clip-rule="evenodd" d="M15.1799 24.0345C15.3169 24.0345 15.4288 23.9225 15.4288 23.7855C15.4288 23.6485 15.3169 23.5363 15.1799 23.5363C15.0428 23.5363 14.9307 23.6485 14.9307 23.7855C14.9305 23.9228 15.0426 24.0345 15.1799 24.0345Z" fill="#96C042"/>
<path fill-rule="evenodd" clip-rule="evenodd" d="M1.8489 42.6607C2.17799 42.6607 2.44637 42.3921 2.44637 42.063C2.44637 41.7339 2.17799 41.4653 1.8489 41.4653C1.51981 41.4653 1.25122 41.7339 1.25122 42.063C1.25122 42.3923 1.51981 42.6607 1.8489 42.6607Z" fill="#96C042"/>
<path fill-rule="evenodd" clip-rule="evenodd" d="M80.1091 21.1505C80.4213 21.1505 80.676 20.896 80.676 20.5838C80.676 20.2715 80.4213 20.0167 80.1091 20.0167C79.7969 20.0167 79.542 20.2713 79.542 20.5838C79.542 20.896 79.7967 21.1505 80.1091 21.1505Z" fill="#3A3C6C"/>
<path fill-rule="evenodd" clip-rule="evenodd" d="M50.7887 41.3325C50.9714 41.3325 51.1207 41.1833 51.1207 41.0005C51.1207 40.8177 50.9714 40.6686 50.7887 40.6686C50.6059 40.6686 50.457 40.8177 50.457 41.0005C50.457 41.1833 50.6059 41.3325 50.7887 41.3325Z" fill="#3A3C6C"/>
<path fill-rule="evenodd" clip-rule="evenodd" d="M82.298 26.3251C82.4259 26.3251 82.5305 26.221 82.5305 26.093C82.5305 25.965 82.4259 25.8605 82.298 25.8605C82.17 25.8605 82.0654 25.965 82.0654 26.093C82.0654 26.221 82.1698 26.3251 82.298 26.3251Z" fill="#3A3C6C"/>
</svg>
