<svg width="87" height="80" viewBox="0 0 87 80" fill="none" xmlns="http://www.w3.org/2000/svg">
<path opacity="0.2" d="M63.6109 60.9475C63.6109 61.8574 49.3711 62.5949 31.8056 62.5949C14.2399 62.5949 0 61.8574 0 60.9475C0 60.0377 14.2399 59.3004 31.8056 59.3004C49.3711 59.3004 63.6109 60.0379 63.6109 60.9475Z" fill="#71BECD"/>
<path d="M53.889 49.4035H10.1859C8.78924 49.4035 7.65698 48.2713 7.65698 46.8746V33.2616C7.65698 31.8649 8.78924 30.7327 10.1859 30.7327H53.889C55.2856 30.7327 56.4179 31.8649 56.4179 33.2616V46.8746C56.4179 48.2713 55.2856 49.4035 53.889 49.4035Z" fill="#D1E8F8"/>
<path d="M53.4963 47.2018V53.1229H10.5791V47.2018C10.5791 45.8192 11.7001 44.6982 13.0846 44.6982H50.9906C52.3754 44.6982 53.4963 45.819 53.4963 47.2018Z" fill="#E3EFF9"/>
<path d="M53.4963 51.4151V53.1229H10.5791V51.4151C10.5791 50.0326 11.7001 48.9096 13.0846 48.9096H50.9906C52.3754 48.9094 53.4963 50.0326 53.4963 51.4151Z" fill="#BEDFF5"/>
<path d="M53.5942 53.0783H10.5791V50.1949C10.5791 49.4851 11.1546 48.9095 11.8645 48.9095H52.3088C53.0186 48.9095 53.5942 49.4851 53.5942 50.1949V53.0783Z" fill="#BEDFF5"/>
<path d="M7.65715 37.0701C6.04343 37.0701 4.73511 38.3784 4.73511 39.9921V53.1223H10.5792V39.9921C10.5792 38.3784 9.27107 37.0701 7.65715 37.0701Z" fill="#BEDFF5"/>
<path d="M56.4181 37.0701C58.0319 37.0701 59.3402 38.3784 59.3402 39.9921V53.1223H53.4961V39.9921C53.4961 38.3784 54.8042 37.0701 56.4181 37.0701Z" fill="#BEDFF5"/>
<path d="M6.76611 39.9411C6.76611 39.449 7.16499 39.0501 7.65714 39.0501C8.1493 39.0501 8.54817 39.449 8.54817 39.9411C8.54817 40.4333 8.1493 40.8322 7.65714 40.8322C7.16519 40.832 6.76611 40.4331 6.76611 39.9411Z" fill="#D1E8F8"/>
<path d="M55.5271 40.1952C55.5271 39.703 55.926 39.3041 56.4181 39.3041C56.9103 39.3041 57.3092 39.703 57.3092 40.1952C57.3092 40.6873 56.9103 41.0862 56.4181 41.0862C55.926 41.0862 55.5271 40.6873 55.5271 40.1952Z" fill="#D1E8F8"/>
<path d="M59.3401 53.1224H4.73511V55.1527H59.3401V53.1224Z" fill="#B2C7E6"/>
<path d="M5.7313 61.1865C5.18112 61.1865 4.73511 60.7405 4.73511 60.1903V53.1225H6.7273V60.1903C6.7275 60.7405 6.28149 61.1865 5.7313 61.1865Z" fill="#B2C7E6"/>
<path d="M58.3439 61.1865C57.7937 61.1865 57.3477 60.7405 57.3477 60.1903V53.1225H59.34V60.1903C59.34 60.7405 58.894 61.1865 58.3439 61.1865Z" fill="#B2C7E6"/>
<path d="M12.5504 35.6991L17.7932 34.5388C19.1489 34.2387 20.4911 35.0945 20.7911 36.4501L21.9515 41.6929C22.2516 43.0486 21.3958 44.3908 20.0401 44.6908L14.7973 45.8512C13.4417 46.1513 12.0995 45.2955 11.7994 43.9398L10.639 38.697C10.339 37.3414 11.1948 35.9992 12.5504 35.6991Z" fill="#FFFBF3"/>
<path d="M13.6992 35.4451L18.942 34.2847C20.2976 33.9847 21.6398 34.8405 21.9399 36.1961L23.1003 41.4389C23.4003 42.7946 22.5445 44.1368 21.1889 44.4368L15.9461 45.5972C14.5904 45.8972 13.2482 45.0415 12.9482 43.6858L11.7878 38.443C11.4875 37.0873 12.3433 35.7452 13.6992 35.4451Z" fill="#F1F0ED"/>
<path d="M72.1702 19.5801V0L58.0937 0V19.5801L72.1702 19.5801Z" fill="#D8E2F2"/>
<path d="M71.4815 0.559692H58.7825V19.0204H71.4815V0.559692Z" fill="#F0F6FB"/>
<mask id="mask0_405_1364" style="mask-type:luminance" maskUnits="userSpaceOnUse" x="58" y="0" width="14" height="20">
<path d="M71.4815 0.559692H58.7825V19.0204H71.4815V0.559692Z" fill="white"/>
</mask>
<g mask="url(#mask0_405_1364)">
<path d="M56.0962 15.547L69.0089 -1.67883L78.0448 0.559736L59.7595 22.8642L54.0356 19.4292L56.0962 15.547Z" fill="#FBFAF8"/>
</g>
<path d="M86.51 0H72.874V9.80312H86.51V0Z" fill="#D8E2F2"/>
<path d="M73.5518 0.677709V9.12537H85.8323V0.677709H73.5518Z" fill="#F0F6FB"/>
<mask id="mask1_405_1364" style="mask-type:luminance" maskUnits="userSpaceOnUse" x="73" y="0" width="13" height="10">
<path d="M73.5518 0.677648V9.12531H85.8323V0.677648H73.5518Z" fill="white"/>
</mask>
<g mask="url(#mask1_405_1364)">
<path d="M86.8407 1.00172L78.2508 12.4609L72.24 10.9716L84.4039 -3.86597L88.2114 -1.58086L86.8407 1.00172Z" fill="#FBFAF8"/>
</g>
<path d="M79.2397 19.5801V10.7255L72.874 10.7255V19.5801H79.2397Z" fill="#D8E2F2"/>
<path d="M78.7996 11.1654H73.314V19.1399H78.7996V11.1654Z" fill="#F0F6FB"/>
<mask id="mask2_405_1364" style="mask-type:luminance" maskUnits="userSpaceOnUse" x="73" y="11" width="6" height="9">
<path d="M78.7996 11.1654H73.314V19.1399H78.7996V11.1654Z" fill="white"/>
</mask>
<g mask="url(#mask2_405_1364)">
<path d="M72.1537 17.6397L77.7316 10.1985L81.635 11.1654L73.7361 20.8005L71.2637 19.3165L72.1537 17.6397Z" fill="#FBFAF8"/>
</g>
<path d="M86.51 19.5801V10.7255L80.1443 10.7255V19.5801H86.51Z" fill="#D8E2F2"/>
<path d="M86.0698 11.1654H80.5842V19.1399H86.0698V11.1654Z" fill="#F0F6FB"/>
<mask id="mask3_405_1364" style="mask-type:luminance" maskUnits="userSpaceOnUse" x="80" y="11" width="7" height="9">
<path d="M86.0698 11.1654H80.5842V19.1399H86.0698V11.1654Z" fill="white"/>
</mask>
<g mask="url(#mask3_405_1364)">
<path d="M79.4237 17.6397L85.0016 10.1985L88.9048 11.1654L81.0062 20.8005L78.5337 19.3165L79.4237 17.6397Z" fill="#FBFAF8"/>
</g>
<path d="M45.2766 80.0001C64.4489 80.0001 79.9911 76.7613 79.9911 72.766C79.9911 68.7708 64.4489 65.532 45.2766 65.532C26.1042 65.532 10.562 68.7708 10.562 72.766C10.562 76.7613 26.1042 80.0001 45.2766 80.0001Z" fill="#A6D3F1"/>
<path opacity="0.2" d="M41.9192 74.8397C49.5289 74.8397 55.6978 74.087 55.6978 73.1584C55.6978 72.2299 49.5289 71.4772 41.9192 71.4772C34.3095 71.4772 28.1406 72.2299 28.1406 73.1584C28.1406 74.087 34.3095 74.8397 41.9192 74.8397Z" fill="#3CA6BB"/>
<path d="M41.8967 39.177L40.7274 51.2821C40.622 52.3729 39.7219 53.2152 38.6265 53.2479C37.496 53.2818 36.5281 52.444 36.3996 51.3205L34.9126 38.3357C34.7373 36.8044 35.9116 35.4517 37.4524 35.4103L38.3603 35.3859C40.4386 35.3303 42.0965 37.1074 41.8967 39.177Z" fill="#40506D"/>
<path d="M35.5471 68.5816L35.116 61.2066C34.848 58.2291 35.2324 55.229 36.2425 52.4153L36.7402 51.0286C37.0759 50.0936 38.037 49.537 39.015 49.7111C40.0421 49.8941 40.765 50.8234 40.6895 51.8639C40.2988 57.2565 39.1107 63.4578 37.9806 68.7295C37.8671 69.2585 37.4221 69.6519 36.8832 69.6992C36.2057 69.7588 35.6079 69.2589 35.5471 68.5816Z" fill="#40506D"/>
<path d="M41.3205 41.3991C38.9617 41.7773 36.6463 40.798 35.3437 38.7963C35.3403 38.7911 35.3376 38.7858 35.3356 38.7802L34.89 38.2691L34.8141 37.3024C34.3099 33.9898 35.6424 34.2136 37.2339 33.9585L42.2038 33.1615C43.8381 32.8995 45.3754 34.012 45.6374 35.6463L45.6693 35.8447C45.7354 36.2571 45.7146 36.6785 45.6083 37.0821L45.459 37.649C44.9432 39.6081 43.3206 41.0782 41.3205 41.3991Z" fill="#787D9A"/>
<path d="M47.4008 29.9834C47.8293 30.5833 50.0206 34.0638 47.1776 38.539C47.0823 38.6889 46.8716 38.7101 46.745 38.5853C46.0104 37.8606 43.8711 35.7435 43.8711 35.6696C43.8711 35.5803 45.7068 31.3366 45.7068 31.3366L47.2441 29.9669C47.2914 29.9247 47.3639 29.9319 47.4008 29.9834Z" fill="#787D9A"/>
<path d="M47.2355 29.9633C47.2355 29.9633 49.5677 34.4533 46.7673 38.6163C46.7673 38.6163 41.5777 37.2668 41.913 36.9101C42.2481 36.553 47.2355 29.9633 47.2355 29.9633Z" fill="#566184"/>
<path d="M40.6142 36.0305L49.1026 28.654C49.8424 28.0111 50.9477 28.0285 51.6668 28.6946C52.3885 29.363 52.4883 30.4689 51.8979 31.2557L44.3769 39.8143C43.3946 40.9323 41.6886 41.0331 40.5813 40.0385C39.3853 38.9643 39.4007 37.085 40.6142 36.0305Z" fill="#40506D"/>
<path d="M48.7081 43.0467L48.0333 37.8909C47.716 35.4663 47.9311 33.0014 48.6641 30.6678L49.0254 29.5175C49.269 28.7419 50.0362 28.2547 50.8417 28.364C51.6874 28.4789 52.309 29.2141 52.2817 30.0671C52.1417 34.4454 51.4503 38.752 50.7026 43.0853C50.6274 43.5215 50.2766 43.8579 49.8376 43.915C49.2854 43.9867 48.7804 43.5981 48.7081 43.0467Z" fill="#40506D"/>
<path d="M44.3771 39.8141L42.8085 41.4576C42.4726 41.7655 42.1452 42.0719 41.9016 42.4365C41.7238 42.7027 41.6277 43.0154 41.6113 43.3353L41.2397 40.4739L44.3771 39.8141Z" fill="#787D9A"/>
<path d="M34.9124 38.3358L35.0817 49.4969C35.0817 49.4969 38.385 50.8605 41.3476 48.4647L41.7299 41.0221L34.9124 38.3358Z" fill="#787D9A"/>
<path d="M47.3899 29.969C47.3608 29.9654 47.302 29.9484 47.2786 29.9805C47.1907 30.1025 47.1085 30.2275 47.0275 30.3534C46.9629 30.4536 46.8991 30.5544 46.8334 30.6547C46.7138 30.8365 46.5961 31.0222 46.4961 31.2157C45.3729 33.3083 45.4991 35.5948 47.0302 38.6525L46.22 39.1665L41.2608 42.4969L38.6667 37.3145C38.6667 37.3145 46.1648 30.7961 46.1652 30.7959C46.3171 30.664 46.5189 30.4055 46.6361 30.2419C46.7058 30.1447 46.7803 30.0433 46.87 29.9635C46.9579 29.8854 47.0667 29.8383 47.1859 29.8573C47.262 29.8692 47.3414 29.9082 47.3899 29.969Z" fill="#787D9A"/>
<path d="M47.0399 30.2885C47.0399 30.2885 47.1835 30.0391 47.3073 30.1132C47.4311 30.1873 47.3073 29.9502 47.3073 29.9502C47.3073 29.9502 47.1633 29.907 47.1463 29.9175C47.1292 29.9282 47.0439 30.0663 47.0397 30.0833C47.0359 30.1003 47.0399 30.2885 47.0399 30.2885Z" fill="#787D9A"/>
<path d="M46.7717 38.1604C46.7717 38.1604 46.9057 38.3097 47.0533 38.1604C47.2008 38.0111 47.169 38.2725 47.102 38.3903C47.0351 38.5082 46.9319 38.6858 46.8655 38.7039C46.7992 38.7217 46.5635 38.7185 46.5603 38.6516C46.557 38.5846 46.7717 38.1604 46.7717 38.1604Z" fill="#787D9A"/>
<path d="M46.1117 31.0087C46.1117 31.0087 43.4257 34.9717 43.2021 39.4469" stroke="#40506D" stroke-miterlimit="10" stroke-linecap="round"/>
<path d="M43.2019 33.679C43.2019 33.679 40.5533 37.3012 37.4243 42.5525" stroke="#40506D" stroke-miterlimit="10" stroke-linecap="round"/>
<path d="M36.3732 51.092C36.3732 51.092 36.3922 51.8797 36.2286 52.5243C36.0649 53.1692 37.2122 52.1415 37.2314 52.0967C37.2506 52.0522 36.9701 50.9179 36.9383 50.9116C36.9064 50.9053 36.3732 51.092 36.3732 51.092Z" fill="#40506D"/>
<path d="M47.8915 35.815C47.8915 35.815 47.7775 32.9366 48.4241 31.5078" stroke="#787D9A" stroke-miterlimit="10" stroke-linecap="round"/>
<path d="M42.8081 35.3848C42.8081 35.3848 38.9473 44.2825 35.8633 48.641" stroke="#40506D" stroke-miterlimit="10" stroke-linecap="round"/>
<path d="M41.2396 35.4872C41.2396 35.4872 38.7691 37.4006 35.8635 37.6299" stroke="#40506D" stroke-miterlimit="10" stroke-linecap="round"/>
<path d="M41.6345 42.8792C41.6389 42.7944 42.2037 40.1956 42.2037 40.1956" stroke="#40506D" stroke-miterlimit="10" stroke-linecap="round"/>
<path d="M36.1422 68.5177L37.7636 68.6185C37.8157 68.6216 37.8607 68.5822 37.8638 68.5299C37.867 68.4778 37.8276 68.4329 37.7753 68.4297L36.1539 68.3289C36.1018 68.3257 36.0568 68.3652 36.0536 68.4174C36.0505 68.4695 36.0899 68.5145 36.1422 68.5177Z" fill="white"/>
<path d="M37.6269 69.5563C37.6269 69.5563 37.703 68.8677 37.8176 68.5175C38.0026 67.9527 37.8358 67.3328 36.9214 67.3328C36.1207 67.3328 35.929 67.7471 36.0055 68.4549C36.0807 69.1521 36.2346 69.5771 36.2346 69.5771L37.6269 69.5563Z" fill="#3DA8B9"/>
<path d="M36.263 70.0087C36.4387 69.5694 36.5187 68.6703 36.5537 68.0714H37.4683C37.5034 68.6701 37.5834 69.5692 37.7591 70.0087C37.9357 70.4501 38.7869 70.7207 39.3809 70.8591C39.3938 70.8973 39.4074 70.9363 39.4195 70.9742C39.511 71.2584 39.4884 71.6458 39.469 71.9462H34.4948L34.4839 71.7119C34.4641 71.2875 34.5195 70.8629 34.6479 70.4579C35.2418 70.3188 36.0871 70.4486 36.263 70.0087Z" fill="#3DA8B9"/>
<path d="M37.7596 70.0087C37.6065 69.6261 37.3793 68.8947 37.3001 68.3168C37.2823 68.1865 37.3859 68.0714 37.5176 68.0714H37.7913C38.0325 68.0714 38.2517 68.2091 38.3567 68.4263C38.6104 68.951 39.0826 69.9675 39.3816 70.8592C38.7873 70.7207 37.936 70.4502 37.7596 70.0087Z" fill="#7CCAC4"/>
<path d="M34.6482 70.4577L35.1944 68.501C35.2653 68.2471 35.4966 68.0714 35.7602 68.0714H35.8262H36.3207C36.4475 68.0714 36.5477 68.1778 36.5388 68.3041C36.4976 68.884 36.4172 69.6233 36.2631 70.0087C36.0872 70.4486 35.1984 70.4985 34.6482 70.4577Z" fill="#7CCAC4"/>
<path d="M35.9899 69.21H37.8849C37.9407 69.21 37.9859 69.1649 37.9859 69.109C37.9859 69.0532 37.9407 69.008 37.8849 69.008H35.9899C35.9341 69.008 35.8889 69.0532 35.8889 69.109C35.8889 69.1649 35.9341 69.21 35.9899 69.21Z" fill="#40506D"/>
<path d="M35.9899 69.8155H38.0534C38.1093 69.8155 38.1544 69.7703 38.1544 69.7145C38.1544 69.6586 38.1093 69.6135 38.0534 69.6135H35.9899C35.9341 69.6135 35.8889 69.6586 35.8889 69.7145C35.8889 69.7703 35.9341 69.8155 35.9899 69.8155Z" fill="#40506D"/>
<path d="M34.7304 72.6379H39.2303C39.4212 72.6379 39.5759 72.4832 39.5759 72.2923V72.0616C39.5759 71.9978 39.5242 71.9461 39.4604 71.9461H34.5533C34.4602 71.9461 34.3848 72.0216 34.3848 72.1146V72.2923C34.3848 72.4832 34.5394 72.6379 34.7304 72.6379Z" fill="#FFFDFD"/>
<path d="M51.4646 44.5007C51.4646 44.5007 51.0918 44.0242 50.9237 43.6817C50.6619 43.1482 50.9405 42.4449 50.0275 42.497C49.3914 42.5332 49.3789 42.9038 49.4555 43.6114C49.5308 44.3086 49.6847 44.7336 49.6847 44.7336L51.4646 44.5007Z" fill="#3DA8B9"/>
<path d="M47.8366 47.8021H54.2281C54.419 47.8021 54.5737 47.6475 54.5737 47.4565V47.2258C54.5737 47.162 54.522 47.1104 54.4582 47.1104H47.6598C47.5667 47.1104 47.4912 47.1858 47.4912 47.2789V47.4567C47.491 47.6475 47.6457 47.8021 47.8366 47.8021Z" fill="#FFFDFD"/>
<path d="M54.4173 46.1384C54.4052 46.1005 54.3915 46.0617 54.3787 46.0233C54.1864 45.6906 52.5756 45.0025 51.8446 44.7589C51.6699 44.7007 51.521 44.586 51.4194 44.4325L50.9237 43.6819L50.6149 43.7833C50.5973 43.5886 50.5842 43.4007 50.5745 43.2357H49.6599C49.6249 43.8344 49.5448 44.7336 49.3692 45.1731C49.1933 45.6127 48.3478 45.483 47.7541 45.622C47.6259 46.027 47.5703 46.4517 47.5901 46.8761L47.601 47.1104H54.4668C54.4864 46.8099 54.509 46.4226 54.4173 46.1384Z" fill="#3DA8B9"/>
<path d="M47.7542 45.622L48.3004 43.6653L48.3025 43.6578C48.3952 43.3343 48.7636 43.1799 49.0591 43.3407C49.0591 43.3407 49.5128 43.5875 49.54 43.6023C49.6679 43.6718 49.8105 43.7348 49.9565 43.7493C50.1165 43.7653 49.9105 43.716 50.0537 43.8136C50.2421 43.9422 50.3383 44.2036 50.4585 44.3896C50.6114 44.626 50.777 44.789 50.9535 45.0085C51.1242 45.221 51.1321 45.4527 51.0141 45.7482C50.838 46.1877 48.3043 45.6628 47.7542 45.622Z" fill="#7CCAC4"/>
<path d="M50.13 44.1291L51.2585 44.0638C51.2934 44.0618 51.3193 44.0153 51.3161 43.9596C51.313 43.904 51.2823 43.8604 51.2474 43.8624L50.1189 43.9277C50.0841 43.9297 50.0581 43.9763 50.0613 44.0319C50.0645 44.0876 50.0952 44.1309 50.13 44.1291Z" fill="#40506D"/>
<path d="M50.3056 44.7336L51.5973 44.6623C51.6321 44.6603 51.6579 44.6138 51.6549 44.5579C51.6517 44.5023 51.621 44.4587 51.5862 44.4607L50.2947 44.532C50.2598 44.534 50.2341 44.5805 50.237 44.6364C50.24 44.692 50.2707 44.7356 50.3056 44.7336Z" fill="#40506D"/>
<path d="M54.6726 28.5615L49.4682 27.0442L47.8246 26.4071C47.0842 26.1201 46.3208 25.8973 45.5424 25.7409L43.9348 25.418C42.9577 25.1321 41.9563 25.788 41.8286 26.7983C41.7947 27.7402 42.2795 28.3567 43.1133 28.6215L43.3229 28.6869C45.1887 29.406 47.0133 29.8181 49.0038 30.0101L54.2224 30.5131C54.6498 30.5858 55.0754 30.3757 55.2776 29.9922C55.5739 29.4312 55.2814 28.7398 54.6726 28.5615Z" fill="#F6A58D"/>
<path d="M46.2471 17.8619L44.9527 27.2848C44.8497 28.0352 44.2231 28.6036 43.4661 28.6335C42.5988 28.6678 41.87 27.9887 41.8427 27.1212L41.5434 17.6146C41.5008 16.2589 42.6052 15.1457 43.961 15.1775C45.3717 15.2106 46.439 16.4641 46.2471 17.8619Z" fill="#F6A58D"/>
<path d="M54.416 28.6287C54.416 28.6287 55.6847 27.779 56.1442 27.8323C56.604 27.8854 57.7151 27.9371 57.9199 28.0117C58.4271 28.1965 59.1791 28.1973 59.1747 28.3492C59.1706 28.5009 59.1936 28.8105 58.094 28.7578L59.273 29.0931C59.273 29.0931 59.7077 29.1893 59.6239 29.5296C59.5342 29.8944 59.1821 29.8471 59.1821 29.8471L58.7226 29.8005C58.7226 29.8005 58.9248 29.9479 58.8022 30.2089C58.625 30.5864 58.1578 30.3949 58.1578 30.3949C58.1578 30.3949 58.3445 30.5981 58.1976 30.8344C58.0504 31.0704 57.8122 31.0572 57.8122 31.0572C57.8122 31.0572 57.8522 31.2485 57.7559 31.3556C57.6022 31.5269 57.0974 31.4859 57.0974 31.4859C57.0974 31.4859 55.7021 31.2291 54.2748 30.3776C54.2748 30.3776 52.9173 29.4518 54.416 28.6287Z" fill="#F6A58D"/>
<path d="M58.0937 28.7575L57.1783 28.6876C57.1783 28.6876 56.6509 29.2483 55.5493 29.295C55.5493 29.295 56.03 29.7422 56.0835 30.4099" stroke="#D88B79" stroke-width="0.5" stroke-miterlimit="10" stroke-linecap="round" stroke-linejoin="round"/>
<path d="M57.2473 31.4265L56.481 30.9767C56.481 30.9767 56.2446 30.8622 56.366 30.5969C56.4876 30.3313 56.7571 30.4909 56.7571 30.4909L57.8117 31.0571L56.9633 30.4784C56.9633 30.4784 56.6825 30.3028 56.8631 30.0366C57.0195 29.8056 57.2839 29.9587 57.2839 29.9587L58.1262 30.3719L57.4352 29.954C57.4352 29.954 57.2423 29.8227 57.3752 29.5601C57.5107 29.2919 57.8028 29.426 57.8028 29.426L58.4841 29.6981C58.6222 29.7532 58.7677 29.7866 58.9161 29.7971L58.9921 29.8025C58.9921 29.8025 58.7269 29.6419 58.781 29.3594C58.8351 29.077 59.1286 29.0788 59.1286 29.0788" stroke="#D88B79" stroke-width="0.5" stroke-miterlimit="10" stroke-linecap="round" stroke-linejoin="round"/>
<path d="M44.6567 32.4682C42.571 34.6501 39.2943 36.4044 35.974 36.1537L34.7082 36.0582C34.57 36.0477 34.4668 35.9263 34.4791 35.7881L34.7054 28.6858L33.8352 23.7842L44.2073 26.2217L44.6567 32.4682Z" fill="#E76164"/>
<path d="M44.2073 26.2217L35.0631 28.8237L32.4421 18.0663L45.7068 16.7911L44.2073 26.2217Z" fill="#E76164"/>
<path d="M44.6034 17.9308L33.7716 18.5679C32.3181 18.6535 31.8016 16.5199 33.1149 15.8546L34.8886 14.9563C37.2724 13.7489 40.0069 13.5879 42.5158 14.5075L44.9104 15.3852C46.1797 15.8507 45.9383 17.8523 44.6034 17.9308Z" fill="#E76164"/>
<path d="M45.3867 16.0875L41.9631 20.2906L40.7364 21.5565C40.1839 22.1267 39.6814 22.7432 39.2342 23.3992L38.3109 24.7542C37.6668 25.5431 37.8815 26.7207 38.7623 27.2318C39.6166 27.6297 40.3734 27.4232 40.9418 26.7581L41.0836 26.5906C42.4723 25.1519 43.5624 23.6315 44.5138 21.8728L47.0087 17.2618C47.242 16.8964 47.2143 16.4226 46.9398 16.0869C46.5385 15.596 45.7877 15.5964 45.3867 16.0875Z" fill="#F6A58D"/>
<path d="M45.5113 16.4643C45.5113 16.4643 45.1757 14.7985 45.4254 14.3483C45.6753 13.8977 46.2 12.7766 46.3636 12.5975C46.769 12.1541 47.0888 11.3809 47.2433 11.4498C47.3976 11.5185 47.726 11.6263 47.2049 12.7354L47.8824 12.0147C47.8824 12.0147 48.1666 11.617 48.4805 11.8388C48.7822 12.0521 48.5869 12.4014 48.5869 12.4014L48.5445 12.531C48.5445 12.531 48.7742 12.3929 48.9984 12.6225C49.2351 12.8647 48.9162 13.3644 48.9162 13.3644C48.9162 13.3644 49.2048 13.2586 49.3854 13.5099C49.5658 13.7615 49.451 14.0009 49.451 14.0009C49.451 14.0009 49.6649 14.0411 49.7342 14.1855C49.8451 14.4164 49.5888 14.9183 49.5888 14.9183C49.5888 14.9183 48.7322 16.2448 47.2504 17.3519C47.2504 17.3519 45.7221 18.3554 45.5113 16.4643Z" fill="#F6A58D"/>
<path d="M47.2051 12.7355L46.7217 13.5102" stroke="#D88B79" stroke-width="0.5" stroke-miterlimit="10" stroke-linecap="round"/>
<path d="M47.4651 12.723C47.4651 12.723 47.9202 12.4853 48.1482 12.8305C48.1838 12.8846 48.2373 12.9266 48.2995 12.9446C48.4318 12.9826 48.6546 13.0888 48.7289 13.3782C48.7493 13.4576 48.8001 13.5249 48.8711 13.5659C49.0055 13.6437 49.2093 13.7984 49.2479 14.0365C49.2612 14.1183 49.2953 14.1963 49.3622 14.245C49.4925 14.3397 49.6714 14.5482 49.5163 14.9261" stroke="#D88B79" stroke-width="0.5" stroke-miterlimit="10" stroke-linecap="round"/>
<path d="M36.0201 16.9405L40.9155 25.0954C41.3053 25.7448 41.1732 26.5804 40.602 27.0779C39.9477 27.6479 38.954 27.5754 38.3892 26.9165L32.1993 19.695C31.3168 18.6653 31.48 17.1055 32.5566 16.2808C33.6768 15.4228 35.2941 15.7308 36.0201 16.9405Z" fill="#F6A58D"/>
<path d="M39.5892 22.9115L38.9148 23.9111" stroke="#D88B79" stroke-width="0.5" stroke-miterlimit="10" stroke-linecap="round"/>
<path d="M43.5313 4.70093C43.5313 4.70093 44.1345 6.65074 43.2255 7.10526C42.3164 7.55979 41.8916 5.02375 41.8916 5.02375L43.5313 4.70093Z" fill="#4A2B54"/>
<path d="M41.2674 13.9439C41.2902 14.891 40.5415 15.6792 39.5945 15.702L39.4527 15.7057C38.5056 15.7285 37.7173 14.9799 37.6946 14.0328L37.6472 12.1254L37.5906 9.87571C37.568 8.92863 38.3164 8.14217 39.2637 8.11761L39.4055 8.11385C40.3526 8.09107 41.1408 8.8397 41.1636 9.78678L41.2638 13.7981L41.2674 13.9439Z" fill="#F6A58D"/>
<path d="M41.2636 13.7982C41.0369 13.8606 40.7966 13.8984 40.551 13.9041L40.4376 13.9061C39.1956 13.9382 38.1124 13.1991 37.6472 12.1254L37.5906 9.87577C37.568 8.92869 38.3164 8.14223 39.2637 8.11767L39.4055 8.11391C40.3526 8.09113 41.1408 8.83977 41.1636 9.78684L41.2636 13.7982Z" fill="#EE927D"/>
<path d="M40.5323 13.1886L40.4194 13.1914C38.7837 13.232 37.4249 11.9391 37.3841 10.3034L37.2868 6.39706C37.2462 4.76136 38.5391 3.40253 40.1748 3.36174L40.2877 3.35896C41.9234 3.31836 43.2822 4.61124 43.323 6.24694L43.4203 10.1533C43.4609 11.789 42.1678 13.148 40.5323 13.1886Z" fill="#F6A58D"/>
<path d="M43.077 5.13566C43.077 5.13566 41.6126 6.12848 39.0524 5.51671C39.0524 5.51671 39.0411 6.62539 38.2382 6.66362V8.24089C38.2382 8.49341 38.0599 8.71087 37.8122 8.76038L37.448 8.80474L37.4167 10.6765L36.61 9.43316C36.3585 9.04538 36.2246 8.59283 36.2246 8.13058V5.77417C36.2246 5.23963 36.5205 4.74906 36.993 4.49952L37.1422 4.42089L37.3691 3.90655C37.6219 3.33359 38.1685 2.94521 38.7925 2.89491L41.1787 2.7028C41.8879 2.64576 42.5775 2.95274 43.0096 3.51778L43.6418 4.34444C43.6418 4.34444 44.8547 5.15903 44.1005 6.17958C44.1005 6.17958 44.1619 5.2325 43.4887 4.94771L43.077 5.13566Z" fill="#4A2B54"/>
<path d="M38.0601 8.43035C38.2279 9.09936 37.9272 9.75135 37.3883 9.88642C36.8494 10.0217 36.2765 9.58875 36.1087 8.91973C35.941 8.25072 36.2416 7.59873 36.7805 7.46347C37.3194 7.32859 37.8924 7.76133 38.0601 8.43035Z" fill="#F6A58D"/>
</svg>
