<svg width="32" height="32" viewBox="0 0 32 32" fill="none" xmlns="http://www.w3.org/2000/svg">
<path d="M16.7904 31.0107L16.7757 31.0134L16.6811 31.06L16.6544 31.0654L16.6357 31.06L16.5411 31.0134C16.5269 31.0089 16.5162 31.0111 16.5091 31.02L16.5037 31.0334L16.4811 31.604L16.4877 31.6307L16.5011 31.648L16.6397 31.7467L16.6597 31.752L16.6757 31.7467L16.8144 31.648L16.8304 31.6267L16.8357 31.604L16.8131 31.0347C16.8095 31.0205 16.802 31.0125 16.7904 31.0107ZM17.1437 30.86L17.1264 30.8627L16.8797 30.9867L16.8664 31L16.8624 31.0147L16.8864 31.588L16.8931 31.604L16.9037 31.6134L17.1717 31.7374C17.1886 31.7418 17.2015 31.7382 17.2104 31.7267L17.2157 31.708L17.1704 30.8894C17.166 30.8734 17.1571 30.8636 17.1437 30.86ZM16.1904 30.8627C16.1845 30.8591 16.1775 30.858 16.1708 30.8595C16.1641 30.861 16.1582 30.865 16.1544 30.8707L16.1464 30.8894L16.1011 31.708C16.102 31.724 16.1095 31.7347 16.1237 31.74L16.1437 31.7374L16.4117 31.6134L16.4251 31.6027L16.4304 31.588L16.4531 31.0147L16.4491 30.9987L16.4357 30.9854L16.1904 30.8627Z" fill="#969696"/>
<path d="M15.9998 2.66669C23.3638 2.66669 29.3332 8.63602 29.3332 16C29.3332 23.364 23.3638 29.3334 15.9998 29.3334C8.63584 29.3334 2.6665 23.364 2.6665 16C2.6665 8.63602 8.63584 2.66669 15.9998 2.66669ZM13.1718 11.2854C12.9324 11.0437 12.6097 10.9026 12.2698 10.8911C11.9298 10.8796 11.5983 10.9984 11.3431 11.2233C11.0878 11.4482 10.9282 11.7621 10.8969 12.1009C10.8656 12.4396 10.9649 12.7775 11.1745 13.0454L11.2865 13.172L14.1132 15.9987L11.2865 18.828C11.0448 19.0674 10.9038 19.3901 10.8923 19.7301C10.8807 20.0701 10.9996 20.4016 11.2245 20.6568C11.4493 20.912 11.7633 21.0716 12.102 21.103C12.4407 21.1343 12.7786 21.035 13.0465 20.8254L13.1718 20.7147L15.9998 17.8854L18.8278 20.7147C19.0672 20.9564 19.3899 21.0974 19.7299 21.1089C20.0699 21.1205 20.4014 21.0016 20.6566 20.7767C20.9118 20.5518 21.0714 20.2379 21.1028 19.8992C21.1341 19.5605 21.0348 19.2226 20.8252 18.9547L20.7145 18.828L17.8852 16L20.7145 13.172C20.9562 12.9326 21.0972 12.6099 21.1087 12.27C21.1203 11.93 21.0014 11.5985 20.7765 11.3432C20.5517 11.088 20.2377 10.9284 19.899 10.8971C19.5603 10.8657 19.2224 10.9651 18.9545 11.1747L18.8278 11.2854L15.9998 14.1147L13.1718 11.2854Z" fill="#969696"/>
</svg>
