<svg width="24" height="24" viewBox="0 0 24 24" fill="none" xmlns="http://www.w3.org/2000/svg">
<g clip-path="url(#clip0_303_264)">
<path d="M24 12C24 5.37308 18.6269 0 12 0C5.37308 0 0 5.37308 0 12C0 17.989 4.38757 22.9537 10.1252 23.8549V15.4696H7.07749V12H10.1252V9.35565C10.1252 6.34847 11.9173 4.68626 14.6579 4.68626C15.9707 4.68626 17.3444 4.92083 17.3444 4.92083V7.874H15.8307C14.3406 7.874 13.8748 8.79876 13.8748 9.74884V12H17.2026L16.6711 15.4696H13.8748V23.8549C19.6124 22.9554 24 17.9907 24 12Z" fill="#1977F3"/>
<path d="M16.6711 15.4696L17.2027 12H13.8749V9.74886C13.8749 8.80047 14.3389 7.87402 15.8307 7.87402H17.3444V4.92085C17.3444 4.92085 15.9708 4.68628 14.6579 4.68628C11.9173 4.68628 10.1252 6.34681 10.1252 9.35566V12H7.07751V15.4696H10.1252V23.8549C10.7361 23.9511 11.3621 24 12 24C12.6379 24 13.264 23.9494 13.8749 23.8549V15.4696H16.6711Z" fill="#FEFEFE"/>
</g>
<defs>
<clipPath id="clip0_303_264">
<rect width="24" height="24" fill="white"/>
</clipPath>
</defs>
</svg>
