<svg width="136" height="136" viewBox="0 0 136 136" fill="none" xmlns="http://www.w3.org/2000/svg">
<path d="M119.988 54.6231C117.985 52.53 115.913 50.3731 115.132 48.4766C114.41 46.7394 114.368 43.86 114.325 41.0709C114.245 35.8859 114.16 30.0103 110.075 25.925C105.99 21.8397 100.114 21.7547 94.9291 21.675C92.14 21.6325 89.2606 21.59 87.5234 20.8675C85.6322 20.0866 83.47 18.0147 81.3769 16.0119C77.7112 12.4897 73.5462 8.5 68 8.5C62.4538 8.5 58.2941 12.4897 54.6231 16.0119C52.53 18.0147 50.3731 20.0866 48.4766 20.8675C46.75 21.59 43.86 21.6325 41.0709 21.675C35.8859 21.7547 30.0103 21.8397 25.925 25.925C21.8397 30.0103 21.7812 35.8859 21.675 41.0709C21.6325 43.86 21.59 46.7394 20.8675 48.4766C20.0866 50.3678 18.0147 52.53 16.0119 54.6231C12.4897 58.2887 8.5 62.4538 8.5 68C8.5 73.5462 12.4897 77.7059 16.0119 81.3769C18.0147 83.47 20.0866 85.6269 20.8675 87.5234C21.59 89.2606 21.6325 92.14 21.675 94.9291C21.7547 100.114 21.8397 105.99 25.925 110.075C30.0103 114.16 35.8859 114.245 41.0709 114.325C43.86 114.368 46.7394 114.41 48.4766 115.132C50.3678 115.913 52.53 117.985 54.6231 119.988C58.2887 123.51 62.4538 127.5 68 127.5C73.5462 127.5 77.7059 123.51 81.3769 119.988C83.47 117.985 85.6269 115.913 87.5234 115.132C89.2606 114.41 92.14 114.368 94.9291 114.325C100.114 114.245 105.99 114.16 110.075 110.075C114.16 105.99 114.245 100.114 114.325 94.9291C114.368 92.14 114.41 89.2606 115.132 87.5234C115.913 85.6322 117.985 83.47 119.988 81.3769C123.51 77.7112 127.5 73.5462 127.5 68C127.5 62.4538 123.51 58.2941 119.988 54.6231ZM92.2569 58.2569L62.5069 88.0069C62.1122 88.402 61.6434 88.7155 61.1275 88.9294C60.6116 89.1433 60.0585 89.2533 59.5 89.2533C58.9415 89.2533 58.3884 89.1433 57.8725 88.9294C57.3566 88.7155 56.8878 88.402 56.4931 88.0069L43.7431 75.2569C43.3483 74.862 43.035 74.3932 42.8213 73.8773C42.6076 73.3614 42.4976 72.8084 42.4976 72.25C42.4976 71.6916 42.6076 71.1386 42.8213 70.6227C43.035 70.1068 43.3483 69.638 43.7431 69.2431C44.5406 68.4457 45.6222 67.9976 46.75 67.9976C47.3084 67.9976 47.8614 68.1076 48.3773 68.3213C48.8932 68.535 49.362 68.8483 49.7569 69.2431L59.5 78.9916L86.2431 52.2431C86.638 51.8483 87.1068 51.535 87.6227 51.3213C88.1386 51.1076 88.6916 50.9976 89.25 50.9976C89.8084 50.9976 90.3614 51.1076 90.8773 51.3213C91.3932 51.535 91.862 51.8483 92.2569 52.2431C92.6517 52.638 92.965 53.1068 93.1787 53.6227C93.3924 54.1386 93.5024 54.6916 93.5024 55.25C93.5024 55.8084 93.3924 56.3614 93.1787 56.8773C92.965 57.3932 92.6517 57.862 92.2569 58.2569Z" fill="#02055A"/>
</svg>
