<svg width="58" height="58" viewBox="0 0 58 58" fill="none" xmlns="http://www.w3.org/2000/svg">
<path d="M29.0002 4.83337C42.3474 4.83337 53.1668 15.6528 53.1668 29C53.1668 42.3473 42.3474 53.1667 29.0002 53.1667C15.6529 53.1667 4.8335 42.3473 4.8335 29C4.8335 15.6528 15.6529 4.83337 29.0002 4.83337ZM23.8744 20.4547C23.4405 20.0167 22.8556 19.761 22.2394 19.7401C21.6232 19.7192 21.0223 19.9346 20.5598 20.3422C20.0972 20.7499 19.8079 21.3189 19.7511 21.9328C19.6943 22.5467 19.8743 23.1591 20.2542 23.6447L20.4572 23.8743L25.5806 28.9976L20.4572 34.1258C20.0192 34.5597 19.7636 35.1446 19.7427 35.7608C19.7218 36.377 19.9372 36.9779 20.3448 37.4404C20.7524 37.903 21.3214 38.1923 21.9353 38.2491C22.5493 38.3059 23.1617 38.1259 23.6472 37.746L23.8744 37.5454L29.0002 32.4172L34.1259 37.5454C34.5598 37.9834 35.1447 38.239 35.7609 38.2599C36.3771 38.2808 36.978 38.0654 37.4406 37.6578C37.9031 37.2502 38.1924 36.6812 38.2492 36.0673C38.306 35.4534 38.126 34.8409 37.7461 34.3554L37.5455 34.1258L32.4173 29L37.5455 23.8743C37.9835 23.4404 38.2392 22.8555 38.2601 22.2393C38.281 21.6231 38.0656 21.0222 37.658 20.5596C37.2503 20.0971 36.6813 19.8078 36.0674 19.751C35.4535 19.6942 34.8411 19.8742 34.3555 20.2541L34.1259 20.4547L29.0002 25.5829L23.8744 20.4547Z" fill="#CD000A"/>
</svg>
