<svg width="52" height="52" viewBox="0 0 52 52" fill="none" xmlns="http://www.w3.org/2000/svg">
<mask id="mask0_758_875" style="mask-type:luminance" maskUnits="userSpaceOnUse" x="1" y="1" width="50" height="50">
<path d="M25.9997 47.6666C28.8455 47.6701 31.664 47.1113 34.2932 46.0222C36.9223 44.9331 39.3104 43.3353 41.3202 41.3204C43.335 39.3107 44.9329 36.9226 46.022 34.2934C47.111 31.6642 47.6699 28.8458 47.6664 25.9999C47.6699 23.1541 47.111 20.3356 46.022 17.7065C44.9329 15.0773 43.335 12.6892 41.3202 10.6794C39.3104 8.66461 36.9223 7.06676 34.2932 5.97768C31.664 4.8886 28.8455 4.32976 25.9997 4.33327C23.1539 4.32976 20.3354 4.8886 17.7062 5.97768C15.077 7.06676 12.689 8.66461 10.6792 10.6794C8.66437 12.6892 7.06651 15.0773 5.97743 17.7065C4.88835 20.3356 4.32951 23.1541 4.33302 25.9999C4.32951 28.8458 4.88835 31.6642 5.97743 34.2934C7.06651 36.9226 8.66437 39.3107 10.6792 41.3204C12.689 43.3353 15.077 44.9331 17.7062 46.0222C20.3354 47.1113 23.1539 47.6701 25.9997 47.6666Z" fill="white" stroke="white" stroke-width="5.15556" stroke-linejoin="round"/>
<path d="M17.333 26L23.833 32.5L36.833 19.5" stroke="black" stroke-width="5.15556" stroke-linecap="round" stroke-linejoin="round"/>
</mask>
<g mask="url(#mask0_758_875)">
<path d="M-0.000488281 -0.00012207H51.9995V51.9999H-0.000488281V-0.00012207Z" fill="#52CB98"/>
</g>
</svg>
